<svg width="100" height="100" viewBox="0 0 100 100" fill="none" xmlns="http://www.w3.org/2000/svg">
<rect width="100" height="100" rx="16" fill="#F6F7FB"/>
<path d="M12 10.2812H14.5781V12H12V10.2812ZM14.5 10.2812H17.0781V12H14.5V10.2812ZM17 10.2812H19.5781V12H17V10.2812ZM19.5 10.2812H22.0781V12H19.5V10.2812ZM22 10.2812H24.5781V12H22V10.2812ZM24.5 10.2812H27.0781V12H24.5V10.2812ZM27 10.2812H29.5781V12H27V10.2812ZM29.5 10.2812H32.0781V12H29.5V10.2812ZM32 10.2812H34.5781V12H32V10.2812ZM39.5156 10.2812H42.0938V12H39.5156V10.2812ZM42.0156 10.2812H44.5938V12H42.0156V10.2812ZM44.5156 10.2812H47.0938V12H44.5156V10.2812ZM47.0156 10.2812H49.5938V12H47.0156V10.2812ZM49.5156 10.2812H52.0938V12H49.5156V10.2812ZM52.0156 10.2812H54.5938V12H52.0156V10.2812ZM54.5156 10.2812H57.0938V12H54.5156V10.2812Z" fill="#313132"/>
<path d="M12 36.7109H13.9336V38H12V36.7109ZM13.875 36.7109H15.8086V38H13.875V36.7109ZM15.75 36.7109H17.6836V38H15.75V36.7109ZM17.625 36.7109H19.5586V38H17.625V36.7109ZM19.5 36.7109H21.4336V38H19.5V36.7109ZM21.375 36.7109H23.3086V38H21.375V36.7109ZM23.25 36.7109H25.1836V38H23.25V36.7109ZM25.125 36.7109H27.0586V38H25.125V36.7109ZM27 36.7109H28.9336V38H27V36.7109ZM28.875 36.7109H30.8086V38H28.875V36.7109Z" fill="#313132"/>
<path d="M48 36.4219H51.8672V39H48V36.4219Z" fill="#5434B8"/>
<path d="M12 19.1406H13.2891V20H12V19.1406ZM15.7578 19.1406H17.0469V20H15.7578V19.1406ZM17.0078 19.1406H18.2969V20H17.0078V19.1406ZM18.2578 19.1406H19.5469V20H18.2578V19.1406ZM19.5078 19.1406H20.7969V20H19.5078V19.1406ZM20.7578 19.1406H22.0469V20H20.7578V19.1406ZM22.0078 19.1406H23.2969V20H22.0078V19.1406ZM25.7656 19.1406H27.0547V20H25.7656V19.1406ZM27.0156 19.1406H28.3047V20H27.0156V19.1406ZM28.2656 19.1406H29.5547V20H28.2656V19.1406ZM29.5156 19.1406H30.8047V20H29.5156V19.1406ZM33.2734 19.1406H34.5625V20H33.2734V19.1406ZM34.5234 19.1406H35.8125V20H34.5234V19.1406ZM38.2812 19.1406H39.5703V20H38.2812V19.1406ZM39.5312 19.1406H40.8203V20H39.5312V19.1406ZM40.7812 19.1406H42.0703V20H40.7812V19.1406ZM42.0312 19.1406H43.3203V20H42.0312V19.1406ZM43.2812 19.1406H44.5703V20H43.2812V19.1406ZM44.5312 19.1406H45.8203V20H44.5312V19.1406ZM45.7812 19.1406H47.0703V20H45.7812V19.1406ZM49.5391 19.1406H50.8281V20H49.5391V19.1406ZM50.7891 19.1406H52.0781V20H50.7891V19.1406ZM52.0391 19.1406H53.3281V20H52.0391V19.1406ZM53.2891 19.1406H54.5781V20H53.2891V19.1406ZM54.5391 19.1406H55.8281V20H54.5391V19.1406ZM12 22.1406H13.2891V23H12V22.1406ZM13.25 22.1406H14.5391V23H13.25V22.1406ZM14.5 22.1406H15.7891V23H14.5V22.1406ZM18.2578 22.1406H19.5469V23H18.2578V22.1406ZM19.5078 22.1406H20.7969V23H19.5078V22.1406ZM20.7578 22.1406H22.0469V23H20.7578V22.1406ZM22.0078 22.1406H23.2969V23H22.0078V22.1406ZM23.2578 22.1406H24.5469V23H23.2578V22.1406ZM24.5078 22.1406H25.7969V23H24.5078V22.1406ZM28.2656 22.1406H29.5547V23H28.2656V22.1406ZM29.5156 22.1406H30.8047V23H29.5156V22.1406ZM33.2734 22.1406H34.5625V23H33.2734V22.1406ZM34.5234 22.1406H35.8125V23H34.5234V22.1406ZM35.7734 22.1406H37.0625V23H35.7734V22.1406ZM37.0234 22.1406H38.3125V23H37.0234V22.1406ZM38.2734 22.1406H39.5625V23H38.2734V22.1406ZM39.5234 22.1406H40.8125V23H39.5234V22.1406ZM40.7734 22.1406H42.0625V23H40.7734V22.1406ZM42.0234 22.1406H43.3125V23H42.0234V22.1406ZM43.2734 22.1406H44.5625V23H43.2734V22.1406ZM44.5234 22.1406H45.8125V23H44.5234V22.1406ZM48.2812 22.1406H49.5703V23H48.2812V22.1406ZM49.5312 22.1406H50.8203V23H49.5312V22.1406ZM12 25.1406H13.2891V26H12V25.1406ZM13.25 25.1406H14.5391V26H13.25V25.1406ZM14.5 25.1406H15.7891V26H14.5V25.1406ZM15.75 25.1406H17.0391V26H15.75V25.1406ZM19.5078 25.1406H20.7969V26H19.5078V25.1406ZM20.7578 25.1406H22.0469V26H20.7578V25.1406ZM22.0078 25.1406H23.2969V26H22.0078V25.1406ZM23.2578 25.1406H24.5469V26H23.2578V25.1406ZM24.5078 25.1406H25.7969V26H24.5078V25.1406ZM28.2656 25.1406H29.5547V26H28.2656V25.1406ZM29.5156 25.1406H30.8047V26H29.5156V25.1406ZM30.7656 25.1406H32.0547V26H30.7656V25.1406ZM32.0156 25.1406H33.3047V26H32.0156V25.1406ZM35.7734 25.1406H37.0625V26H35.7734V25.1406ZM37.0234 25.1406H38.3125V26H37.0234V25.1406ZM12 28.1406H13.2891V29H12V28.1406ZM13.25 28.1406H14.5391V29H13.25V28.1406ZM14.5 28.1406H15.7891V29H14.5V28.1406ZM15.75 28.1406H17.0391V29H15.75V28.1406ZM17 28.1406H18.2891V29H17V28.1406ZM18.25 28.1406H19.5391V29H18.25V28.1406ZM19.5 28.1406H20.7891V29H19.5V28.1406ZM20.75 28.1406H22.0391V29H20.75V28.1406ZM22 28.1406H23.2891V29H22V28.1406ZM23.25 28.1406H24.5391V29H23.25V28.1406ZM24.5 28.1406H25.7891V29H24.5V28.1406ZM25.75 28.1406H27.0391V29H25.75V28.1406ZM27 28.1406H28.2891V29H27V28.1406ZM28.25 28.1406H29.5391V29H28.25V28.1406ZM29.5 28.1406H30.7891V29H29.5V28.1406ZM33.2578 28.1406H34.5469V29H33.2578V28.1406ZM34.5078 28.1406H35.7969V29H34.5078V28.1406ZM35.7578 28.1406H37.0469V29H35.7578V28.1406ZM39.5156 28.1406H40.8047V29H39.5156V28.1406ZM40.7656 28.1406H42.0547V29H40.7656V28.1406ZM42.0156 28.1406H43.3047V29H42.0156V28.1406ZM45.7734 28.1406H47.0625V29H45.7734V28.1406ZM47.0234 28.1406H48.3125V29H47.0234V28.1406ZM48.2734 28.1406H49.5625V29H48.2734V28.1406ZM52.0312 28.1406H53.3203V29H52.0312V28.1406ZM53.2812 28.1406H54.5703V29H53.2812V28.1406ZM54.5312 28.1406H55.8203V29H54.5312V28.1406ZM55.7812 28.1406H57.0703V29H55.7812V28.1406Z" fill="#939497"/>
<rect x="72" y="34" width="16" height="6" rx="1" fill="#5131B4"/>
<rect x="76.25" y="85.25" width="11.5" height="3.5" rx="0.25" stroke="#FF7796" strokeWidth="0.5"/>
<path d="M14 45C14 44.4477 14.4477 44 15 44H22C22.5523 44 23 44.4477 23 45V46H14V45Z" fill="#DADDE9"/>
<g filter="url(#filter0_d)">
<rect x="12" y="46" width="76" height="33" rx="2" fill="white"/>
</g>
<path d="M14 50.1406H15.2891V51H14V50.1406ZM15.25 50.1406H16.5391V51H15.25V50.1406ZM16.5 50.1406H17.7891V51H16.5V50.1406ZM17.75 50.1406H19.0391V51H17.75V50.1406ZM21.5078 50.1406H22.7969V51H21.5078V50.1406ZM22.7578 50.1406H24.0469V51H22.7578V50.1406ZM24.0078 50.1406H25.2969V51H24.0078V50.1406ZM27.7656 50.1406H29.0547V51H27.7656V50.1406ZM29.0156 50.1406H30.3047V51H29.0156V50.1406ZM30.2656 50.1406H31.5547V51H30.2656V50.1406ZM34.0234 50.1406H35.3125V51H34.0234V50.1406ZM35.2734 50.1406H36.5625V51H35.2734V50.1406ZM36.5234 50.1406H37.8125V51H36.5234V50.1406ZM37.7734 50.1406H39.0625V51H37.7734V50.1406ZM39.0234 50.1406H40.3125V51H39.0234V50.1406ZM42.7812 50.1406H44.0703V51H42.7812V50.1406ZM44.0312 50.1406H45.3203V51H44.0312V50.1406ZM47.7891 50.1406H49.0781V51H47.7891V50.1406ZM49.0391 50.1406H50.3281V51H49.0391V50.1406ZM50.2891 50.1406H51.5781V51H50.2891V50.1406ZM51.5391 50.1406H52.8281V51H51.5391V50.1406Z" fill="#717A97"/>
<defs>
<filter id="filter0_d" x="8" y="43" width="84" height="41" filterUnits="userSpaceOnUse" color-interpolation-filters="sRGB">
<feFlood flood-opacity="0" result="BackgroundImageFix"/>
<feColorMatrix in="SourceAlpha" type="matrix" values="0 0 0 0 0 0 0 0 0 0 0 0 0 0 0 0 0 0 127 0"/>
<feOffset dy="1"/>
<feGaussianBlur stdDeviation="2"/>
<feColorMatrix type="matrix" values="0 0 0 0 0 0 0 0 0 0 0 0 0 0 0 0 0 0 0.1 0"/>
<feBlend mode="normal" in2="BackgroundImageFix" result="effect1_dropShadow"/>
<feBlend mode="normal" in="SourceGraphic" in2="effect1_dropShadow" result="shape"/>
</filter>
</defs>
</svg>
