<svg width="100" height="100" viewBox="0 0 100 100" fill="none" xmlns="http://www.w3.org/2000/svg">
<rect width="100" height="100" rx="16" fill="#161B4A"/>
<g clip-path="url(#clip01924231)">
<rect y="6" width="46" height="88" rx="4" fill="#F1F1F1"/>
<rect y="40" width="32" height="48" fill="#DFE2FF"/>
<g opacity="0.5" filter="url(#filter0_f)">
<path d="M3.91275 78.414C1.78516 81.5622 1.75985 85.4498 1 87H29.8744C30.381 87 29.2412 79.368 28.4813 75.3136C27.8196 71.7827 22.2759 68.6356 23.7956 66.9661C25.0114 65.6305 24.7243 59.5727 24.4288 56.7107C24.4288 52.2984 21.1361 46.4552 15.6905 45.0242C13.3603 44.6426 7.20545 48.721 7.83866 61.0036C7.83866 64.1041 8.97846 64.6269 6.57223 68.6356C1.63318 76.8638 6.57223 74.4788 3.91275 78.414Z" fill="#3749FC"/>
<path d="M3.91275 78.414C1.78516 81.5622 1.75985 85.4498 1 87H29.8744C30.381 87 29.2412 79.368 28.4813 75.3136C27.8196 71.7827 22.2759 68.6356 23.7956 66.9661C25.0114 65.6305 24.7243 59.5727 24.4288 56.7107C24.4288 52.2984 21.1361 46.4552 15.6905 45.0242C13.3603 44.6426 7.20545 48.721 7.83866 61.0036C7.83866 64.1041 8.97846 64.6269 6.57223 68.6356C1.63318 76.8638 6.57223 74.4788 3.91275 78.414Z" stroke="#3A4CFC"/>
</g>
<path d="M1 13.5625H6.15625V17H1V13.5625ZM6 13.5625H11.1562V17H6V13.5625ZM11 13.5625H16.1562V17H11V13.5625ZM1 19.5625H6.15625V23H1V19.5625ZM6 19.5625H11.1562V23H6V19.5625ZM11 19.5625H16.1562V23H11V19.5625ZM1 25.5625H6.15625V29H1V25.5625ZM6 25.5625H11.1562V29H6V25.5625Z" fill="#0C22FF"/>
<path d="M21 22.5703H21.6445V23H21V22.5703ZM21.625 22.5703H22.2695V23H21.625V22.5703ZM22.25 22.5703H22.8945V23H22.25V22.5703ZM22.875 22.5703H23.5195V23H22.875V22.5703ZM23.5 22.5703H24.1445V23H23.5V22.5703ZM24.125 22.5703H24.7695V23H24.125V22.5703ZM24.75 22.5703H25.3945V23H24.75V22.5703ZM26.6289 22.5703H27.2734V23H26.6289V22.5703ZM27.2539 22.5703H27.8984V23H27.2539V22.5703ZM29.1328 22.5703H29.7773V23H29.1328V22.5703ZM29.7578 22.5703H30.4023V23H29.7578V22.5703ZM30.3828 22.5703H31.0273V23H30.3828V22.5703ZM32.2617 22.5703H32.9062V23H32.2617V22.5703ZM32.8867 22.5703H33.5312V23H32.8867V22.5703ZM34.7656 22.5703H35.4102V23H34.7656V22.5703ZM35.3906 22.5703H36.0352V23H35.3906V22.5703ZM36.0156 22.5703H36.6602V23H36.0156V22.5703ZM36.6406 22.5703H37.2852V23H36.6406V22.5703ZM37.2656 22.5703H37.9102V23H37.2656V22.5703ZM37.8906 22.5703H38.5352V23H37.8906V22.5703ZM38.5156 22.5703H39.1602V23H38.5156V22.5703ZM21 24.5703H21.6445V25H21V24.5703ZM21.625 24.5703H22.2695V25H21.625V24.5703ZM22.25 24.5703H22.8945V25H22.25V24.5703ZM22.875 24.5703H23.5195V25H22.875V24.5703ZM23.5 24.5703H24.1445V25H23.5V24.5703ZM24.125 24.5703H24.7695V25H24.125V24.5703ZM24.75 24.5703H25.3945V25H24.75V24.5703ZM25.375 24.5703H26.0195V25H25.375V24.5703ZM26 24.5703H26.6445V25H26V24.5703ZM26.625 24.5703H27.2695V25H26.625V24.5703ZM27.25 24.5703H27.8945V25H27.25V24.5703ZM29.1289 24.5703H29.7734V25H29.1289V24.5703ZM29.7539 24.5703H30.3984V25H29.7539V24.5703ZM30.3789 24.5703H31.0234V25H30.3789V24.5703ZM31.0039 24.5703H31.6484V25H31.0039V24.5703ZM31.6289 24.5703H32.2734V25H31.6289V24.5703ZM32.2539 24.5703H32.8984V25H32.2539V24.5703ZM32.8789 24.5703H33.5234V25H32.8789V24.5703ZM33.5039 24.5703H34.1484V25H33.5039V24.5703ZM34.1289 24.5703H34.7734V25H34.1289V24.5703ZM34.7539 24.5703H35.3984V25H34.7539V24.5703ZM35.3789 24.5703H36.0234V25H35.3789V24.5703ZM36.0039 24.5703H36.6484V25H36.0039V24.5703ZM21 26.5703H21.6445V27H21V26.5703ZM21.625 26.5703H22.2695V27H21.625V26.5703ZM23.5039 26.5703H24.1484V27H23.5039V26.5703ZM24.1289 26.5703H24.7734V27H24.1289V26.5703ZM24.7539 26.5703H25.3984V27H24.7539V26.5703ZM25.3789 26.5703H26.0234V27H25.3789V26.5703ZM26.0039 26.5703H26.6484V27H26.0039V26.5703ZM26.6289 26.5703H27.2734V27H26.6289V26.5703ZM27.2539 26.5703H27.8984V27H27.2539V26.5703ZM27.8789 26.5703H28.5234V27H27.8789V26.5703ZM29.7578 26.5703H30.4023V27H29.7578V26.5703ZM30.3828 26.5703H31.0273V27H30.3828V26.5703ZM31.0078 26.5703H31.6523V27H31.0078V26.5703ZM31.6328 26.5703H32.2773V27H31.6328V26.5703ZM32.2578 26.5703H32.9023V27H32.2578V26.5703ZM32.8828 26.5703H33.5273V27H32.8828V26.5703ZM33.5078 26.5703H34.1523V27H33.5078V26.5703ZM34.1328 26.5703H34.7773V27H34.1328V26.5703Z" fill="#747378"/>
<path d="M21 32.5703H21.6445V33H21V32.5703ZM21.625 32.5703H22.2695V33H21.625V32.5703ZM22.25 32.5703H22.8945V33H22.25V32.5703ZM22.875 32.5703H23.5195V33H22.875V32.5703ZM23.5 32.5703H24.1445V33H23.5V32.5703ZM24.125 32.5703H24.7695V33H24.125V32.5703ZM24.75 32.5703H25.3945V33H24.75V32.5703ZM26.6289 32.5703H27.2734V33H26.6289V32.5703ZM27.2539 32.5703H27.8984V33H27.2539V32.5703ZM29.1328 32.5703H29.7773V33H29.1328V32.5703ZM29.7578 32.5703H30.4023V33H29.7578V32.5703ZM30.3828 32.5703H31.0273V33H30.3828V32.5703ZM32.2617 32.5703H32.9062V33H32.2617V32.5703ZM32.8867 32.5703H33.5312V33H32.8867V32.5703ZM34.7656 32.5703H35.4102V33H34.7656V32.5703ZM35.3906 32.5703H36.0352V33H35.3906V32.5703ZM36.0156 32.5703H36.6602V33H36.0156V32.5703ZM36.6406 32.5703H37.2852V33H36.6406V32.5703ZM37.2656 32.5703H37.9102V33H37.2656V32.5703ZM37.8906 32.5703H38.5352V33H37.8906V32.5703ZM38.5156 32.5703H39.1602V33H38.5156V32.5703ZM21 34.5703H21.6445V35H21V34.5703ZM21.625 34.5703H22.2695V35H21.625V34.5703ZM22.25 34.5703H22.8945V35H22.25V34.5703ZM22.875 34.5703H23.5195V35H22.875V34.5703ZM23.5 34.5703H24.1445V35H23.5V34.5703ZM24.125 34.5703H24.7695V35H24.125V34.5703ZM24.75 34.5703H25.3945V35H24.75V34.5703ZM25.375 34.5703H26.0195V35H25.375V34.5703ZM26 34.5703H26.6445V35H26V34.5703ZM26.625 34.5703H27.2695V35H26.625V34.5703ZM27.25 34.5703H27.8945V35H27.25V34.5703ZM29.1289 34.5703H29.7734V35H29.1289V34.5703ZM29.7539 34.5703H30.3984V35H29.7539V34.5703ZM30.3789 34.5703H31.0234V35H30.3789V34.5703ZM31.0039 34.5703H31.6484V35H31.0039V34.5703ZM31.6289 34.5703H32.2734V35H31.6289V34.5703ZM32.2539 34.5703H32.8984V35H32.2539V34.5703ZM32.8789 34.5703H33.5234V35H32.8789V34.5703ZM33.5039 34.5703H34.1484V35H33.5039V34.5703ZM34.1289 34.5703H34.7734V35H34.1289V34.5703ZM34.7539 34.5703H35.3984V35H34.7539V34.5703ZM35.3789 34.5703H36.0234V35H35.3789V34.5703ZM36.0039 34.5703H36.6484V35H36.0039V34.5703ZM21 36.5703H21.6445V37H21V36.5703ZM21.625 36.5703H22.2695V37H21.625V36.5703ZM23.5039 36.5703H24.1484V37H23.5039V36.5703ZM24.1289 36.5703H24.7734V37H24.1289V36.5703ZM24.7539 36.5703H25.3984V37H24.7539V36.5703ZM25.3789 36.5703H26.0234V37H25.3789V36.5703ZM26.0039 36.5703H26.6484V37H26.0039V36.5703ZM26.6289 36.5703H27.2734V37H26.6289V36.5703ZM27.2539 36.5703H27.8984V37H27.2539V36.5703ZM27.8789 36.5703H28.5234V37H27.8789V36.5703ZM29.7578 36.5703H30.4023V37H29.7578V36.5703ZM30.3828 36.5703H31.0273V37H30.3828V36.5703ZM31.0078 36.5703H31.6523V37H31.0078V36.5703ZM31.6328 36.5703H32.2773V37H31.6328V36.5703ZM32.2578 36.5703H32.9023V37H32.2578V36.5703ZM32.8828 36.5703H33.5273V37H32.8828V36.5703ZM33.5078 36.5703H34.1523V37H33.5078V36.5703ZM34.1328 36.5703H34.7773V37H34.1328V36.5703Z" fill="#747378"/>
<path d="M21 44.5703H21.6445V45H21V44.5703ZM21.625 44.5703H22.2695V45H21.625V44.5703ZM22.25 44.5703H22.8945V45H22.25V44.5703ZM22.875 44.5703H23.5195V45H22.875V44.5703ZM23.5 44.5703H24.1445V45H23.5V44.5703ZM24.125 44.5703H24.7695V45H24.125V44.5703ZM24.75 44.5703H25.3945V45H24.75V44.5703ZM25.375 44.5703H26.0195V45H25.375V44.5703ZM26 44.5703H26.6445V45H26V44.5703ZM26.625 44.5703H27.2695V45H26.625V44.5703ZM28.5039 44.5703H29.1484V45H28.5039V44.5703ZM29.1289 44.5703H29.7734V45H29.1289V44.5703ZM29.7539 44.5703H30.3984V45H29.7539V44.5703ZM30.3789 44.5703H31.0234V45H30.3789V44.5703ZM31.0039 44.5703H31.6484V45H31.0039V44.5703ZM31.6289 44.5703H32.2734V45H31.6289V44.5703ZM32.2539 44.5703H32.8984V45H32.2539V44.5703ZM32.8789 44.5703H33.5234V45H32.8789V44.5703ZM33.5039 44.5703H34.1484V45H33.5039V44.5703ZM34.1289 44.5703H34.7734V45H34.1289V44.5703ZM36.0078 44.5703H36.6523V45H36.0078V44.5703ZM36.6328 44.5703H37.2773V45H36.6328V44.5703ZM37.2578 44.5703H37.9023V45H37.2578V44.5703ZM37.8828 44.5703H38.5273V45H37.8828V44.5703ZM38.5078 44.5703H39.1523V45H38.5078V44.5703ZM39.1328 44.5703H39.7773V45H39.1328V44.5703ZM39.7578 44.5703H40.4023V45H39.7578V44.5703ZM40.3828 44.5703H41.0273V45H40.3828V44.5703ZM41.0078 44.5703H41.6523V45H41.0078V44.5703ZM41.6328 44.5703H42.2773V45H41.6328V44.5703ZM43.5117 44.5703H44.1562V45H43.5117V44.5703ZM44.1367 44.5703H44.7812V45H44.1367V44.5703ZM44.7617 44.5703H45.4062V45H44.7617V44.5703ZM45.3867 44.5703H46.0312V45H45.3867V44.5703ZM46.0117 44.5703H46.6562V45H46.0117V44.5703ZM46.6367 44.5703H47.2812V45H46.6367V44.5703ZM47.2617 44.5703H47.9062V45H47.2617V44.5703ZM47.8867 44.5703H48.5312V45H47.8867V44.5703ZM48.5117 44.5703H49.1562V45H48.5117V44.5703ZM49.1367 44.5703H49.7812V45H49.1367V44.5703ZM21 46.5703H21.6445V47H21V46.5703ZM21.625 46.5703H22.2695V47H21.625V46.5703ZM22.25 46.5703H22.8945V47H22.25V46.5703ZM22.875 46.5703H23.5195V47H22.875V46.5703ZM23.5 46.5703H24.1445V47H23.5V46.5703ZM24.125 46.5703H24.7695V47H24.125V46.5703ZM24.75 46.5703H25.3945V47H24.75V46.5703ZM25.375 46.5703H26.0195V47H25.375V46.5703ZM26 46.5703H26.6445V47H26V46.5703ZM26.625 46.5703H27.2695V47H26.625V46.5703ZM28.5039 46.5703H29.1484V47H28.5039V46.5703ZM29.1289 46.5703H29.7734V47H29.1289V46.5703ZM29.7539 46.5703H30.3984V47H29.7539V46.5703ZM30.3789 46.5703H31.0234V47H30.3789V46.5703ZM31.0039 46.5703H31.6484V47H31.0039V46.5703ZM31.6289 46.5703H32.2734V47H31.6289V46.5703ZM32.2539 46.5703H32.8984V47H32.2539V46.5703ZM32.8789 46.5703H33.5234V47H32.8789V46.5703ZM33.5039 46.5703H34.1484V47H33.5039V46.5703ZM34.1289 46.5703H34.7734V47H34.1289V46.5703ZM36.0078 46.5703H36.6523V47H36.0078V46.5703ZM36.6328 46.5703H37.2773V47H36.6328V46.5703ZM37.2578 46.5703H37.9023V47H37.2578V46.5703ZM37.8828 46.5703H38.5273V47H37.8828V46.5703ZM38.5078 46.5703H39.1523V47H38.5078V46.5703ZM39.1328 46.5703H39.7773V47H39.1328V46.5703ZM39.7578 46.5703H40.4023V47H39.7578V46.5703ZM40.3828 46.5703H41.0273V47H40.3828V46.5703ZM41.0078 46.5703H41.6523V47H41.0078V46.5703ZM41.6328 46.5703H42.2773V47H41.6328V46.5703ZM43.5117 46.5703H44.1562V47H43.5117V46.5703ZM44.1367 46.5703H44.7812V47H44.1367V46.5703ZM44.7617 46.5703H45.4062V47H44.7617V46.5703ZM45.3867 46.5703H46.0312V47H45.3867V46.5703ZM46.0117 46.5703H46.6562V47H46.0117V46.5703ZM46.6367 46.5703H47.2812V47H46.6367V46.5703ZM47.2617 46.5703H47.9062V47H47.2617V46.5703ZM47.8867 46.5703H48.5312V47H47.8867V46.5703ZM48.5117 46.5703H49.1562V47H48.5117V46.5703ZM49.1367 46.5703H49.7812V47H49.1367V46.5703ZM21 48.5703H21.6445V49H21V48.5703ZM21.625 48.5703H22.2695V49H21.625V48.5703ZM22.25 48.5703H22.8945V49H22.25V48.5703ZM22.875 48.5703H23.5195V49H22.875V48.5703ZM23.5 48.5703H24.1445V49H23.5V48.5703ZM24.125 48.5703H24.7695V49H24.125V48.5703ZM24.75 48.5703H25.3945V49H24.75V48.5703ZM25.375 48.5703H26.0195V49H25.375V48.5703ZM26 48.5703H26.6445V49H26V48.5703ZM26.625 48.5703H27.2695V49H26.625V48.5703ZM28.5039 48.5703H29.1484V49H28.5039V48.5703ZM29.1289 48.5703H29.7734V49H29.1289V48.5703ZM29.7539 48.5703H30.3984V49H29.7539V48.5703ZM30.3789 48.5703H31.0234V49H30.3789V48.5703ZM31.0039 48.5703H31.6484V49H31.0039V48.5703ZM31.6289 48.5703H32.2734V49H31.6289V48.5703ZM32.2539 48.5703H32.8984V49H32.2539V48.5703ZM32.8789 48.5703H33.5234V49H32.8789V48.5703ZM33.5039 48.5703H34.1484V49H33.5039V48.5703ZM34.1289 48.5703H34.7734V49H34.1289V48.5703ZM36.0078 48.5703H36.6523V49H36.0078V48.5703ZM36.6328 48.5703H37.2773V49H36.6328V48.5703ZM37.2578 48.5703H37.9023V49H37.2578V48.5703ZM37.8828 48.5703H38.5273V49H37.8828V48.5703ZM38.5078 48.5703H39.1523V49H38.5078V48.5703ZM39.1328 48.5703H39.7773V49H39.1328V48.5703ZM39.7578 48.5703H40.4023V49H39.7578V48.5703ZM40.3828 48.5703H41.0273V49H40.3828V48.5703ZM41.0078 48.5703H41.6523V49H41.0078V48.5703ZM41.6328 48.5703H42.2773V49H41.6328V48.5703ZM43.5117 48.5703H44.1562V49H43.5117V48.5703ZM44.1367 48.5703H44.7812V49H44.1367V48.5703ZM44.7617 48.5703H45.4062V49H44.7617V48.5703ZM45.3867 48.5703H46.0312V49H45.3867V48.5703ZM46.0117 48.5703H46.6562V49H46.0117V48.5703ZM46.6367 48.5703H47.2812V49H46.6367V48.5703ZM47.2617 48.5703H47.9062V49H47.2617V48.5703ZM47.8867 48.5703H48.5312V49H47.8867V48.5703ZM48.5117 48.5703H49.1562V49H48.5117V48.5703ZM49.1367 48.5703H49.7812V49H49.1367V48.5703ZM21 50.5703H21.6445V51H21V50.5703ZM21.625 50.5703H22.2695V51H21.625V50.5703ZM22.25 50.5703H22.8945V51H22.25V50.5703ZM22.875 50.5703H23.5195V51H22.875V50.5703ZM23.5 50.5703H24.1445V51H23.5V50.5703ZM24.125 50.5703H24.7695V51H24.125V50.5703ZM24.75 50.5703H25.3945V51H24.75V50.5703ZM25.375 50.5703H26.0195V51H25.375V50.5703ZM26 50.5703H26.6445V51H26V50.5703ZM26.625 50.5703H27.2695V51H26.625V50.5703ZM28.5039 50.5703H29.1484V51H28.5039V50.5703ZM29.1289 50.5703H29.7734V51H29.1289V50.5703ZM29.7539 50.5703H30.3984V51H29.7539V50.5703ZM30.3789 50.5703H31.0234V51H30.3789V50.5703ZM31.0039 50.5703H31.6484V51H31.0039V50.5703ZM31.6289 50.5703H32.2734V51H31.6289V50.5703ZM32.2539 50.5703H32.8984V51H32.2539V50.5703ZM32.8789 50.5703H33.5234V51H32.8789V50.5703ZM33.5039 50.5703H34.1484V51H33.5039V50.5703ZM34.1289 50.5703H34.7734V51H34.1289V50.5703ZM36.0078 50.5703H36.6523V51H36.0078V50.5703ZM36.6328 50.5703H37.2773V51H36.6328V50.5703ZM37.2578 50.5703H37.9023V51H37.2578V50.5703ZM37.8828 50.5703H38.5273V51H37.8828V50.5703ZM38.5078 50.5703H39.1523V51H38.5078V50.5703ZM39.1328 50.5703H39.7773V51H39.1328V50.5703ZM39.7578 50.5703H40.4023V51H39.7578V50.5703ZM40.3828 50.5703H41.0273V51H40.3828V50.5703ZM41.0078 50.5703H41.6523V51H41.0078V50.5703ZM41.6328 50.5703H42.2773V51H41.6328V50.5703ZM43.5117 50.5703H44.1562V51H43.5117V50.5703ZM44.1367 50.5703H44.7812V51H44.1367V50.5703ZM44.7617 50.5703H45.4062V51H44.7617V50.5703ZM45.3867 50.5703H46.0312V51H45.3867V50.5703ZM46.0117 50.5703H46.6562V51H46.0117V50.5703ZM46.6367 50.5703H47.2812V51H46.6367V50.5703ZM47.2617 50.5703H47.9062V51H47.2617V50.5703ZM47.8867 50.5703H48.5312V51H47.8867V50.5703ZM48.5117 50.5703H49.1562V51H48.5117V50.5703ZM49.1367 50.5703H49.7812V51H49.1367V50.5703ZM21 52.5703H21.6445V53H21V52.5703ZM21.625 52.5703H22.2695V53H21.625V52.5703ZM22.25 52.5703H22.8945V53H22.25V52.5703ZM22.875 52.5703H23.5195V53H22.875V52.5703ZM23.5 52.5703H24.1445V53H23.5V52.5703ZM24.125 52.5703H24.7695V53H24.125V52.5703ZM24.75 52.5703H25.3945V53H24.75V52.5703ZM25.375 52.5703H26.0195V53H25.375V52.5703ZM26 52.5703H26.6445V53H26V52.5703ZM26.625 52.5703H27.2695V53H26.625V52.5703ZM28.5039 52.5703H29.1484V53H28.5039V52.5703ZM29.1289 52.5703H29.7734V53H29.1289V52.5703ZM29.7539 52.5703H30.3984V53H29.7539V52.5703ZM30.3789 52.5703H31.0234V53H30.3789V52.5703ZM31.0039 52.5703H31.6484V53H31.0039V52.5703ZM31.6289 52.5703H32.2734V53H31.6289V52.5703ZM32.2539 52.5703H32.8984V53H32.2539V52.5703ZM32.8789 52.5703H33.5234V53H32.8789V52.5703ZM33.5039 52.5703H34.1484V53H33.5039V52.5703ZM34.1289 52.5703H34.7734V53H34.1289V52.5703ZM36.0078 52.5703H36.6523V53H36.0078V52.5703ZM36.6328 52.5703H37.2773V53H36.6328V52.5703ZM37.2578 52.5703H37.9023V53H37.2578V52.5703ZM37.8828 52.5703H38.5273V53H37.8828V52.5703ZM38.5078 52.5703H39.1523V53H38.5078V52.5703ZM39.1328 52.5703H39.7773V53H39.1328V52.5703ZM39.7578 52.5703H40.4023V53H39.7578V52.5703ZM40.3828 52.5703H41.0273V53H40.3828V52.5703ZM41.0078 52.5703H41.6523V53H41.0078V52.5703ZM41.6328 52.5703H42.2773V53H41.6328V52.5703ZM43.5117 52.5703H44.1562V53H43.5117V52.5703ZM44.1367 52.5703H44.7812V53H44.1367V52.5703ZM44.7617 52.5703H45.4062V53H44.7617V52.5703ZM45.3867 52.5703H46.0312V53H45.3867V52.5703ZM46.0117 52.5703H46.6562V53H46.0117V52.5703ZM46.6367 52.5703H47.2812V53H46.6367V52.5703ZM47.2617 52.5703H47.9062V53H47.2617V52.5703ZM47.8867 52.5703H48.5312V53H47.8867V52.5703ZM48.5117 52.5703H49.1562V53H48.5117V52.5703ZM49.1367 52.5703H49.7812V53H49.1367V52.5703ZM21 54.5703H21.6445V55H21V54.5703ZM21.625 54.5703H22.2695V55H21.625V54.5703ZM22.25 54.5703H22.8945V55H22.25V54.5703ZM22.875 54.5703H23.5195V55H22.875V54.5703ZM23.5 54.5703H24.1445V55H23.5V54.5703ZM24.125 54.5703H24.7695V55H24.125V54.5703ZM24.75 54.5703H25.3945V55H24.75V54.5703ZM25.375 54.5703H26.0195V55H25.375V54.5703ZM26 54.5703H26.6445V55H26V54.5703ZM26.625 54.5703H27.2695V55H26.625V54.5703ZM28.5039 54.5703H29.1484V55H28.5039V54.5703ZM29.1289 54.5703H29.7734V55H29.1289V54.5703ZM29.7539 54.5703H30.3984V55H29.7539V54.5703ZM30.3789 54.5703H31.0234V55H30.3789V54.5703ZM31.0039 54.5703H31.6484V55H31.0039V54.5703ZM31.6289 54.5703H32.2734V55H31.6289V54.5703ZM32.2539 54.5703H32.8984V55H32.2539V54.5703ZM32.8789 54.5703H33.5234V55H32.8789V54.5703ZM33.5039 54.5703H34.1484V55H33.5039V54.5703ZM34.1289 54.5703H34.7734V55H34.1289V54.5703ZM36.0078 54.5703H36.6523V55H36.0078V54.5703ZM36.6328 54.5703H37.2773V55H36.6328V54.5703ZM37.2578 54.5703H37.9023V55H37.2578V54.5703ZM37.8828 54.5703H38.5273V55H37.8828V54.5703ZM38.5078 54.5703H39.1523V55H38.5078V54.5703ZM39.1328 54.5703H39.7773V55H39.1328V54.5703ZM39.7578 54.5703H40.4023V55H39.7578V54.5703ZM40.3828 54.5703H41.0273V55H40.3828V54.5703ZM41.0078 54.5703H41.6523V55H41.0078V54.5703ZM41.6328 54.5703H42.2773V55H41.6328V54.5703ZM43.5117 54.5703H44.1562V55H43.5117V54.5703ZM44.1367 54.5703H44.7812V55H44.1367V54.5703ZM44.7617 54.5703H45.4062V55H44.7617V54.5703ZM45.3867 54.5703H46.0312V55H45.3867V54.5703ZM46.0117 54.5703H46.6562V55H46.0117V54.5703ZM46.6367 54.5703H47.2812V55H46.6367V54.5703ZM47.2617 54.5703H47.9062V55H47.2617V54.5703ZM47.8867 54.5703H48.5312V55H47.8867V54.5703ZM48.5117 54.5703H49.1562V55H48.5117V54.5703ZM49.1367 54.5703H49.7812V55H49.1367V54.5703ZM21 56.5703H21.6445V57H21V56.5703ZM21.625 56.5703H22.2695V57H21.625V56.5703ZM22.25 56.5703H22.8945V57H22.25V56.5703ZM22.875 56.5703H23.5195V57H22.875V56.5703ZM23.5 56.5703H24.1445V57H23.5V56.5703ZM24.125 56.5703H24.7695V57H24.125V56.5703ZM24.75 56.5703H25.3945V57H24.75V56.5703ZM25.375 56.5703H26.0195V57H25.375V56.5703ZM26 56.5703H26.6445V57H26V56.5703ZM26.625 56.5703H27.2695V57H26.625V56.5703ZM28.5039 56.5703H29.1484V57H28.5039V56.5703ZM29.1289 56.5703H29.7734V57H29.1289V56.5703ZM29.7539 56.5703H30.3984V57H29.7539V56.5703ZM30.3789 56.5703H31.0234V57H30.3789V56.5703ZM31.0039 56.5703H31.6484V57H31.0039V56.5703ZM31.6289 56.5703H32.2734V57H31.6289V56.5703ZM32.2539 56.5703H32.8984V57H32.2539V56.5703ZM32.8789 56.5703H33.5234V57H32.8789V56.5703ZM33.5039 56.5703H34.1484V57H33.5039V56.5703ZM34.1289 56.5703H34.7734V57H34.1289V56.5703ZM36.0078 56.5703H36.6523V57H36.0078V56.5703ZM36.6328 56.5703H37.2773V57H36.6328V56.5703ZM37.2578 56.5703H37.9023V57H37.2578V56.5703ZM37.8828 56.5703H38.5273V57H37.8828V56.5703ZM38.5078 56.5703H39.1523V57H38.5078V56.5703ZM39.1328 56.5703H39.7773V57H39.1328V56.5703ZM39.7578 56.5703H40.4023V57H39.7578V56.5703ZM40.3828 56.5703H41.0273V57H40.3828V56.5703ZM41.0078 56.5703H41.6523V57H41.0078V56.5703ZM41.6328 56.5703H42.2773V57H41.6328V56.5703ZM43.5117 56.5703H44.1562V57H43.5117V56.5703ZM44.1367 56.5703H44.7812V57H44.1367V56.5703ZM44.7617 56.5703H45.4062V57H44.7617V56.5703ZM45.3867 56.5703H46.0312V57H45.3867V56.5703ZM46.0117 56.5703H46.6562V57H46.0117V56.5703ZM46.6367 56.5703H47.2812V57H46.6367V56.5703ZM47.2617 56.5703H47.9062V57H47.2617V56.5703ZM47.8867 56.5703H48.5312V57H47.8867V56.5703ZM48.5117 56.5703H49.1562V57H48.5117V56.5703ZM49.1367 56.5703H49.7812V57H49.1367V56.5703ZM21 58.5703H21.6445V59H21V58.5703ZM21.625 58.5703H22.2695V59H21.625V58.5703ZM22.25 58.5703H22.8945V59H22.25V58.5703ZM22.875 58.5703H23.5195V59H22.875V58.5703ZM23.5 58.5703H24.1445V59H23.5V58.5703ZM24.125 58.5703H24.7695V59H24.125V58.5703ZM24.75 58.5703H25.3945V59H24.75V58.5703ZM25.375 58.5703H26.0195V59H25.375V58.5703ZM26 58.5703H26.6445V59H26V58.5703ZM26.625 58.5703H27.2695V59H26.625V58.5703ZM28.5039 58.5703H29.1484V59H28.5039V58.5703ZM29.1289 58.5703H29.7734V59H29.1289V58.5703ZM29.7539 58.5703H30.3984V59H29.7539V58.5703ZM30.3789 58.5703H31.0234V59H30.3789V58.5703ZM31.0039 58.5703H31.6484V59H31.0039V58.5703ZM31.6289 58.5703H32.2734V59H31.6289V58.5703ZM32.2539 58.5703H32.8984V59H32.2539V58.5703ZM32.8789 58.5703H33.5234V59H32.8789V58.5703ZM33.5039 58.5703H34.1484V59H33.5039V58.5703ZM34.1289 58.5703H34.7734V59H34.1289V58.5703ZM36.0078 58.5703H36.6523V59H36.0078V58.5703ZM36.6328 58.5703H37.2773V59H36.6328V58.5703ZM37.2578 58.5703H37.9023V59H37.2578V58.5703ZM37.8828 58.5703H38.5273V59H37.8828V58.5703ZM38.5078 58.5703H39.1523V59H38.5078V58.5703ZM39.1328 58.5703H39.7773V59H39.1328V58.5703ZM39.7578 58.5703H40.4023V59H39.7578V58.5703ZM40.3828 58.5703H41.0273V59H40.3828V58.5703ZM41.0078 58.5703H41.6523V59H41.0078V58.5703ZM41.6328 58.5703H42.2773V59H41.6328V58.5703ZM43.5117 58.5703H44.1562V59H43.5117V58.5703ZM44.1367 58.5703H44.7812V59H44.1367V58.5703ZM44.7617 58.5703H45.4062V59H44.7617V58.5703ZM45.3867 58.5703H46.0312V59H45.3867V58.5703ZM46.0117 58.5703H46.6562V59H46.0117V58.5703ZM46.6367 58.5703H47.2812V59H46.6367V58.5703ZM47.2617 58.5703H47.9062V59H47.2617V58.5703ZM47.8867 58.5703H48.5312V59H47.8867V58.5703ZM48.5117 58.5703H49.1562V59H48.5117V58.5703ZM49.1367 58.5703H49.7812V59H49.1367V58.5703ZM21 60.5703H21.6445V61H21V60.5703ZM21.625 60.5703H22.2695V61H21.625V60.5703ZM22.25 60.5703H22.8945V61H22.25V60.5703ZM22.875 60.5703H23.5195V61H22.875V60.5703ZM23.5 60.5703H24.1445V61H23.5V60.5703ZM24.125 60.5703H24.7695V61H24.125V60.5703ZM24.75 60.5703H25.3945V61H24.75V60.5703ZM25.375 60.5703H26.0195V61H25.375V60.5703ZM26 60.5703H26.6445V61H26V60.5703ZM26.625 60.5703H27.2695V61H26.625V60.5703ZM28.5039 60.5703H29.1484V61H28.5039V60.5703ZM29.1289 60.5703H29.7734V61H29.1289V60.5703ZM29.7539 60.5703H30.3984V61H29.7539V60.5703ZM30.3789 60.5703H31.0234V61H30.3789V60.5703ZM31.0039 60.5703H31.6484V61H31.0039V60.5703ZM31.6289 60.5703H32.2734V61H31.6289V60.5703ZM32.2539 60.5703H32.8984V61H32.2539V60.5703ZM32.8789 60.5703H33.5234V61H32.8789V60.5703ZM33.5039 60.5703H34.1484V61H33.5039V60.5703ZM34.1289 60.5703H34.7734V61H34.1289V60.5703ZM36.0078 60.5703H36.6523V61H36.0078V60.5703ZM36.6328 60.5703H37.2773V61H36.6328V60.5703ZM37.2578 60.5703H37.9023V61H37.2578V60.5703ZM37.8828 60.5703H38.5273V61H37.8828V60.5703ZM38.5078 60.5703H39.1523V61H38.5078V60.5703ZM39.1328 60.5703H39.7773V61H39.1328V60.5703ZM39.7578 60.5703H40.4023V61H39.7578V60.5703ZM40.3828 60.5703H41.0273V61H40.3828V60.5703ZM41.0078 60.5703H41.6523V61H41.0078V60.5703ZM41.6328 60.5703H42.2773V61H41.6328V60.5703ZM43.5117 60.5703H44.1562V61H43.5117V60.5703ZM44.1367 60.5703H44.7812V61H44.1367V60.5703ZM44.7617 60.5703H45.4062V61H44.7617V60.5703ZM45.3867 60.5703H46.0312V61H45.3867V60.5703ZM46.0117 60.5703H46.6562V61H46.0117V60.5703ZM46.6367 60.5703H47.2812V61H46.6367V60.5703ZM47.2617 60.5703H47.9062V61H47.2617V60.5703ZM47.8867 60.5703H48.5312V61H47.8867V60.5703ZM48.5117 60.5703H49.1562V61H48.5117V60.5703ZM49.1367 60.5703H49.7812V61H49.1367V60.5703ZM21 62.5703H21.6445V63H21V62.5703ZM21.625 62.5703H22.2695V63H21.625V62.5703ZM22.25 62.5703H22.8945V63H22.25V62.5703ZM22.875 62.5703H23.5195V63H22.875V62.5703ZM23.5 62.5703H24.1445V63H23.5V62.5703ZM24.125 62.5703H24.7695V63H24.125V62.5703ZM24.75 62.5703H25.3945V63H24.75V62.5703ZM25.375 62.5703H26.0195V63H25.375V62.5703ZM26 62.5703H26.6445V63H26V62.5703ZM26.625 62.5703H27.2695V63H26.625V62.5703ZM28.5039 62.5703H29.1484V63H28.5039V62.5703ZM29.1289 62.5703H29.7734V63H29.1289V62.5703ZM29.7539 62.5703H30.3984V63H29.7539V62.5703ZM30.3789 62.5703H31.0234V63H30.3789V62.5703ZM31.0039 62.5703H31.6484V63H31.0039V62.5703ZM31.6289 62.5703H32.2734V63H31.6289V62.5703ZM32.2539 62.5703H32.8984V63H32.2539V62.5703ZM32.8789 62.5703H33.5234V63H32.8789V62.5703ZM33.5039 62.5703H34.1484V63H33.5039V62.5703ZM34.1289 62.5703H34.7734V63H34.1289V62.5703ZM36.0078 62.5703H36.6523V63H36.0078V62.5703ZM36.6328 62.5703H37.2773V63H36.6328V62.5703ZM37.2578 62.5703H37.9023V63H37.2578V62.5703ZM37.8828 62.5703H38.5273V63H37.8828V62.5703ZM38.5078 62.5703H39.1523V63H38.5078V62.5703ZM39.1328 62.5703H39.7773V63H39.1328V62.5703ZM39.7578 62.5703H40.4023V63H39.7578V62.5703ZM40.3828 62.5703H41.0273V63H40.3828V62.5703ZM41.0078 62.5703H41.6523V63H41.0078V62.5703ZM41.6328 62.5703H42.2773V63H41.6328V62.5703ZM43.5117 62.5703H44.1562V63H43.5117V62.5703ZM44.1367 62.5703H44.7812V63H44.1367V62.5703ZM44.7617 62.5703H45.4062V63H44.7617V62.5703ZM45.3867 62.5703H46.0312V63H45.3867V62.5703ZM46.0117 62.5703H46.6562V63H46.0117V62.5703ZM46.6367 62.5703H47.2812V63H46.6367V62.5703ZM47.2617 62.5703H47.9062V63H47.2617V62.5703ZM47.8867 62.5703H48.5312V63H47.8867V62.5703ZM48.5117 62.5703H49.1562V63H48.5117V62.5703ZM49.1367 62.5703H49.7812V63H49.1367V62.5703ZM21 64.5703H21.6445V65H21V64.5703ZM21.625 64.5703H22.2695V65H21.625V64.5703ZM22.25 64.5703H22.8945V65H22.25V64.5703ZM22.875 64.5703H23.5195V65H22.875V64.5703ZM23.5 64.5703H24.1445V65H23.5V64.5703ZM24.125 64.5703H24.7695V65H24.125V64.5703ZM24.75 64.5703H25.3945V65H24.75V64.5703ZM25.375 64.5703H26.0195V65H25.375V64.5703ZM26 64.5703H26.6445V65H26V64.5703ZM26.625 64.5703H27.2695V65H26.625V64.5703ZM28.5039 64.5703H29.1484V65H28.5039V64.5703ZM29.1289 64.5703H29.7734V65H29.1289V64.5703ZM29.7539 64.5703H30.3984V65H29.7539V64.5703ZM30.3789 64.5703H31.0234V65H30.3789V64.5703ZM31.0039 64.5703H31.6484V65H31.0039V64.5703ZM31.6289 64.5703H32.2734V65H31.6289V64.5703ZM32.2539 64.5703H32.8984V65H32.2539V64.5703ZM32.8789 64.5703H33.5234V65H32.8789V64.5703ZM33.5039 64.5703H34.1484V65H33.5039V64.5703ZM34.1289 64.5703H34.7734V65H34.1289V64.5703ZM36.0078 64.5703H36.6523V65H36.0078V64.5703ZM36.6328 64.5703H37.2773V65H36.6328V64.5703ZM37.2578 64.5703H37.9023V65H37.2578V64.5703ZM37.8828 64.5703H38.5273V65H37.8828V64.5703ZM38.5078 64.5703H39.1523V65H38.5078V64.5703ZM39.1328 64.5703H39.7773V65H39.1328V64.5703ZM39.7578 64.5703H40.4023V65H39.7578V64.5703ZM40.3828 64.5703H41.0273V65H40.3828V64.5703ZM41.0078 64.5703H41.6523V65H41.0078V64.5703ZM41.6328 64.5703H42.2773V65H41.6328V64.5703ZM43.5117 64.5703H44.1562V65H43.5117V64.5703ZM44.1367 64.5703H44.7812V65H44.1367V64.5703ZM44.7617 64.5703H45.4062V65H44.7617V64.5703ZM45.3867 64.5703H46.0312V65H45.3867V64.5703ZM46.0117 64.5703H46.6562V65H46.0117V64.5703ZM46.6367 64.5703H47.2812V65H46.6367V64.5703ZM47.2617 64.5703H47.9062V65H47.2617V64.5703ZM47.8867 64.5703H48.5312V65H47.8867V64.5703ZM48.5117 64.5703H49.1562V65H48.5117V64.5703ZM49.1367 64.5703H49.7812V65H49.1367V64.5703ZM21 66.5703H21.6445V67H21V66.5703ZM21.625 66.5703H22.2695V67H21.625V66.5703ZM22.25 66.5703H22.8945V67H22.25V66.5703ZM22.875 66.5703H23.5195V67H22.875V66.5703ZM23.5 66.5703H24.1445V67H23.5V66.5703ZM24.125 66.5703H24.7695V67H24.125V66.5703ZM24.75 66.5703H25.3945V67H24.75V66.5703ZM25.375 66.5703H26.0195V67H25.375V66.5703ZM26 66.5703H26.6445V67H26V66.5703ZM26.625 66.5703H27.2695V67H26.625V66.5703ZM28.5039 66.5703H29.1484V67H28.5039V66.5703ZM29.1289 66.5703H29.7734V67H29.1289V66.5703ZM29.7539 66.5703H30.3984V67H29.7539V66.5703ZM30.3789 66.5703H31.0234V67H30.3789V66.5703ZM31.0039 66.5703H31.6484V67H31.0039V66.5703ZM31.6289 66.5703H32.2734V67H31.6289V66.5703ZM32.2539 66.5703H32.8984V67H32.2539V66.5703ZM32.8789 66.5703H33.5234V67H32.8789V66.5703ZM33.5039 66.5703H34.1484V67H33.5039V66.5703ZM34.1289 66.5703H34.7734V67H34.1289V66.5703ZM36.0078 66.5703H36.6523V67H36.0078V66.5703ZM36.6328 66.5703H37.2773V67H36.6328V66.5703ZM37.2578 66.5703H37.9023V67H37.2578V66.5703ZM37.8828 66.5703H38.5273V67H37.8828V66.5703ZM38.5078 66.5703H39.1523V67H38.5078V66.5703ZM39.1328 66.5703H39.7773V67H39.1328V66.5703ZM39.7578 66.5703H40.4023V67H39.7578V66.5703ZM40.3828 66.5703H41.0273V67H40.3828V66.5703ZM41.0078 66.5703H41.6523V67H41.0078V66.5703ZM41.6328 66.5703H42.2773V67H41.6328V66.5703ZM43.5117 66.5703H44.1562V67H43.5117V66.5703ZM44.1367 66.5703H44.7812V67H44.1367V66.5703ZM44.7617 66.5703H45.4062V67H44.7617V66.5703ZM45.3867 66.5703H46.0312V67H45.3867V66.5703ZM46.0117 66.5703H46.6562V67H46.0117V66.5703ZM46.6367 66.5703H47.2812V67H46.6367V66.5703ZM47.2617 66.5703H47.9062V67H47.2617V66.5703ZM47.8867 66.5703H48.5312V67H47.8867V66.5703ZM48.5117 66.5703H49.1562V67H48.5117V66.5703ZM49.1367 66.5703H49.7812V67H49.1367V66.5703ZM21 68.5703H21.6445V69H21V68.5703ZM21.625 68.5703H22.2695V69H21.625V68.5703ZM22.25 68.5703H22.8945V69H22.25V68.5703ZM22.875 68.5703H23.5195V69H22.875V68.5703ZM23.5 68.5703H24.1445V69H23.5V68.5703ZM24.125 68.5703H24.7695V69H24.125V68.5703ZM24.75 68.5703H25.3945V69H24.75V68.5703ZM25.375 68.5703H26.0195V69H25.375V68.5703ZM26 68.5703H26.6445V69H26V68.5703ZM26.625 68.5703H27.2695V69H26.625V68.5703ZM28.5039 68.5703H29.1484V69H28.5039V68.5703ZM29.1289 68.5703H29.7734V69H29.1289V68.5703ZM29.7539 68.5703H30.3984V69H29.7539V68.5703ZM30.3789 68.5703H31.0234V69H30.3789V68.5703ZM31.0039 68.5703H31.6484V69H31.0039V68.5703ZM31.6289 68.5703H32.2734V69H31.6289V68.5703ZM32.2539 68.5703H32.8984V69H32.2539V68.5703ZM32.8789 68.5703H33.5234V69H32.8789V68.5703ZM33.5039 68.5703H34.1484V69H33.5039V68.5703ZM34.1289 68.5703H34.7734V69H34.1289V68.5703ZM36.0078 68.5703H36.6523V69H36.0078V68.5703ZM36.6328 68.5703H37.2773V69H36.6328V68.5703ZM37.2578 68.5703H37.9023V69H37.2578V68.5703ZM37.8828 68.5703H38.5273V69H37.8828V68.5703ZM38.5078 68.5703H39.1523V69H38.5078V68.5703ZM39.1328 68.5703H39.7773V69H39.1328V68.5703ZM39.7578 68.5703H40.4023V69H39.7578V68.5703ZM40.3828 68.5703H41.0273V69H40.3828V68.5703ZM41.0078 68.5703H41.6523V69H41.0078V68.5703ZM41.6328 68.5703H42.2773V69H41.6328V68.5703ZM43.5117 68.5703H44.1562V69H43.5117V68.5703ZM44.1367 68.5703H44.7812V69H44.1367V68.5703ZM44.7617 68.5703H45.4062V69H44.7617V68.5703ZM45.3867 68.5703H46.0312V69H45.3867V68.5703ZM46.0117 68.5703H46.6562V69H46.0117V68.5703ZM46.6367 68.5703H47.2812V69H46.6367V68.5703ZM47.2617 68.5703H47.9062V69H47.2617V68.5703ZM47.8867 68.5703H48.5312V69H47.8867V68.5703ZM48.5117 68.5703H49.1562V69H48.5117V68.5703ZM49.1367 68.5703H49.7812V69H49.1367V68.5703ZM21 70.5703H21.6445V71H21V70.5703ZM21.625 70.5703H22.2695V71H21.625V70.5703ZM22.25 70.5703H22.8945V71H22.25V70.5703ZM22.875 70.5703H23.5195V71H22.875V70.5703ZM23.5 70.5703H24.1445V71H23.5V70.5703ZM24.125 70.5703H24.7695V71H24.125V70.5703ZM24.75 70.5703H25.3945V71H24.75V70.5703ZM25.375 70.5703H26.0195V71H25.375V70.5703ZM26 70.5703H26.6445V71H26V70.5703ZM26.625 70.5703H27.2695V71H26.625V70.5703ZM28.5039 70.5703H29.1484V71H28.5039V70.5703ZM29.1289 70.5703H29.7734V71H29.1289V70.5703ZM29.7539 70.5703H30.3984V71H29.7539V70.5703ZM30.3789 70.5703H31.0234V71H30.3789V70.5703ZM31.0039 70.5703H31.6484V71H31.0039V70.5703ZM31.6289 70.5703H32.2734V71H31.6289V70.5703ZM32.2539 70.5703H32.8984V71H32.2539V70.5703ZM32.8789 70.5703H33.5234V71H32.8789V70.5703ZM33.5039 70.5703H34.1484V71H33.5039V70.5703ZM34.1289 70.5703H34.7734V71H34.1289V70.5703ZM36.0078 70.5703H36.6523V71H36.0078V70.5703ZM36.6328 70.5703H37.2773V71H36.6328V70.5703ZM37.2578 70.5703H37.9023V71H37.2578V70.5703ZM37.8828 70.5703H38.5273V71H37.8828V70.5703ZM38.5078 70.5703H39.1523V71H38.5078V70.5703ZM39.1328 70.5703H39.7773V71H39.1328V70.5703ZM39.7578 70.5703H40.4023V71H39.7578V70.5703ZM40.3828 70.5703H41.0273V71H40.3828V70.5703ZM41.0078 70.5703H41.6523V71H41.0078V70.5703ZM41.6328 70.5703H42.2773V71H41.6328V70.5703ZM43.5117 70.5703H44.1562V71H43.5117V70.5703ZM44.1367 70.5703H44.7812V71H44.1367V70.5703ZM44.7617 70.5703H45.4062V71H44.7617V70.5703ZM45.3867 70.5703H46.0312V71H45.3867V70.5703ZM46.0117 70.5703H46.6562V71H46.0117V70.5703ZM46.6367 70.5703H47.2812V71H46.6367V70.5703ZM47.2617 70.5703H47.9062V71H47.2617V70.5703ZM47.8867 70.5703H48.5312V71H47.8867V70.5703ZM48.5117 70.5703H49.1562V71H48.5117V70.5703ZM49.1367 70.5703H49.7812V71H49.1367V70.5703ZM21 72.5703H21.6445V73H21V72.5703ZM21.625 72.5703H22.2695V73H21.625V72.5703ZM22.25 72.5703H22.8945V73H22.25V72.5703ZM22.875 72.5703H23.5195V73H22.875V72.5703ZM23.5 72.5703H24.1445V73H23.5V72.5703ZM24.125 72.5703H24.7695V73H24.125V72.5703ZM24.75 72.5703H25.3945V73H24.75V72.5703ZM25.375 72.5703H26.0195V73H25.375V72.5703ZM26 72.5703H26.6445V73H26V72.5703ZM26.625 72.5703H27.2695V73H26.625V72.5703ZM28.5039 72.5703H29.1484V73H28.5039V72.5703ZM29.1289 72.5703H29.7734V73H29.1289V72.5703ZM29.7539 72.5703H30.3984V73H29.7539V72.5703ZM30.3789 72.5703H31.0234V73H30.3789V72.5703ZM31.0039 72.5703H31.6484V73H31.0039V72.5703ZM31.6289 72.5703H32.2734V73H31.6289V72.5703ZM32.2539 72.5703H32.8984V73H32.2539V72.5703ZM32.8789 72.5703H33.5234V73H32.8789V72.5703ZM33.5039 72.5703H34.1484V73H33.5039V72.5703ZM34.1289 72.5703H34.7734V73H34.1289V72.5703ZM36.0078 72.5703H36.6523V73H36.0078V72.5703ZM36.6328 72.5703H37.2773V73H36.6328V72.5703ZM37.2578 72.5703H37.9023V73H37.2578V72.5703ZM37.8828 72.5703H38.5273V73H37.8828V72.5703ZM38.5078 72.5703H39.1523V73H38.5078V72.5703ZM39.1328 72.5703H39.7773V73H39.1328V72.5703ZM39.7578 72.5703H40.4023V73H39.7578V72.5703ZM40.3828 72.5703H41.0273V73H40.3828V72.5703ZM41.0078 72.5703H41.6523V73H41.0078V72.5703ZM41.6328 72.5703H42.2773V73H41.6328V72.5703ZM43.5117 72.5703H44.1562V73H43.5117V72.5703ZM44.1367 72.5703H44.7812V73H44.1367V72.5703ZM44.7617 72.5703H45.4062V73H44.7617V72.5703ZM45.3867 72.5703H46.0312V73H45.3867V72.5703ZM46.0117 72.5703H46.6562V73H46.0117V72.5703ZM46.6367 72.5703H47.2812V73H46.6367V72.5703ZM47.2617 72.5703H47.9062V73H47.2617V72.5703ZM47.8867 72.5703H48.5312V73H47.8867V72.5703ZM48.5117 72.5703H49.1562V73H48.5117V72.5703ZM49.1367 72.5703H49.7812V73H49.1367V72.5703Z" fill="#747378"/>
<path d="M21 78.5703H21.6445V79H21V78.5703ZM21.625 78.5703H22.2695V79H21.625V78.5703ZM22.25 78.5703H22.8945V79H22.25V78.5703ZM22.875 78.5703H23.5195V79H22.875V78.5703ZM23.5 78.5703H24.1445V79H23.5V78.5703ZM24.125 78.5703H24.7695V79H24.125V78.5703ZM24.75 78.5703H25.3945V79H24.75V78.5703ZM26.6289 78.5703H27.2734V79H26.6289V78.5703ZM27.2539 78.5703H27.8984V79H27.2539V78.5703ZM29.1328 78.5703H29.7773V79H29.1328V78.5703ZM29.7578 78.5703H30.4023V79H29.7578V78.5703ZM30.3828 78.5703H31.0273V79H30.3828V78.5703ZM32.2617 78.5703H32.9062V79H32.2617V78.5703ZM32.8867 78.5703H33.5312V79H32.8867V78.5703ZM34.7656 78.5703H35.4102V79H34.7656V78.5703ZM35.3906 78.5703H36.0352V79H35.3906V78.5703ZM36.0156 78.5703H36.6602V79H36.0156V78.5703ZM36.6406 78.5703H37.2852V79H36.6406V78.5703ZM37.2656 78.5703H37.9102V79H37.2656V78.5703ZM37.8906 78.5703H38.5352V79H37.8906V78.5703ZM38.5156 78.5703H39.1602V79H38.5156V78.5703ZM21 80.5703H21.6445V81H21V80.5703ZM21.625 80.5703H22.2695V81H21.625V80.5703ZM22.25 80.5703H22.8945V81H22.25V80.5703ZM22.875 80.5703H23.5195V81H22.875V80.5703ZM23.5 80.5703H24.1445V81H23.5V80.5703ZM24.125 80.5703H24.7695V81H24.125V80.5703ZM24.75 80.5703H25.3945V81H24.75V80.5703ZM25.375 80.5703H26.0195V81H25.375V80.5703ZM26 80.5703H26.6445V81H26V80.5703ZM26.625 80.5703H27.2695V81H26.625V80.5703ZM27.25 80.5703H27.8945V81H27.25V80.5703ZM29.1289 80.5703H29.7734V81H29.1289V80.5703ZM29.7539 80.5703H30.3984V81H29.7539V80.5703ZM30.3789 80.5703H31.0234V81H30.3789V80.5703ZM31.0039 80.5703H31.6484V81H31.0039V80.5703ZM31.6289 80.5703H32.2734V81H31.6289V80.5703ZM32.2539 80.5703H32.8984V81H32.2539V80.5703ZM32.8789 80.5703H33.5234V81H32.8789V80.5703ZM33.5039 80.5703H34.1484V81H33.5039V80.5703ZM34.1289 80.5703H34.7734V81H34.1289V80.5703ZM34.7539 80.5703H35.3984V81H34.7539V80.5703ZM35.3789 80.5703H36.0234V81H35.3789V80.5703ZM36.0039 80.5703H36.6484V81H36.0039V80.5703ZM21 82.5703H21.6445V83H21V82.5703ZM21.625 82.5703H22.2695V83H21.625V82.5703ZM23.5039 82.5703H24.1484V83H23.5039V82.5703ZM24.1289 82.5703H24.7734V83H24.1289V82.5703ZM24.7539 82.5703H25.3984V83H24.7539V82.5703ZM25.3789 82.5703H26.0234V83H25.3789V82.5703ZM26.0039 82.5703H26.6484V83H26.0039V82.5703ZM26.6289 82.5703H27.2734V83H26.6289V82.5703ZM27.2539 82.5703H27.8984V83H27.2539V82.5703ZM27.8789 82.5703H28.5234V83H27.8789V82.5703ZM29.7578 82.5703H30.4023V83H29.7578V82.5703ZM30.3828 82.5703H31.0273V83H30.3828V82.5703ZM31.0078 82.5703H31.6523V83H31.0078V82.5703ZM31.6328 82.5703H32.2773V83H31.6328V82.5703ZM32.2578 82.5703H32.9023V83H32.2578V82.5703ZM32.8828 82.5703H33.5273V83H32.8828V82.5703ZM33.5078 82.5703H34.1523V83H33.5078V82.5703ZM34.1328 82.5703H34.7773V83H34.1328V82.5703Z" fill="#747378"/>
<path d="M8 32.4219H11.8672V35H8V32.4219ZM19.2734 32.4219H23.1406V35H19.2734V32.4219ZM30.5469 32.4219H34.4141V35H30.5469V32.4219Z" fill="#F5F52E"/>
<path d="M8 56.4219H11.8672V59H8V56.4219ZM19.2734 56.4219H23.1406V59H19.2734V56.4219Z" fill="#F5F52E"/>
<path d="M19 44.4219H22.8672V47H19V44.4219ZM30.2734 44.4219H34.1406V47H30.2734V44.4219Z" fill="#F5F52E"/>
<path d="M19 68.4219H22.8672V71H19V68.4219ZM30.2734 68.4219H34.1406V71H30.2734V68.4219ZM41.5469 68.4219H45.4141V71H41.5469V68.4219Z" fill="#F5F52E"/>
</g>
<g clip-path="url(#clip1)">
<rect x="54" y="6" width="46" height="88" rx="4" fill="#F1F1F1"/>
<rect x="60" y="40" width="32" height="48" fill="#DFE2FF"/>
<g opacity="0.5" filter="url(#filter1_f)">
<path d="M69.5062 65.5273C63.7269 65.5273 66.1728 81.7818 60 88H90C89.8765 87.1636 89.4568 85.4691 89.2593 84.9455C89.0123 84.2909 89.3827 74.6909 89.2593 73.9273C89.1358 73.1636 89.6296 69.3455 88.3951 67.7091C87.4897 66.5091 84.1502 64.9049 83.4568 64.4364C81.358 63.0182 85.9862 60.1541 83.4568 51.661C81.6049 45.4428 77.1605 45.7701 74.0741 46.2064C68.6757 46.9697 67.7778 55.9155 68.0247 57.3337C68.2716 58.7519 71.9753 65.5273 69.5062 65.5273Z" fill="#3749FC"/>
</g>
<path d="M60 12.5625H65.1562V16H60V12.5625ZM65 12.5625H70.1562V16H65V12.5625ZM70 12.5625H75.1562V16H70V12.5625ZM60 18.5625H65.1562V22H60V18.5625ZM65 18.5625H70.1562V22H65V18.5625ZM70 18.5625H75.1562V22H70V18.5625ZM60 24.5625H65.1562V28H60V24.5625ZM65 24.5625H70.1562V28H65V24.5625Z" fill="#0C22FF"/>
<path d="M81 22.5703H81.6445V23H81V22.5703ZM81.625 22.5703H82.2695V23H81.625V22.5703ZM82.25 22.5703H82.8945V23H82.25V22.5703ZM82.875 22.5703H83.5195V23H82.875V22.5703ZM83.5 22.5703H84.1445V23H83.5V22.5703ZM84.125 22.5703H84.7695V23H84.125V22.5703ZM84.75 22.5703H85.3945V23H84.75V22.5703ZM86.6289 22.5703H87.2734V23H86.6289V22.5703ZM87.2539 22.5703H87.8984V23H87.2539V22.5703ZM89.1328 22.5703H89.7773V23H89.1328V22.5703ZM89.7578 22.5703H90.4023V23H89.7578V22.5703ZM90.3828 22.5703H91.0273V23H90.3828V22.5703ZM92.2617 22.5703H92.9062V23H92.2617V22.5703ZM92.8867 22.5703H93.5312V23H92.8867V22.5703ZM94.7656 22.5703H95.4102V23H94.7656V22.5703ZM95.3906 22.5703H96.0352V23H95.3906V22.5703ZM96.0156 22.5703H96.6602V23H96.0156V22.5703ZM96.6406 22.5703H97.2852V23H96.6406V22.5703ZM97.2656 22.5703H97.9102V23H97.2656V22.5703ZM97.8906 22.5703H98.5352V23H97.8906V22.5703ZM98.5156 22.5703H99.1602V23H98.5156V22.5703ZM81 24.5703H81.6445V25H81V24.5703ZM81.625 24.5703H82.2695V25H81.625V24.5703ZM82.25 24.5703H82.8945V25H82.25V24.5703ZM82.875 24.5703H83.5195V25H82.875V24.5703ZM83.5 24.5703H84.1445V25H83.5V24.5703ZM84.125 24.5703H84.7695V25H84.125V24.5703ZM84.75 24.5703H85.3945V25H84.75V24.5703ZM85.375 24.5703H86.0195V25H85.375V24.5703ZM86 24.5703H86.6445V25H86V24.5703ZM86.625 24.5703H87.2695V25H86.625V24.5703ZM87.25 24.5703H87.8945V25H87.25V24.5703ZM89.1289 24.5703H89.7734V25H89.1289V24.5703ZM89.7539 24.5703H90.3984V25H89.7539V24.5703ZM90.3789 24.5703H91.0234V25H90.3789V24.5703ZM91.0039 24.5703H91.6484V25H91.0039V24.5703ZM91.6289 24.5703H92.2734V25H91.6289V24.5703ZM92.2539 24.5703H92.8984V25H92.2539V24.5703ZM92.8789 24.5703H93.5234V25H92.8789V24.5703ZM93.5039 24.5703H94.1484V25H93.5039V24.5703ZM94.1289 24.5703H94.7734V25H94.1289V24.5703ZM94.7539 24.5703H95.3984V25H94.7539V24.5703ZM95.3789 24.5703H96.0234V25H95.3789V24.5703ZM96.0039 24.5703H96.6484V25H96.0039V24.5703ZM81 26.5703H81.6445V27H81V26.5703ZM81.625 26.5703H82.2695V27H81.625V26.5703ZM83.5039 26.5703H84.1484V27H83.5039V26.5703ZM84.1289 26.5703H84.7734V27H84.1289V26.5703ZM84.7539 26.5703H85.3984V27H84.7539V26.5703ZM85.3789 26.5703H86.0234V27H85.3789V26.5703ZM86.0039 26.5703H86.6484V27H86.0039V26.5703ZM86.6289 26.5703H87.2734V27H86.6289V26.5703ZM87.2539 26.5703H87.8984V27H87.2539V26.5703ZM87.8789 26.5703H88.5234V27H87.8789V26.5703ZM89.7578 26.5703H90.4023V27H89.7578V26.5703ZM90.3828 26.5703H91.0273V27H90.3828V26.5703ZM91.0078 26.5703H91.6523V27H91.0078V26.5703ZM91.6328 26.5703H92.2773V27H91.6328V26.5703ZM92.2578 26.5703H92.9023V27H92.2578V26.5703ZM92.8828 26.5703H93.5273V27H92.8828V26.5703ZM93.5078 26.5703H94.1523V27H93.5078V26.5703ZM94.1328 26.5703H94.7773V27H94.1328V26.5703Z" fill="#747378"/>
<path d="M81 32.5703H81.6445V33H81V32.5703ZM81.625 32.5703H82.2695V33H81.625V32.5703ZM82.25 32.5703H82.8945V33H82.25V32.5703ZM82.875 32.5703H83.5195V33H82.875V32.5703ZM83.5 32.5703H84.1445V33H83.5V32.5703ZM84.125 32.5703H84.7695V33H84.125V32.5703ZM84.75 32.5703H85.3945V33H84.75V32.5703ZM86.6289 32.5703H87.2734V33H86.6289V32.5703ZM87.2539 32.5703H87.8984V33H87.2539V32.5703ZM89.1328 32.5703H89.7773V33H89.1328V32.5703ZM89.7578 32.5703H90.4023V33H89.7578V32.5703ZM90.3828 32.5703H91.0273V33H90.3828V32.5703ZM92.2617 32.5703H92.9062V33H92.2617V32.5703ZM92.8867 32.5703H93.5312V33H92.8867V32.5703ZM94.7656 32.5703H95.4102V33H94.7656V32.5703ZM95.3906 32.5703H96.0352V33H95.3906V32.5703ZM96.0156 32.5703H96.6602V33H96.0156V32.5703ZM96.6406 32.5703H97.2852V33H96.6406V32.5703ZM97.2656 32.5703H97.9102V33H97.2656V32.5703ZM97.8906 32.5703H98.5352V33H97.8906V32.5703ZM98.5156 32.5703H99.1602V33H98.5156V32.5703ZM81 34.5703H81.6445V35H81V34.5703ZM81.625 34.5703H82.2695V35H81.625V34.5703ZM82.25 34.5703H82.8945V35H82.25V34.5703ZM82.875 34.5703H83.5195V35H82.875V34.5703ZM83.5 34.5703H84.1445V35H83.5V34.5703ZM84.125 34.5703H84.7695V35H84.125V34.5703ZM84.75 34.5703H85.3945V35H84.75V34.5703ZM85.375 34.5703H86.0195V35H85.375V34.5703ZM86 34.5703H86.6445V35H86V34.5703ZM86.625 34.5703H87.2695V35H86.625V34.5703ZM87.25 34.5703H87.8945V35H87.25V34.5703ZM89.1289 34.5703H89.7734V35H89.1289V34.5703ZM89.7539 34.5703H90.3984V35H89.7539V34.5703ZM90.3789 34.5703H91.0234V35H90.3789V34.5703ZM91.0039 34.5703H91.6484V35H91.0039V34.5703ZM91.6289 34.5703H92.2734V35H91.6289V34.5703ZM92.2539 34.5703H92.8984V35H92.2539V34.5703ZM92.8789 34.5703H93.5234V35H92.8789V34.5703ZM93.5039 34.5703H94.1484V35H93.5039V34.5703ZM94.1289 34.5703H94.7734V35H94.1289V34.5703ZM94.7539 34.5703H95.3984V35H94.7539V34.5703ZM95.3789 34.5703H96.0234V35H95.3789V34.5703ZM96.0039 34.5703H96.6484V35H96.0039V34.5703ZM81 36.5703H81.6445V37H81V36.5703ZM81.625 36.5703H82.2695V37H81.625V36.5703ZM83.5039 36.5703H84.1484V37H83.5039V36.5703ZM84.1289 36.5703H84.7734V37H84.1289V36.5703ZM84.7539 36.5703H85.3984V37H84.7539V36.5703ZM85.3789 36.5703H86.0234V37H85.3789V36.5703ZM86.0039 36.5703H86.6484V37H86.0039V36.5703ZM86.6289 36.5703H87.2734V37H86.6289V36.5703ZM87.2539 36.5703H87.8984V37H87.2539V36.5703ZM87.8789 36.5703H88.5234V37H87.8789V36.5703ZM89.7578 36.5703H90.4023V37H89.7578V36.5703ZM90.3828 36.5703H91.0273V37H90.3828V36.5703ZM91.0078 36.5703H91.6523V37H91.0078V36.5703ZM91.6328 36.5703H92.2773V37H91.6328V36.5703ZM92.2578 36.5703H92.9023V37H92.2578V36.5703ZM92.8828 36.5703H93.5273V37H92.8828V36.5703ZM93.5078 36.5703H94.1523V37H93.5078V36.5703ZM94.1328 36.5703H94.7773V37H94.1328V36.5703Z" fill="#747378"/>
<path d="M81 44.5703H81.6445V45H81V44.5703ZM81.625 44.5703H82.2695V45H81.625V44.5703ZM82.25 44.5703H82.8945V45H82.25V44.5703ZM82.875 44.5703H83.5195V45H82.875V44.5703ZM83.5 44.5703H84.1445V45H83.5V44.5703ZM84.125 44.5703H84.7695V45H84.125V44.5703ZM84.75 44.5703H85.3945V45H84.75V44.5703ZM85.375 44.5703H86.0195V45H85.375V44.5703ZM86 44.5703H86.6445V45H86V44.5703ZM86.625 44.5703H87.2695V45H86.625V44.5703ZM88.5039 44.5703H89.1484V45H88.5039V44.5703ZM89.1289 44.5703H89.7734V45H89.1289V44.5703ZM89.7539 44.5703H90.3984V45H89.7539V44.5703ZM90.3789 44.5703H91.0234V45H90.3789V44.5703ZM91.0039 44.5703H91.6484V45H91.0039V44.5703ZM91.6289 44.5703H92.2734V45H91.6289V44.5703ZM92.2539 44.5703H92.8984V45H92.2539V44.5703ZM92.8789 44.5703H93.5234V45H92.8789V44.5703ZM93.5039 44.5703H94.1484V45H93.5039V44.5703ZM94.1289 44.5703H94.7734V45H94.1289V44.5703ZM96.0078 44.5703H96.6523V45H96.0078V44.5703ZM96.6328 44.5703H97.2773V45H96.6328V44.5703ZM97.2578 44.5703H97.9023V45H97.2578V44.5703ZM97.8828 44.5703H98.5273V45H97.8828V44.5703ZM98.5078 44.5703H99.1523V45H98.5078V44.5703ZM99.1328 44.5703H99.7773V45H99.1328V44.5703ZM99.7578 44.5703H100.402V45H99.7578V44.5703ZM100.383 44.5703H101.027V45H100.383V44.5703ZM101.008 44.5703H101.652V45H101.008V44.5703ZM101.633 44.5703H102.277V45H101.633V44.5703ZM103.512 44.5703H104.156V45H103.512V44.5703ZM104.137 44.5703H104.781V45H104.137V44.5703ZM104.762 44.5703H105.406V45H104.762V44.5703ZM105.387 44.5703H106.031V45H105.387V44.5703ZM106.012 44.5703H106.656V45H106.012V44.5703ZM106.637 44.5703H107.281V45H106.637V44.5703ZM107.262 44.5703H107.906V45H107.262V44.5703ZM107.887 44.5703H108.531V45H107.887V44.5703ZM108.512 44.5703H109.156V45H108.512V44.5703ZM109.137 44.5703H109.781V45H109.137V44.5703ZM81 46.5703H81.6445V47H81V46.5703ZM81.625 46.5703H82.2695V47H81.625V46.5703ZM82.25 46.5703H82.8945V47H82.25V46.5703ZM82.875 46.5703H83.5195V47H82.875V46.5703ZM83.5 46.5703H84.1445V47H83.5V46.5703ZM84.125 46.5703H84.7695V47H84.125V46.5703ZM84.75 46.5703H85.3945V47H84.75V46.5703ZM85.375 46.5703H86.0195V47H85.375V46.5703ZM86 46.5703H86.6445V47H86V46.5703ZM86.625 46.5703H87.2695V47H86.625V46.5703ZM88.5039 46.5703H89.1484V47H88.5039V46.5703ZM89.1289 46.5703H89.7734V47H89.1289V46.5703ZM89.7539 46.5703H90.3984V47H89.7539V46.5703ZM90.3789 46.5703H91.0234V47H90.3789V46.5703ZM91.0039 46.5703H91.6484V47H91.0039V46.5703ZM91.6289 46.5703H92.2734V47H91.6289V46.5703ZM92.2539 46.5703H92.8984V47H92.2539V46.5703ZM92.8789 46.5703H93.5234V47H92.8789V46.5703ZM93.5039 46.5703H94.1484V47H93.5039V46.5703ZM94.1289 46.5703H94.7734V47H94.1289V46.5703ZM96.0078 46.5703H96.6523V47H96.0078V46.5703ZM96.6328 46.5703H97.2773V47H96.6328V46.5703ZM97.2578 46.5703H97.9023V47H97.2578V46.5703ZM97.8828 46.5703H98.5273V47H97.8828V46.5703ZM98.5078 46.5703H99.1523V47H98.5078V46.5703ZM99.1328 46.5703H99.7773V47H99.1328V46.5703ZM99.7578 46.5703H100.402V47H99.7578V46.5703ZM100.383 46.5703H101.027V47H100.383V46.5703ZM101.008 46.5703H101.652V47H101.008V46.5703ZM101.633 46.5703H102.277V47H101.633V46.5703ZM103.512 46.5703H104.156V47H103.512V46.5703ZM104.137 46.5703H104.781V47H104.137V46.5703ZM104.762 46.5703H105.406V47H104.762V46.5703ZM105.387 46.5703H106.031V47H105.387V46.5703ZM106.012 46.5703H106.656V47H106.012V46.5703ZM106.637 46.5703H107.281V47H106.637V46.5703ZM107.262 46.5703H107.906V47H107.262V46.5703ZM107.887 46.5703H108.531V47H107.887V46.5703ZM108.512 46.5703H109.156V47H108.512V46.5703ZM109.137 46.5703H109.781V47H109.137V46.5703ZM81 48.5703H81.6445V49H81V48.5703ZM81.625 48.5703H82.2695V49H81.625V48.5703ZM82.25 48.5703H82.8945V49H82.25V48.5703ZM82.875 48.5703H83.5195V49H82.875V48.5703ZM83.5 48.5703H84.1445V49H83.5V48.5703ZM84.125 48.5703H84.7695V49H84.125V48.5703ZM84.75 48.5703H85.3945V49H84.75V48.5703ZM85.375 48.5703H86.0195V49H85.375V48.5703ZM86 48.5703H86.6445V49H86V48.5703ZM86.625 48.5703H87.2695V49H86.625V48.5703ZM88.5039 48.5703H89.1484V49H88.5039V48.5703ZM89.1289 48.5703H89.7734V49H89.1289V48.5703ZM89.7539 48.5703H90.3984V49H89.7539V48.5703ZM90.3789 48.5703H91.0234V49H90.3789V48.5703ZM91.0039 48.5703H91.6484V49H91.0039V48.5703ZM91.6289 48.5703H92.2734V49H91.6289V48.5703ZM92.2539 48.5703H92.8984V49H92.2539V48.5703ZM92.8789 48.5703H93.5234V49H92.8789V48.5703ZM93.5039 48.5703H94.1484V49H93.5039V48.5703ZM94.1289 48.5703H94.7734V49H94.1289V48.5703ZM96.0078 48.5703H96.6523V49H96.0078V48.5703ZM96.6328 48.5703H97.2773V49H96.6328V48.5703ZM97.2578 48.5703H97.9023V49H97.2578V48.5703ZM97.8828 48.5703H98.5273V49H97.8828V48.5703ZM98.5078 48.5703H99.1523V49H98.5078V48.5703ZM99.1328 48.5703H99.7773V49H99.1328V48.5703ZM99.7578 48.5703H100.402V49H99.7578V48.5703ZM100.383 48.5703H101.027V49H100.383V48.5703ZM101.008 48.5703H101.652V49H101.008V48.5703ZM101.633 48.5703H102.277V49H101.633V48.5703ZM103.512 48.5703H104.156V49H103.512V48.5703ZM104.137 48.5703H104.781V49H104.137V48.5703ZM104.762 48.5703H105.406V49H104.762V48.5703ZM105.387 48.5703H106.031V49H105.387V48.5703ZM106.012 48.5703H106.656V49H106.012V48.5703ZM106.637 48.5703H107.281V49H106.637V48.5703ZM107.262 48.5703H107.906V49H107.262V48.5703ZM107.887 48.5703H108.531V49H107.887V48.5703ZM108.512 48.5703H109.156V49H108.512V48.5703ZM109.137 48.5703H109.781V49H109.137V48.5703ZM81 50.5703H81.6445V51H81V50.5703ZM81.625 50.5703H82.2695V51H81.625V50.5703ZM82.25 50.5703H82.8945V51H82.25V50.5703ZM82.875 50.5703H83.5195V51H82.875V50.5703ZM83.5 50.5703H84.1445V51H83.5V50.5703ZM84.125 50.5703H84.7695V51H84.125V50.5703ZM84.75 50.5703H85.3945V51H84.75V50.5703ZM85.375 50.5703H86.0195V51H85.375V50.5703ZM86 50.5703H86.6445V51H86V50.5703ZM86.625 50.5703H87.2695V51H86.625V50.5703ZM88.5039 50.5703H89.1484V51H88.5039V50.5703ZM89.1289 50.5703H89.7734V51H89.1289V50.5703ZM89.7539 50.5703H90.3984V51H89.7539V50.5703ZM90.3789 50.5703H91.0234V51H90.3789V50.5703ZM91.0039 50.5703H91.6484V51H91.0039V50.5703ZM91.6289 50.5703H92.2734V51H91.6289V50.5703ZM92.2539 50.5703H92.8984V51H92.2539V50.5703ZM92.8789 50.5703H93.5234V51H92.8789V50.5703ZM93.5039 50.5703H94.1484V51H93.5039V50.5703ZM94.1289 50.5703H94.7734V51H94.1289V50.5703ZM96.0078 50.5703H96.6523V51H96.0078V50.5703ZM96.6328 50.5703H97.2773V51H96.6328V50.5703ZM97.2578 50.5703H97.9023V51H97.2578V50.5703ZM97.8828 50.5703H98.5273V51H97.8828V50.5703ZM98.5078 50.5703H99.1523V51H98.5078V50.5703ZM99.1328 50.5703H99.7773V51H99.1328V50.5703ZM99.7578 50.5703H100.402V51H99.7578V50.5703ZM100.383 50.5703H101.027V51H100.383V50.5703ZM101.008 50.5703H101.652V51H101.008V50.5703ZM101.633 50.5703H102.277V51H101.633V50.5703ZM103.512 50.5703H104.156V51H103.512V50.5703ZM104.137 50.5703H104.781V51H104.137V50.5703ZM104.762 50.5703H105.406V51H104.762V50.5703ZM105.387 50.5703H106.031V51H105.387V50.5703ZM106.012 50.5703H106.656V51H106.012V50.5703ZM106.637 50.5703H107.281V51H106.637V50.5703ZM107.262 50.5703H107.906V51H107.262V50.5703ZM107.887 50.5703H108.531V51H107.887V50.5703ZM108.512 50.5703H109.156V51H108.512V50.5703ZM109.137 50.5703H109.781V51H109.137V50.5703ZM81 52.5703H81.6445V53H81V52.5703ZM81.625 52.5703H82.2695V53H81.625V52.5703ZM82.25 52.5703H82.8945V53H82.25V52.5703ZM82.875 52.5703H83.5195V53H82.875V52.5703ZM83.5 52.5703H84.1445V53H83.5V52.5703ZM84.125 52.5703H84.7695V53H84.125V52.5703ZM84.75 52.5703H85.3945V53H84.75V52.5703ZM85.375 52.5703H86.0195V53H85.375V52.5703ZM86 52.5703H86.6445V53H86V52.5703ZM86.625 52.5703H87.2695V53H86.625V52.5703ZM88.5039 52.5703H89.1484V53H88.5039V52.5703ZM89.1289 52.5703H89.7734V53H89.1289V52.5703ZM89.7539 52.5703H90.3984V53H89.7539V52.5703ZM90.3789 52.5703H91.0234V53H90.3789V52.5703ZM91.0039 52.5703H91.6484V53H91.0039V52.5703ZM91.6289 52.5703H92.2734V53H91.6289V52.5703ZM92.2539 52.5703H92.8984V53H92.2539V52.5703ZM92.8789 52.5703H93.5234V53H92.8789V52.5703ZM93.5039 52.5703H94.1484V53H93.5039V52.5703ZM94.1289 52.5703H94.7734V53H94.1289V52.5703ZM96.0078 52.5703H96.6523V53H96.0078V52.5703ZM96.6328 52.5703H97.2773V53H96.6328V52.5703ZM97.2578 52.5703H97.9023V53H97.2578V52.5703ZM97.8828 52.5703H98.5273V53H97.8828V52.5703ZM98.5078 52.5703H99.1523V53H98.5078V52.5703ZM99.1328 52.5703H99.7773V53H99.1328V52.5703ZM99.7578 52.5703H100.402V53H99.7578V52.5703ZM100.383 52.5703H101.027V53H100.383V52.5703ZM101.008 52.5703H101.652V53H101.008V52.5703ZM101.633 52.5703H102.277V53H101.633V52.5703ZM103.512 52.5703H104.156V53H103.512V52.5703ZM104.137 52.5703H104.781V53H104.137V52.5703ZM104.762 52.5703H105.406V53H104.762V52.5703ZM105.387 52.5703H106.031V53H105.387V52.5703ZM106.012 52.5703H106.656V53H106.012V52.5703ZM106.637 52.5703H107.281V53H106.637V52.5703ZM107.262 52.5703H107.906V53H107.262V52.5703ZM107.887 52.5703H108.531V53H107.887V52.5703ZM108.512 52.5703H109.156V53H108.512V52.5703ZM109.137 52.5703H109.781V53H109.137V52.5703ZM81 54.5703H81.6445V55H81V54.5703ZM81.625 54.5703H82.2695V55H81.625V54.5703ZM82.25 54.5703H82.8945V55H82.25V54.5703ZM82.875 54.5703H83.5195V55H82.875V54.5703ZM83.5 54.5703H84.1445V55H83.5V54.5703ZM84.125 54.5703H84.7695V55H84.125V54.5703ZM84.75 54.5703H85.3945V55H84.75V54.5703ZM85.375 54.5703H86.0195V55H85.375V54.5703ZM86 54.5703H86.6445V55H86V54.5703ZM86.625 54.5703H87.2695V55H86.625V54.5703ZM88.5039 54.5703H89.1484V55H88.5039V54.5703ZM89.1289 54.5703H89.7734V55H89.1289V54.5703ZM89.7539 54.5703H90.3984V55H89.7539V54.5703ZM90.3789 54.5703H91.0234V55H90.3789V54.5703ZM91.0039 54.5703H91.6484V55H91.0039V54.5703ZM91.6289 54.5703H92.2734V55H91.6289V54.5703ZM92.2539 54.5703H92.8984V55H92.2539V54.5703ZM92.8789 54.5703H93.5234V55H92.8789V54.5703ZM93.5039 54.5703H94.1484V55H93.5039V54.5703ZM94.1289 54.5703H94.7734V55H94.1289V54.5703ZM96.0078 54.5703H96.6523V55H96.0078V54.5703ZM96.6328 54.5703H97.2773V55H96.6328V54.5703ZM97.2578 54.5703H97.9023V55H97.2578V54.5703ZM97.8828 54.5703H98.5273V55H97.8828V54.5703ZM98.5078 54.5703H99.1523V55H98.5078V54.5703ZM99.1328 54.5703H99.7773V55H99.1328V54.5703ZM99.7578 54.5703H100.402V55H99.7578V54.5703ZM100.383 54.5703H101.027V55H100.383V54.5703ZM101.008 54.5703H101.652V55H101.008V54.5703ZM101.633 54.5703H102.277V55H101.633V54.5703ZM103.512 54.5703H104.156V55H103.512V54.5703ZM104.137 54.5703H104.781V55H104.137V54.5703ZM104.762 54.5703H105.406V55H104.762V54.5703ZM105.387 54.5703H106.031V55H105.387V54.5703ZM106.012 54.5703H106.656V55H106.012V54.5703ZM106.637 54.5703H107.281V55H106.637V54.5703ZM107.262 54.5703H107.906V55H107.262V54.5703ZM107.887 54.5703H108.531V55H107.887V54.5703ZM108.512 54.5703H109.156V55H108.512V54.5703ZM109.137 54.5703H109.781V55H109.137V54.5703ZM81 56.5703H81.6445V57H81V56.5703ZM81.625 56.5703H82.2695V57H81.625V56.5703ZM82.25 56.5703H82.8945V57H82.25V56.5703ZM82.875 56.5703H83.5195V57H82.875V56.5703ZM83.5 56.5703H84.1445V57H83.5V56.5703ZM84.125 56.5703H84.7695V57H84.125V56.5703ZM84.75 56.5703H85.3945V57H84.75V56.5703ZM85.375 56.5703H86.0195V57H85.375V56.5703ZM86 56.5703H86.6445V57H86V56.5703ZM86.625 56.5703H87.2695V57H86.625V56.5703ZM88.5039 56.5703H89.1484V57H88.5039V56.5703ZM89.1289 56.5703H89.7734V57H89.1289V56.5703ZM89.7539 56.5703H90.3984V57H89.7539V56.5703ZM90.3789 56.5703H91.0234V57H90.3789V56.5703ZM91.0039 56.5703H91.6484V57H91.0039V56.5703ZM91.6289 56.5703H92.2734V57H91.6289V56.5703ZM92.2539 56.5703H92.8984V57H92.2539V56.5703ZM92.8789 56.5703H93.5234V57H92.8789V56.5703ZM93.5039 56.5703H94.1484V57H93.5039V56.5703ZM94.1289 56.5703H94.7734V57H94.1289V56.5703ZM96.0078 56.5703H96.6523V57H96.0078V56.5703ZM96.6328 56.5703H97.2773V57H96.6328V56.5703ZM97.2578 56.5703H97.9023V57H97.2578V56.5703ZM97.8828 56.5703H98.5273V57H97.8828V56.5703ZM98.5078 56.5703H99.1523V57H98.5078V56.5703ZM99.1328 56.5703H99.7773V57H99.1328V56.5703ZM99.7578 56.5703H100.402V57H99.7578V56.5703ZM100.383 56.5703H101.027V57H100.383V56.5703ZM101.008 56.5703H101.652V57H101.008V56.5703ZM101.633 56.5703H102.277V57H101.633V56.5703ZM103.512 56.5703H104.156V57H103.512V56.5703ZM104.137 56.5703H104.781V57H104.137V56.5703ZM104.762 56.5703H105.406V57H104.762V56.5703ZM105.387 56.5703H106.031V57H105.387V56.5703ZM106.012 56.5703H106.656V57H106.012V56.5703ZM106.637 56.5703H107.281V57H106.637V56.5703ZM107.262 56.5703H107.906V57H107.262V56.5703ZM107.887 56.5703H108.531V57H107.887V56.5703ZM108.512 56.5703H109.156V57H108.512V56.5703ZM109.137 56.5703H109.781V57H109.137V56.5703ZM81 58.5703H81.6445V59H81V58.5703ZM81.625 58.5703H82.2695V59H81.625V58.5703ZM82.25 58.5703H82.8945V59H82.25V58.5703ZM82.875 58.5703H83.5195V59H82.875V58.5703ZM83.5 58.5703H84.1445V59H83.5V58.5703ZM84.125 58.5703H84.7695V59H84.125V58.5703ZM84.75 58.5703H85.3945V59H84.75V58.5703ZM85.375 58.5703H86.0195V59H85.375V58.5703ZM86 58.5703H86.6445V59H86V58.5703ZM86.625 58.5703H87.2695V59H86.625V58.5703ZM88.5039 58.5703H89.1484V59H88.5039V58.5703ZM89.1289 58.5703H89.7734V59H89.1289V58.5703ZM89.7539 58.5703H90.3984V59H89.7539V58.5703ZM90.3789 58.5703H91.0234V59H90.3789V58.5703ZM91.0039 58.5703H91.6484V59H91.0039V58.5703ZM91.6289 58.5703H92.2734V59H91.6289V58.5703ZM92.2539 58.5703H92.8984V59H92.2539V58.5703ZM92.8789 58.5703H93.5234V59H92.8789V58.5703ZM93.5039 58.5703H94.1484V59H93.5039V58.5703ZM94.1289 58.5703H94.7734V59H94.1289V58.5703ZM96.0078 58.5703H96.6523V59H96.0078V58.5703ZM96.6328 58.5703H97.2773V59H96.6328V58.5703ZM97.2578 58.5703H97.9023V59H97.2578V58.5703ZM97.8828 58.5703H98.5273V59H97.8828V58.5703ZM98.5078 58.5703H99.1523V59H98.5078V58.5703ZM99.1328 58.5703H99.7773V59H99.1328V58.5703ZM99.7578 58.5703H100.402V59H99.7578V58.5703ZM100.383 58.5703H101.027V59H100.383V58.5703ZM101.008 58.5703H101.652V59H101.008V58.5703ZM101.633 58.5703H102.277V59H101.633V58.5703ZM103.512 58.5703H104.156V59H103.512V58.5703ZM104.137 58.5703H104.781V59H104.137V58.5703ZM104.762 58.5703H105.406V59H104.762V58.5703ZM105.387 58.5703H106.031V59H105.387V58.5703ZM106.012 58.5703H106.656V59H106.012V58.5703ZM106.637 58.5703H107.281V59H106.637V58.5703ZM107.262 58.5703H107.906V59H107.262V58.5703ZM107.887 58.5703H108.531V59H107.887V58.5703ZM108.512 58.5703H109.156V59H108.512V58.5703ZM109.137 58.5703H109.781V59H109.137V58.5703ZM81 60.5703H81.6445V61H81V60.5703ZM81.625 60.5703H82.2695V61H81.625V60.5703ZM82.25 60.5703H82.8945V61H82.25V60.5703ZM82.875 60.5703H83.5195V61H82.875V60.5703ZM83.5 60.5703H84.1445V61H83.5V60.5703ZM84.125 60.5703H84.7695V61H84.125V60.5703ZM84.75 60.5703H85.3945V61H84.75V60.5703ZM85.375 60.5703H86.0195V61H85.375V60.5703ZM86 60.5703H86.6445V61H86V60.5703ZM86.625 60.5703H87.2695V61H86.625V60.5703ZM88.5039 60.5703H89.1484V61H88.5039V60.5703ZM89.1289 60.5703H89.7734V61H89.1289V60.5703ZM89.7539 60.5703H90.3984V61H89.7539V60.5703ZM90.3789 60.5703H91.0234V61H90.3789V60.5703ZM91.0039 60.5703H91.6484V61H91.0039V60.5703ZM91.6289 60.5703H92.2734V61H91.6289V60.5703ZM92.2539 60.5703H92.8984V61H92.2539V60.5703ZM92.8789 60.5703H93.5234V61H92.8789V60.5703ZM93.5039 60.5703H94.1484V61H93.5039V60.5703ZM94.1289 60.5703H94.7734V61H94.1289V60.5703ZM96.0078 60.5703H96.6523V61H96.0078V60.5703ZM96.6328 60.5703H97.2773V61H96.6328V60.5703ZM97.2578 60.5703H97.9023V61H97.2578V60.5703ZM97.8828 60.5703H98.5273V61H97.8828V60.5703ZM98.5078 60.5703H99.1523V61H98.5078V60.5703ZM99.1328 60.5703H99.7773V61H99.1328V60.5703ZM99.7578 60.5703H100.402V61H99.7578V60.5703ZM100.383 60.5703H101.027V61H100.383V60.5703ZM101.008 60.5703H101.652V61H101.008V60.5703ZM101.633 60.5703H102.277V61H101.633V60.5703ZM103.512 60.5703H104.156V61H103.512V60.5703ZM104.137 60.5703H104.781V61H104.137V60.5703ZM104.762 60.5703H105.406V61H104.762V60.5703ZM105.387 60.5703H106.031V61H105.387V60.5703ZM106.012 60.5703H106.656V61H106.012V60.5703ZM106.637 60.5703H107.281V61H106.637V60.5703ZM107.262 60.5703H107.906V61H107.262V60.5703ZM107.887 60.5703H108.531V61H107.887V60.5703ZM108.512 60.5703H109.156V61H108.512V60.5703ZM109.137 60.5703H109.781V61H109.137V60.5703ZM81 62.5703H81.6445V63H81V62.5703ZM81.625 62.5703H82.2695V63H81.625V62.5703ZM82.25 62.5703H82.8945V63H82.25V62.5703ZM82.875 62.5703H83.5195V63H82.875V62.5703ZM83.5 62.5703H84.1445V63H83.5V62.5703ZM84.125 62.5703H84.7695V63H84.125V62.5703ZM84.75 62.5703H85.3945V63H84.75V62.5703ZM85.375 62.5703H86.0195V63H85.375V62.5703ZM86 62.5703H86.6445V63H86V62.5703ZM86.625 62.5703H87.2695V63H86.625V62.5703ZM88.5039 62.5703H89.1484V63H88.5039V62.5703ZM89.1289 62.5703H89.7734V63H89.1289V62.5703ZM89.7539 62.5703H90.3984V63H89.7539V62.5703ZM90.3789 62.5703H91.0234V63H90.3789V62.5703ZM91.0039 62.5703H91.6484V63H91.0039V62.5703ZM91.6289 62.5703H92.2734V63H91.6289V62.5703ZM92.2539 62.5703H92.8984V63H92.2539V62.5703ZM92.8789 62.5703H93.5234V63H92.8789V62.5703ZM93.5039 62.5703H94.1484V63H93.5039V62.5703ZM94.1289 62.5703H94.7734V63H94.1289V62.5703ZM96.0078 62.5703H96.6523V63H96.0078V62.5703ZM96.6328 62.5703H97.2773V63H96.6328V62.5703ZM97.2578 62.5703H97.9023V63H97.2578V62.5703ZM97.8828 62.5703H98.5273V63H97.8828V62.5703ZM98.5078 62.5703H99.1523V63H98.5078V62.5703ZM99.1328 62.5703H99.7773V63H99.1328V62.5703ZM99.7578 62.5703H100.402V63H99.7578V62.5703ZM100.383 62.5703H101.027V63H100.383V62.5703ZM101.008 62.5703H101.652V63H101.008V62.5703ZM101.633 62.5703H102.277V63H101.633V62.5703ZM103.512 62.5703H104.156V63H103.512V62.5703ZM104.137 62.5703H104.781V63H104.137V62.5703ZM104.762 62.5703H105.406V63H104.762V62.5703ZM105.387 62.5703H106.031V63H105.387V62.5703ZM106.012 62.5703H106.656V63H106.012V62.5703ZM106.637 62.5703H107.281V63H106.637V62.5703ZM107.262 62.5703H107.906V63H107.262V62.5703ZM107.887 62.5703H108.531V63H107.887V62.5703ZM108.512 62.5703H109.156V63H108.512V62.5703ZM109.137 62.5703H109.781V63H109.137V62.5703ZM81 64.5703H81.6445V65H81V64.5703ZM81.625 64.5703H82.2695V65H81.625V64.5703ZM82.25 64.5703H82.8945V65H82.25V64.5703ZM82.875 64.5703H83.5195V65H82.875V64.5703ZM83.5 64.5703H84.1445V65H83.5V64.5703ZM84.125 64.5703H84.7695V65H84.125V64.5703ZM84.75 64.5703H85.3945V65H84.75V64.5703ZM85.375 64.5703H86.0195V65H85.375V64.5703ZM86 64.5703H86.6445V65H86V64.5703ZM86.625 64.5703H87.2695V65H86.625V64.5703ZM88.5039 64.5703H89.1484V65H88.5039V64.5703ZM89.1289 64.5703H89.7734V65H89.1289V64.5703ZM89.7539 64.5703H90.3984V65H89.7539V64.5703ZM90.3789 64.5703H91.0234V65H90.3789V64.5703ZM91.0039 64.5703H91.6484V65H91.0039V64.5703ZM91.6289 64.5703H92.2734V65H91.6289V64.5703ZM92.2539 64.5703H92.8984V65H92.2539V64.5703ZM92.8789 64.5703H93.5234V65H92.8789V64.5703ZM93.5039 64.5703H94.1484V65H93.5039V64.5703ZM94.1289 64.5703H94.7734V65H94.1289V64.5703ZM96.0078 64.5703H96.6523V65H96.0078V64.5703ZM96.6328 64.5703H97.2773V65H96.6328V64.5703ZM97.2578 64.5703H97.9023V65H97.2578V64.5703ZM97.8828 64.5703H98.5273V65H97.8828V64.5703ZM98.5078 64.5703H99.1523V65H98.5078V64.5703ZM99.1328 64.5703H99.7773V65H99.1328V64.5703ZM99.7578 64.5703H100.402V65H99.7578V64.5703ZM100.383 64.5703H101.027V65H100.383V64.5703ZM101.008 64.5703H101.652V65H101.008V64.5703ZM101.633 64.5703H102.277V65H101.633V64.5703ZM103.512 64.5703H104.156V65H103.512V64.5703ZM104.137 64.5703H104.781V65H104.137V64.5703ZM104.762 64.5703H105.406V65H104.762V64.5703ZM105.387 64.5703H106.031V65H105.387V64.5703ZM106.012 64.5703H106.656V65H106.012V64.5703ZM106.637 64.5703H107.281V65H106.637V64.5703ZM107.262 64.5703H107.906V65H107.262V64.5703ZM107.887 64.5703H108.531V65H107.887V64.5703ZM108.512 64.5703H109.156V65H108.512V64.5703ZM109.137 64.5703H109.781V65H109.137V64.5703ZM81 66.5703H81.6445V67H81V66.5703ZM81.625 66.5703H82.2695V67H81.625V66.5703ZM82.25 66.5703H82.8945V67H82.25V66.5703ZM82.875 66.5703H83.5195V67H82.875V66.5703ZM83.5 66.5703H84.1445V67H83.5V66.5703ZM84.125 66.5703H84.7695V67H84.125V66.5703ZM84.75 66.5703H85.3945V67H84.75V66.5703ZM85.375 66.5703H86.0195V67H85.375V66.5703ZM86 66.5703H86.6445V67H86V66.5703ZM86.625 66.5703H87.2695V67H86.625V66.5703ZM88.5039 66.5703H89.1484V67H88.5039V66.5703ZM89.1289 66.5703H89.7734V67H89.1289V66.5703ZM89.7539 66.5703H90.3984V67H89.7539V66.5703ZM90.3789 66.5703H91.0234V67H90.3789V66.5703ZM91.0039 66.5703H91.6484V67H91.0039V66.5703ZM91.6289 66.5703H92.2734V67H91.6289V66.5703ZM92.2539 66.5703H92.8984V67H92.2539V66.5703ZM92.8789 66.5703H93.5234V67H92.8789V66.5703ZM93.5039 66.5703H94.1484V67H93.5039V66.5703ZM94.1289 66.5703H94.7734V67H94.1289V66.5703ZM96.0078 66.5703H96.6523V67H96.0078V66.5703ZM96.6328 66.5703H97.2773V67H96.6328V66.5703ZM97.2578 66.5703H97.9023V67H97.2578V66.5703ZM97.8828 66.5703H98.5273V67H97.8828V66.5703ZM98.5078 66.5703H99.1523V67H98.5078V66.5703ZM99.1328 66.5703H99.7773V67H99.1328V66.5703ZM99.7578 66.5703H100.402V67H99.7578V66.5703ZM100.383 66.5703H101.027V67H100.383V66.5703ZM101.008 66.5703H101.652V67H101.008V66.5703ZM101.633 66.5703H102.277V67H101.633V66.5703ZM103.512 66.5703H104.156V67H103.512V66.5703ZM104.137 66.5703H104.781V67H104.137V66.5703ZM104.762 66.5703H105.406V67H104.762V66.5703ZM105.387 66.5703H106.031V67H105.387V66.5703ZM106.012 66.5703H106.656V67H106.012V66.5703ZM106.637 66.5703H107.281V67H106.637V66.5703ZM107.262 66.5703H107.906V67H107.262V66.5703ZM107.887 66.5703H108.531V67H107.887V66.5703ZM108.512 66.5703H109.156V67H108.512V66.5703ZM109.137 66.5703H109.781V67H109.137V66.5703ZM81 68.5703H81.6445V69H81V68.5703ZM81.625 68.5703H82.2695V69H81.625V68.5703ZM82.25 68.5703H82.8945V69H82.25V68.5703ZM82.875 68.5703H83.5195V69H82.875V68.5703ZM83.5 68.5703H84.1445V69H83.5V68.5703ZM84.125 68.5703H84.7695V69H84.125V68.5703ZM84.75 68.5703H85.3945V69H84.75V68.5703ZM85.375 68.5703H86.0195V69H85.375V68.5703ZM86 68.5703H86.6445V69H86V68.5703ZM86.625 68.5703H87.2695V69H86.625V68.5703ZM88.5039 68.5703H89.1484V69H88.5039V68.5703ZM89.1289 68.5703H89.7734V69H89.1289V68.5703ZM89.7539 68.5703H90.3984V69H89.7539V68.5703ZM90.3789 68.5703H91.0234V69H90.3789V68.5703ZM91.0039 68.5703H91.6484V69H91.0039V68.5703ZM91.6289 68.5703H92.2734V69H91.6289V68.5703ZM92.2539 68.5703H92.8984V69H92.2539V68.5703ZM92.8789 68.5703H93.5234V69H92.8789V68.5703ZM93.5039 68.5703H94.1484V69H93.5039V68.5703ZM94.1289 68.5703H94.7734V69H94.1289V68.5703ZM96.0078 68.5703H96.6523V69H96.0078V68.5703ZM96.6328 68.5703H97.2773V69H96.6328V68.5703ZM97.2578 68.5703H97.9023V69H97.2578V68.5703ZM97.8828 68.5703H98.5273V69H97.8828V68.5703ZM98.5078 68.5703H99.1523V69H98.5078V68.5703ZM99.1328 68.5703H99.7773V69H99.1328V68.5703ZM99.7578 68.5703H100.402V69H99.7578V68.5703ZM100.383 68.5703H101.027V69H100.383V68.5703ZM101.008 68.5703H101.652V69H101.008V68.5703ZM101.633 68.5703H102.277V69H101.633V68.5703ZM103.512 68.5703H104.156V69H103.512V68.5703ZM104.137 68.5703H104.781V69H104.137V68.5703ZM104.762 68.5703H105.406V69H104.762V68.5703ZM105.387 68.5703H106.031V69H105.387V68.5703ZM106.012 68.5703H106.656V69H106.012V68.5703ZM106.637 68.5703H107.281V69H106.637V68.5703ZM107.262 68.5703H107.906V69H107.262V68.5703ZM107.887 68.5703H108.531V69H107.887V68.5703ZM108.512 68.5703H109.156V69H108.512V68.5703ZM109.137 68.5703H109.781V69H109.137V68.5703ZM81 70.5703H81.6445V71H81V70.5703ZM81.625 70.5703H82.2695V71H81.625V70.5703ZM82.25 70.5703H82.8945V71H82.25V70.5703ZM82.875 70.5703H83.5195V71H82.875V70.5703ZM83.5 70.5703H84.1445V71H83.5V70.5703ZM84.125 70.5703H84.7695V71H84.125V70.5703ZM84.75 70.5703H85.3945V71H84.75V70.5703ZM85.375 70.5703H86.0195V71H85.375V70.5703ZM86 70.5703H86.6445V71H86V70.5703ZM86.625 70.5703H87.2695V71H86.625V70.5703ZM88.5039 70.5703H89.1484V71H88.5039V70.5703ZM89.1289 70.5703H89.7734V71H89.1289V70.5703ZM89.7539 70.5703H90.3984V71H89.7539V70.5703ZM90.3789 70.5703H91.0234V71H90.3789V70.5703ZM91.0039 70.5703H91.6484V71H91.0039V70.5703ZM91.6289 70.5703H92.2734V71H91.6289V70.5703ZM92.2539 70.5703H92.8984V71H92.2539V70.5703ZM92.8789 70.5703H93.5234V71H92.8789V70.5703ZM93.5039 70.5703H94.1484V71H93.5039V70.5703ZM94.1289 70.5703H94.7734V71H94.1289V70.5703ZM96.0078 70.5703H96.6523V71H96.0078V70.5703ZM96.6328 70.5703H97.2773V71H96.6328V70.5703ZM97.2578 70.5703H97.9023V71H97.2578V70.5703ZM97.8828 70.5703H98.5273V71H97.8828V70.5703ZM98.5078 70.5703H99.1523V71H98.5078V70.5703ZM99.1328 70.5703H99.7773V71H99.1328V70.5703ZM99.7578 70.5703H100.402V71H99.7578V70.5703ZM100.383 70.5703H101.027V71H100.383V70.5703ZM101.008 70.5703H101.652V71H101.008V70.5703ZM101.633 70.5703H102.277V71H101.633V70.5703ZM103.512 70.5703H104.156V71H103.512V70.5703ZM104.137 70.5703H104.781V71H104.137V70.5703ZM104.762 70.5703H105.406V71H104.762V70.5703ZM105.387 70.5703H106.031V71H105.387V70.5703ZM106.012 70.5703H106.656V71H106.012V70.5703ZM106.637 70.5703H107.281V71H106.637V70.5703ZM107.262 70.5703H107.906V71H107.262V70.5703ZM107.887 70.5703H108.531V71H107.887V70.5703ZM108.512 70.5703H109.156V71H108.512V70.5703ZM109.137 70.5703H109.781V71H109.137V70.5703ZM81 72.5703H81.6445V73H81V72.5703ZM81.625 72.5703H82.2695V73H81.625V72.5703ZM82.25 72.5703H82.8945V73H82.25V72.5703ZM82.875 72.5703H83.5195V73H82.875V72.5703ZM83.5 72.5703H84.1445V73H83.5V72.5703ZM84.125 72.5703H84.7695V73H84.125V72.5703ZM84.75 72.5703H85.3945V73H84.75V72.5703ZM85.375 72.5703H86.0195V73H85.375V72.5703ZM86 72.5703H86.6445V73H86V72.5703ZM86.625 72.5703H87.2695V73H86.625V72.5703ZM88.5039 72.5703H89.1484V73H88.5039V72.5703ZM89.1289 72.5703H89.7734V73H89.1289V72.5703ZM89.7539 72.5703H90.3984V73H89.7539V72.5703ZM90.3789 72.5703H91.0234V73H90.3789V72.5703ZM91.0039 72.5703H91.6484V73H91.0039V72.5703ZM91.6289 72.5703H92.2734V73H91.6289V72.5703ZM92.2539 72.5703H92.8984V73H92.2539V72.5703ZM92.8789 72.5703H93.5234V73H92.8789V72.5703ZM93.5039 72.5703H94.1484V73H93.5039V72.5703ZM94.1289 72.5703H94.7734V73H94.1289V72.5703ZM96.0078 72.5703H96.6523V73H96.0078V72.5703ZM96.6328 72.5703H97.2773V73H96.6328V72.5703ZM97.2578 72.5703H97.9023V73H97.2578V72.5703ZM97.8828 72.5703H98.5273V73H97.8828V72.5703ZM98.5078 72.5703H99.1523V73H98.5078V72.5703ZM99.1328 72.5703H99.7773V73H99.1328V72.5703ZM99.7578 72.5703H100.402V73H99.7578V72.5703ZM100.383 72.5703H101.027V73H100.383V72.5703ZM101.008 72.5703H101.652V73H101.008V72.5703ZM101.633 72.5703H102.277V73H101.633V72.5703ZM103.512 72.5703H104.156V73H103.512V72.5703ZM104.137 72.5703H104.781V73H104.137V72.5703ZM104.762 72.5703H105.406V73H104.762V72.5703ZM105.387 72.5703H106.031V73H105.387V72.5703ZM106.012 72.5703H106.656V73H106.012V72.5703ZM106.637 72.5703H107.281V73H106.637V72.5703ZM107.262 72.5703H107.906V73H107.262V72.5703ZM107.887 72.5703H108.531V73H107.887V72.5703ZM108.512 72.5703H109.156V73H108.512V72.5703ZM109.137 72.5703H109.781V73H109.137V72.5703Z" fill="#747378"/>
<path d="M81 78.5703H81.6445V79H81V78.5703ZM81.625 78.5703H82.2695V79H81.625V78.5703ZM82.25 78.5703H82.8945V79H82.25V78.5703ZM82.875 78.5703H83.5195V79H82.875V78.5703ZM83.5 78.5703H84.1445V79H83.5V78.5703ZM84.125 78.5703H84.7695V79H84.125V78.5703ZM84.75 78.5703H85.3945V79H84.75V78.5703ZM86.6289 78.5703H87.2734V79H86.6289V78.5703ZM87.2539 78.5703H87.8984V79H87.2539V78.5703ZM89.1328 78.5703H89.7773V79H89.1328V78.5703ZM89.7578 78.5703H90.4023V79H89.7578V78.5703ZM90.3828 78.5703H91.0273V79H90.3828V78.5703ZM92.2617 78.5703H92.9062V79H92.2617V78.5703ZM92.8867 78.5703H93.5312V79H92.8867V78.5703ZM94.7656 78.5703H95.4102V79H94.7656V78.5703ZM95.3906 78.5703H96.0352V79H95.3906V78.5703ZM96.0156 78.5703H96.6602V79H96.0156V78.5703ZM96.6406 78.5703H97.2852V79H96.6406V78.5703ZM97.2656 78.5703H97.9102V79H97.2656V78.5703ZM97.8906 78.5703H98.5352V79H97.8906V78.5703ZM98.5156 78.5703H99.1602V79H98.5156V78.5703ZM81 80.5703H81.6445V81H81V80.5703ZM81.625 80.5703H82.2695V81H81.625V80.5703ZM82.25 80.5703H82.8945V81H82.25V80.5703ZM82.875 80.5703H83.5195V81H82.875V80.5703ZM83.5 80.5703H84.1445V81H83.5V80.5703ZM84.125 80.5703H84.7695V81H84.125V80.5703ZM84.75 80.5703H85.3945V81H84.75V80.5703ZM85.375 80.5703H86.0195V81H85.375V80.5703ZM86 80.5703H86.6445V81H86V80.5703ZM86.625 80.5703H87.2695V81H86.625V80.5703ZM87.25 80.5703H87.8945V81H87.25V80.5703ZM89.1289 80.5703H89.7734V81H89.1289V80.5703ZM89.7539 80.5703H90.3984V81H89.7539V80.5703ZM90.3789 80.5703H91.0234V81H90.3789V80.5703ZM91.0039 80.5703H91.6484V81H91.0039V80.5703ZM91.6289 80.5703H92.2734V81H91.6289V80.5703ZM92.2539 80.5703H92.8984V81H92.2539V80.5703ZM92.8789 80.5703H93.5234V81H92.8789V80.5703ZM93.5039 80.5703H94.1484V81H93.5039V80.5703ZM94.1289 80.5703H94.7734V81H94.1289V80.5703ZM94.7539 80.5703H95.3984V81H94.7539V80.5703ZM95.3789 80.5703H96.0234V81H95.3789V80.5703ZM96.0039 80.5703H96.6484V81H96.0039V80.5703ZM81 82.5703H81.6445V83H81V82.5703ZM81.625 82.5703H82.2695V83H81.625V82.5703ZM83.5039 82.5703H84.1484V83H83.5039V82.5703ZM84.1289 82.5703H84.7734V83H84.1289V82.5703ZM84.7539 82.5703H85.3984V83H84.7539V82.5703ZM85.3789 82.5703H86.0234V83H85.3789V82.5703ZM86.0039 82.5703H86.6484V83H86.0039V82.5703ZM86.6289 82.5703H87.2734V83H86.6289V82.5703ZM87.2539 82.5703H87.8984V83H87.2539V82.5703ZM87.8789 82.5703H88.5234V83H87.8789V82.5703ZM89.7578 82.5703H90.4023V83H89.7578V82.5703ZM90.3828 82.5703H91.0273V83H90.3828V82.5703ZM91.0078 82.5703H91.6523V83H91.0078V82.5703ZM91.6328 82.5703H92.2773V83H91.6328V82.5703ZM92.2578 82.5703H92.9023V83H92.2578V82.5703ZM92.8828 82.5703H93.5273V83H92.8828V82.5703ZM93.5078 82.5703H94.1523V83H93.5078V82.5703ZM94.1328 82.5703H94.7773V83H94.1328V82.5703Z" fill="#747378"/>
<path d="M67 32.4219H70.8672V35H67V32.4219ZM78.2734 32.4219H82.1406V35H78.2734V32.4219ZM89.5469 32.4219H93.4141V35H89.5469V32.4219Z" fill="#F5F52E"/>
<path d="M67 56.4219H70.8672V59H67V56.4219ZM78.2734 56.4219H82.1406V59H78.2734V56.4219Z" fill="#F5F52E"/>
<path d="M78 44.4219H81.8672V47H78V44.4219ZM89.2734 44.4219H93.1406V47H89.2734V44.4219Z" fill="#F5F52E"/>
<path d="M78 68.4219H81.8672V71H78V68.4219ZM89.2734 68.4219H93.1406V71H89.2734V68.4219ZM100.547 68.4219H104.414V71H100.547V68.4219Z" fill="#F5F52E"/>
</g>
<defs>
<filter id="filter0_f" x="-5.80188" y="38.5" width="42.3019" height="55.0001" filterUnits="userSpaceOnUse" color-interpolation-filters="sRGB">
<feFlood flood-opacity="0" result="BackgroundImageFix"/>
<feBlend mode="normal" in="SourceGraphic" in2="BackgroundImageFix" result="shape"/>
<feGaussianBlur stdDeviation="3" result="effect1_foregroundBlur"/>
</filter>
<filter id="filter1_f" x="54" y="40" width="42" height="54" filterUnits="userSpaceOnUse" color-interpolation-filters="sRGB">
<feFlood flood-opacity="0" result="BackgroundImageFix"/>
<feBlend mode="normal" in="SourceGraphic" in2="BackgroundImageFix" result="shape"/>
<feGaussianBlur stdDeviation="3" result="effect1_foregroundBlur"/>
</filter>
<clipPath id="clip01924231">
<rect y="6" width="46" height="88" rx="4" fill="white"/>
</clipPath>
<clipPath id="clip1">
<rect x="54" y="6" width="46" height="88" rx="4" fill="white"/>
</clipPath>
</defs>
</svg>
