<svg width="100" height="100" viewBox="0 0 100 100" fill="none" xmlns="http://www.w3.org/2000/svg">
<rect width="100" height="100" rx="16" fill="white"/>
<g clip-path="url(#clip0)">
<rect x="6" y="6" width="88" height="94" rx="8" fill="#F1F5F9"/>
<path d="M10 13.4219H13.8672V16H10V13.4219ZM13.75 13.4219H17.6172V16H13.75V13.4219ZM17.5 13.4219H21.3672V16H17.5V13.4219ZM21.25 13.4219H25.1172V16H21.25V13.4219ZM25 13.4219H28.8672V16H25V13.4219ZM36.2734 13.4219H40.1406V16H36.2734V13.4219ZM40.0234 13.4219H43.8906V16H40.0234V13.4219ZM43.7734 13.4219H47.6406V16H43.7734V13.4219ZM47.5234 13.4219H51.3906V16H47.5234V13.4219ZM51.2734 13.4219H55.1406V16H51.2734V13.4219ZM55.0234 13.4219H58.8906V16H55.0234V13.4219Z" fill="#37A169"/>
<rect x="68" y="12" width="10" height="4" rx="1" fill="#1A365D"/>
<rect x="10" y="79" width="4" height="2" rx="1" fill="#854813"/>
<rect x="80" y="12" width="10" height="4" rx="1" fill="#1A365D"/>
<rect x="50" y="79" width="4" height="2" rx="1" fill="#854813"/>
<rect x="10" y="20" width="80" height="0.25" fill="#A4B2BF" fill-opacity="0.5"/>
<path d="M10 24.3906H11.2891V25.25H10V24.3906ZM11.25 24.3906H12.5391V25.25H11.25V24.3906ZM12.5 24.3906H13.7891V25.25H12.5V24.3906ZM13.75 24.3906H15.0391V25.25H13.75V24.3906ZM15 24.3906H16.2891V25.25H15V24.3906ZM16.25 24.3906H17.5391V25.25H16.25V24.3906ZM17.5 24.3906H18.7891V25.25H17.5V24.3906ZM18.75 24.3906H20.0391V25.25H18.75V24.3906ZM20 24.3906H21.2891V25.25H20V24.3906ZM23.7578 24.3906H25.0469V25.25H23.7578V24.3906ZM25.0078 24.3906H26.2969V25.25H25.0078V24.3906ZM26.2578 24.3906H27.5469V25.25H26.2578V24.3906ZM27.5078 24.3906H28.7969V25.25H27.5078V24.3906ZM28.7578 24.3906H30.0469V25.25H28.7578V24.3906ZM30.0078 24.3906H31.2969V25.25H30.0078V24.3906Z" fill="#274166"/>
<rect x="40" y="22.25" width="14" height="5" rx="1" fill="#30845A"/>
<rect x="10" y="30.25" width="80" height="0.25" fill="#A4B2BF" fill-opacity="0.5"/>
<rect x="10" y="64" width="80" height="0.25" fill="#A4B2BF" fill-opacity="0.5"/>
<path d="M10 36.7812H12.5781V38.5H10V36.7812ZM12.5 36.7812H15.0781V38.5H12.5V36.7812ZM15 36.7812H17.5781V38.5H15V36.7812ZM17.5 36.7812H20.0781V38.5H17.5V36.7812ZM20 36.7812H22.5781V38.5H20V36.7812ZM22.5 36.7812H25.0781V38.5H22.5V36.7812ZM25 36.7812H27.5781V38.5H25V36.7812ZM27.5 36.7812H30.0781V38.5H27.5V36.7812ZM30 36.7812H32.5781V38.5H30V36.7812ZM32.5 36.7812H35.0781V38.5H32.5V36.7812ZM35 36.7812H37.5781V38.5H35V36.7812ZM42.5156 36.7812H45.0938V38.5H42.5156V36.7812ZM45.0156 36.7812H47.5938V38.5H45.0156V36.7812ZM47.5156 36.7812H50.0938V38.5H47.5156V36.7812ZM50.0156 36.7812H52.5938V38.5H50.0156V36.7812ZM52.5156 36.7812H55.0938V38.5H52.5156V36.7812ZM55.0156 36.7812H57.5938V38.5H55.0156V36.7812Z" fill="#274166"/>
<path d="M10 68.8516H13.2227V71H10V68.8516ZM13.125 68.8516H16.3477V71H13.125V68.8516ZM16.25 68.8516H19.4727V71H16.25V68.8516ZM19.375 68.8516H22.5977V71H19.375V68.8516ZM22.5 68.8516H25.7227V71H22.5V68.8516ZM25.625 68.8516H28.8477V71H25.625V68.8516Z" fill="#274166"/>
<path d="M10 75.2812H12.5781V77H10V75.2812ZM12.5 75.2812H15.0781V77H12.5V75.2812ZM15 75.2812H17.5781V77H15V75.2812Z" fill="#30845A"/>
<path d="M50 75.2812H52.5781V77H50V75.2812ZM52.5 75.2812H55.0781V77H52.5V75.2812ZM55 75.2812H57.5781V77H55V75.2812Z" fill="#30845A"/>
<path d="M10 41.6406H11.2891V42.5H10V41.6406ZM11.25 41.6406H12.5391V42.5H11.25V41.6406ZM12.5 41.6406H13.7891V42.5H12.5V41.6406ZM13.75 41.6406H15.0391V42.5H13.75V41.6406ZM15 41.6406H16.2891V42.5H15V41.6406ZM16.25 41.6406H17.5391V42.5H16.25V41.6406ZM17.5 41.6406H18.7891V42.5H17.5V41.6406ZM21.2578 41.6406H22.5469V42.5H21.2578V41.6406ZM22.5078 41.6406H23.7969V42.5H22.5078V41.6406ZM23.7578 41.6406H25.0469V42.5H23.7578V41.6406ZM25.0078 41.6406H26.2969V42.5H25.0078V41.6406Z" fill="#809DA7"/>
<rect x="10.125" y="45.625" width="37.75" height="3.75" rx="0.875" fill="white" stroke="#A4B2BF" strokeWidth="0.25"/>
<path d="M50 41.6406H51.2891V42.5H50V41.6406ZM51.25 41.6406H52.5391V42.5H51.25V41.6406ZM52.5 41.6406H53.7891V42.5H52.5V41.6406ZM53.75 41.6406H55.0391V42.5H53.75V41.6406ZM55 41.6406H56.2891V42.5H55V41.6406ZM58.7578 41.6406H60.0469V42.5H58.7578V41.6406ZM60.0078 41.6406H61.2969V42.5H60.0078V41.6406ZM61.2578 41.6406H62.5469V42.5H61.2578V41.6406ZM62.5078 41.6406H63.7969V42.5H62.5078V41.6406ZM63.7578 41.6406H65.0469V42.5H63.7578V41.6406ZM65.0078 41.6406H66.2969V42.5H65.0078V41.6406ZM66.2578 41.6406H67.5469V42.5H66.2578V41.6406ZM67.5078 41.6406H68.7969V42.5H67.5078V41.6406Z" fill="#809DA7"/>
<rect x="50.125" y="45.625" width="37.75" height="3.75" rx="0.875" fill="white" stroke="#A4B2BF" strokeWidth="0.25"/>
<path d="M10 53.6406H11.2891V54.5H10V53.6406ZM11.25 53.6406H12.5391V54.5H11.25V53.6406ZM12.5 53.6406H13.7891V54.5H12.5V53.6406ZM13.75 53.6406H15.0391V54.5H13.75V53.6406ZM15 53.6406H16.2891V54.5H15V53.6406ZM16.25 53.6406H17.5391V54.5H16.25V53.6406ZM17.5 53.6406H18.7891V54.5H17.5V53.6406ZM18.75 53.6406H20.0391V54.5H18.75V53.6406ZM22.5078 53.6406H23.7969V54.5H22.5078V53.6406ZM23.7578 53.6406H25.0469V54.5H23.7578V53.6406ZM25.0078 53.6406H26.2969V54.5H25.0078V53.6406ZM26.2578 53.6406H27.5469V54.5H26.2578V53.6406Z" fill="#809DA7"/>
<rect x="10.125" y="57.625" width="37.75" height="3.75" rx="0.875" fill="white" stroke="#A4B2BF" strokeWidth="0.25"/>
<path d="M50 53.6406H51.2891V54.5H50V53.6406ZM51.25 53.6406H52.5391V54.5H51.25V53.6406ZM52.5 53.6406H53.7891V54.5H52.5V53.6406ZM53.75 53.6406H55.0391V54.5H53.75V53.6406ZM55 53.6406H56.2891V54.5H55V53.6406ZM58.7578 53.6406H60.0469V54.5H58.7578V53.6406ZM60.0078 53.6406H61.2969V54.5H60.0078V53.6406ZM61.2578 53.6406H62.5469V54.5H61.2578V53.6406ZM62.5078 53.6406H63.7969V54.5H62.5078V53.6406ZM63.7578 53.6406H65.0469V54.5H63.7578V53.6406ZM65.0078 53.6406H66.2969V54.5H65.0078V53.6406ZM66.2578 53.6406H67.5469V54.5H66.2578V53.6406Z" fill="#809DA7"/>
<rect x="50.125" y="57.625" width="37.75" height="3.75" rx="0.875" fill="white" stroke="#A4B2BF" strokeWidth="0.25"/>
<rect x="10.125" y="83.125" width="37.75" height="18.75" rx="0.875" fill="white" stroke="#A4B2BF" strokeWidth="0.25"/>
<rect x="50.125" y="83.125" width="37.75" height="18.75" rx="0.875" fill="white" stroke="#A4B2BF" strokeWidth="0.25"/>
<path d="M12 85.5703H12.6445V86H12V85.5703ZM12.625 85.5703H13.2695V86H12.625V85.5703ZM14.5039 85.5703H15.1484V86H14.5039V85.5703ZM15.1289 85.5703H15.7734V86H15.1289V85.5703ZM15.7539 85.5703H16.3984V86H15.7539V85.5703ZM16.3789 85.5703H17.0234V86H16.3789V85.5703ZM17.0039 85.5703H17.6484V86H17.0039V85.5703ZM17.6289 85.5703H18.2734V86H17.6289V85.5703ZM12 87.5703H12.6445V88H12V87.5703ZM12.625 87.5703H13.2695V88H12.625V87.5703ZM13.25 87.5703H13.8945V88H13.25V87.5703ZM15.1289 87.5703H15.7734V88H15.1289V87.5703ZM15.7539 87.5703H16.3984V88H15.7539V87.5703ZM17.6328 87.5703H18.2773V88H17.6328V87.5703ZM18.2578 87.5703H18.9023V88H18.2578V87.5703ZM18.8828 87.5703H19.5273V88H18.8828V87.5703ZM20.7617 87.5703H21.4062V88H20.7617V87.5703ZM21.3867 87.5703H22.0312V88H21.3867V87.5703ZM22.0117 87.5703H22.6562V88H22.0117V87.5703ZM22.6367 87.5703H23.2812V88H22.6367V87.5703ZM24.5156 87.5703H25.1602V88H24.5156V87.5703ZM25.1406 87.5703H25.7852V88H25.1406V87.5703ZM25.7656 87.5703H26.4102V88H25.7656V87.5703ZM26.3906 87.5703H27.0352V88H26.3906V87.5703ZM27.0156 87.5703H27.6602V88H27.0156V87.5703ZM27.6406 87.5703H28.2852V88H27.6406V87.5703ZM29.5195 87.5703H30.1641V88H29.5195V87.5703ZM30.1445 87.5703H30.7891V88H30.1445V87.5703ZM42.0312 87.5703H42.6758V88H42.0312V87.5703ZM42.6562 87.5703H43.3008V88H42.6562V87.5703ZM12 88.5703H12.6445V89H12V88.5703ZM12.625 88.5703H13.2695V89H12.625V88.5703ZM13.25 88.5703H13.8945V89H13.25V88.5703ZM13.875 88.5703H14.5195V89H13.875V88.5703ZM15.7539 88.5703H16.3984V89H15.7539V88.5703ZM16.3789 88.5703H17.0234V89H16.3789V88.5703ZM17.0039 88.5703H17.6484V89H17.0039V88.5703ZM17.6289 88.5703H18.2734V89H17.6289V88.5703ZM19.5078 88.5703H20.1523V89H19.5078V88.5703ZM20.1328 88.5703H20.7773V89H20.1328V88.5703ZM20.7578 88.5703H21.4023V89H20.7578V88.5703ZM21.3828 88.5703H22.0273V89H21.3828V88.5703ZM22.0078 88.5703H22.6523V89H22.0078V88.5703ZM23.8867 88.5703H24.5312V89H23.8867V88.5703ZM25.7656 88.5703H26.4102V89H25.7656V88.5703ZM26.3906 88.5703H27.0352V89H26.3906V88.5703ZM27.0156 88.5703H27.6602V89H27.0156V88.5703ZM28.8945 88.5703H29.5391V89H28.8945V88.5703ZM29.5195 88.5703H30.1641V89H29.5195V88.5703ZM30.1445 88.5703H30.7891V89H30.1445V88.5703ZM30.7695 88.5703H31.4141V89H30.7695V88.5703ZM31.3945 88.5703H32.0391V89H31.3945V88.5703ZM32.0195 88.5703H32.6641V89H32.0195V88.5703ZM32.6445 88.5703H33.2891V89H32.6445V88.5703ZM34.5234 88.5703H35.168V89H34.5234V88.5703ZM35.1484 88.5703H35.793V89H35.1484V88.5703ZM35.7734 88.5703H36.418V89H35.7734V88.5703ZM36.3984 88.5703H37.043V89H36.3984V88.5703ZM37.0234 88.5703H37.668V89H37.0234V88.5703ZM37.6484 88.5703H38.293V89H37.6484V88.5703ZM38.2734 88.5703H38.918V89H38.2734V88.5703ZM38.8984 88.5703H39.543V89H38.8984V88.5703ZM12 90.5703H12.6445V91H12V90.5703ZM13.8789 90.5703H14.5234V91H13.8789V90.5703ZM14.5039 90.5703H15.1484V91H14.5039V90.5703ZM15.1289 90.5703H15.7734V91H15.1289V90.5703ZM15.7539 90.5703H16.3984V91H15.7539V90.5703ZM16.3789 90.5703H17.0234V91H16.3789V90.5703ZM17.0039 90.5703H17.6484V91H17.0039V90.5703ZM17.6289 90.5703H18.2734V91H17.6289V90.5703ZM19.5078 90.5703H20.1523V91H19.5078V90.5703ZM20.1328 90.5703H20.7773V91H20.1328V90.5703ZM22.0117 90.5703H22.6562V91H22.0117V90.5703ZM23.8906 90.5703H24.5352V91H23.8906V90.5703ZM24.5156 90.5703H25.1602V91H24.5156V90.5703ZM26.3945 90.5703H27.0391V91H26.3945V90.5703ZM27.0195 90.5703H27.6641V91H27.0195V90.5703ZM27.6445 90.5703H28.2891V91H27.6445V90.5703ZM28.2695 90.5703H28.9141V91H28.2695V90.5703ZM28.8945 90.5703H29.5391V91H28.8945V90.5703ZM30.7734 90.5703H31.418V91H30.7734V90.5703ZM31.3984 90.5703H32.043V91H31.3984V90.5703ZM32.0234 90.5703H32.668V91H32.0234V90.5703ZM32.6484 90.5703H33.293V91H32.6484V90.5703ZM33.2734 90.5703H33.918V91H33.2734V90.5703ZM33.8984 90.5703H34.543V91H33.8984V90.5703ZM34.5234 90.5703H35.168V91H34.5234V90.5703ZM35.1484 90.5703H35.793V91H35.1484V90.5703ZM37.0273 90.5703H37.6719V91H37.0273V90.5703ZM37.6523 90.5703H38.2969V91H37.6523V90.5703ZM39.5312 90.5703H40.1758V91H39.5312V90.5703ZM40.1562 90.5703H40.8008V91H40.1562V90.5703ZM40.7812 90.5703H41.4258V91H40.7812V90.5703ZM41.4062 90.5703H42.0508V91H41.4062V90.5703ZM42.0312 90.5703H42.6758V91H42.0312V90.5703ZM42.6562 90.5703H43.3008V91H42.6562V90.5703ZM43.2812 90.5703H43.9258V91H43.2812V90.5703ZM43.9062 90.5703H44.5508V91H43.9062V90.5703ZM44.5312 90.5703H45.1758V91H44.5312V90.5703ZM12 91.5703H12.6445V92H12V91.5703ZM12.625 91.5703H13.2695V92H12.625V91.5703ZM13.25 91.5703H13.8945V92H13.25V91.5703ZM13.875 91.5703H14.5195V92H13.875V91.5703ZM14.5 91.5703H15.1445V92H14.5V91.5703ZM16.3789 91.5703H17.0234V92H16.3789V91.5703ZM17.0039 91.5703H17.6484V92H17.0039V91.5703ZM18.8828 91.5703H19.5273V92H18.8828V91.5703ZM19.5078 91.5703H20.1523V92H19.5078V91.5703ZM20.1328 91.5703H20.7773V92H20.1328V91.5703ZM20.7578 91.5703H21.4023V92H20.7578V91.5703ZM21.3828 91.5703H22.0273V92H21.3828V91.5703ZM23.2617 91.5703H23.9062V92H23.2617V91.5703ZM25.1406 91.5703H25.7852V92H25.1406V91.5703ZM25.7656 91.5703H26.4102V92H25.7656V91.5703ZM26.3906 91.5703H27.0352V92H26.3906V91.5703ZM27.0156 91.5703H27.6602V92H27.0156V91.5703ZM28.8945 91.5703H29.5391V92H28.8945V91.5703ZM29.5195 91.5703H30.1641V92H29.5195V91.5703ZM30.1445 91.5703H30.7891V92H30.1445V91.5703ZM30.7695 91.5703H31.4141V92H30.7695V91.5703ZM31.3945 91.5703H32.0391V92H31.3945V91.5703ZM32.0195 91.5703H32.6641V92H32.0195V91.5703ZM32.6445 91.5703H33.2891V92H32.6445V91.5703ZM34.5234 91.5703H35.168V92H34.5234V91.5703ZM35.1484 91.5703H35.793V92H35.1484V91.5703ZM35.7734 91.5703H36.418V92H35.7734V91.5703ZM36.3984 91.5703H37.043V92H36.3984V91.5703ZM37.0234 91.5703H37.668V92H37.0234V91.5703ZM37.6484 91.5703H38.293V92H37.6484V91.5703ZM38.2734 91.5703H38.918V92H38.2734V91.5703ZM38.8984 91.5703H39.543V92H38.8984V91.5703ZM39.5234 91.5703H40.168V92H39.5234V91.5703ZM40.1484 91.5703H40.793V92H40.1484V91.5703ZM40.7734 91.5703H41.418V92H40.7734V91.5703ZM42.6523 91.5703H43.2969V92H42.6523V91.5703ZM43.2773 91.5703H43.9219V92H43.2773V91.5703ZM43.9023 91.5703H44.5469V92H43.9023V91.5703ZM12 92.5703H12.6445V93H12V92.5703ZM12.625 92.5703H13.2695V93H12.625V92.5703ZM13.25 92.5703H13.8945V93H13.25V92.5703ZM15.1289 92.5703H15.7734V93H15.1289V92.5703ZM15.7539 92.5703H16.3984V93H15.7539V92.5703ZM16.3789 92.5703H17.0234V93H16.3789V92.5703ZM18.2578 92.5703H18.9023V93H18.2578V92.5703ZM18.8828 92.5703H19.5273V93H18.8828V92.5703ZM19.5078 92.5703H20.1523V93H19.5078V92.5703ZM20.1328 92.5703H20.7773V93H20.1328V92.5703ZM20.7578 92.5703H21.4023V93H20.7578V92.5703ZM22.6367 92.5703H23.2812V93H22.6367V92.5703ZM23.2617 92.5703H23.9062V93H23.2617V92.5703ZM23.8867 92.5703H24.5312V93H23.8867V92.5703ZM24.5117 92.5703H25.1562V93H24.5117V92.5703ZM25.1367 92.5703H25.7812V93H25.1367V92.5703ZM25.7617 92.5703H26.4062V93H25.7617V92.5703ZM26.3867 92.5703H27.0312V93H26.3867V92.5703ZM28.2656 92.5703H28.9102V93H28.2656V92.5703ZM28.8906 92.5703H29.5352V93H28.8906V92.5703ZM29.5156 92.5703H30.1602V93H29.5156V92.5703ZM30.1406 92.5703H30.7852V93H30.1406V92.5703ZM30.7656 92.5703H31.4102V93H30.7656V92.5703ZM31.3906 92.5703H32.0352V93H31.3906V92.5703ZM32.0156 92.5703H32.6602V93H32.0156V92.5703ZM33.8945 92.5703H34.5391V93H33.8945V92.5703ZM34.5195 92.5703H35.1641V93H34.5195V92.5703ZM35.1445 92.5703H35.7891V93H35.1445V92.5703ZM37.0234 92.5703H37.668V93H37.0234V92.5703ZM37.6484 92.5703H38.293V93H37.6484V92.5703ZM38.2734 92.5703H38.918V93H38.2734V92.5703ZM38.8984 92.5703H39.543V93H38.8984V92.5703ZM39.5234 92.5703H40.168V93H39.5234V92.5703ZM40.1484 92.5703H40.793V93H40.1484V92.5703ZM40.7734 92.5703H41.418V93H40.7734V92.5703ZM41.3984 92.5703H42.043V93H41.3984V92.5703ZM42.0234 92.5703H42.668V93H42.0234V92.5703ZM42.6484 92.5703H43.293V93H42.6484V92.5703ZM43.2734 92.5703H43.918V93H43.2734V92.5703ZM12 93.5703H12.6445V94H12V93.5703ZM12.625 93.5703H13.2695V94H12.625V93.5703ZM13.25 93.5703H13.8945V94H13.25V93.5703ZM15.1289 93.5703H15.7734V94H15.1289V93.5703ZM15.7539 93.5703H16.3984V94H15.7539V93.5703ZM16.3789 93.5703H17.0234V94H16.3789V93.5703ZM17.0039 93.5703H17.6484V94H17.0039V93.5703ZM17.6289 93.5703H18.2734V94H17.6289V93.5703ZM18.2539 93.5703H18.8984V94H18.2539V93.5703ZM18.8789 93.5703H19.5234V94H18.8789V93.5703ZM19.5039 93.5703H20.1484V94H19.5039V93.5703ZM20.1289 93.5703H20.7734V94H20.1289V93.5703ZM20.7539 93.5703H21.3984V94H20.7539V93.5703ZM21.3789 93.5703H22.0234V94H21.3789V93.5703ZM22.0039 93.5703H22.6484V94H22.0039V93.5703ZM22.6289 93.5703H23.2734V94H22.6289V93.5703ZM24.5078 93.5703H25.1523V94H24.5078V93.5703ZM25.1328 93.5703H25.7773V94H25.1328V93.5703ZM27.0117 93.5703H27.6562V94H27.0117V93.5703ZM27.6367 93.5703H28.2812V94H27.6367V93.5703ZM28.2617 93.5703H28.9062V94H28.2617V93.5703ZM28.8867 93.5703H29.5312V94H28.8867V93.5703ZM30.7656 93.5703H31.4102V94H30.7656V93.5703ZM31.3906 93.5703H32.0352V94H31.3906V93.5703ZM32.0156 93.5703H32.6602V94H32.0156V93.5703ZM32.6406 93.5703H33.2852V94H32.6406V93.5703ZM33.2656 93.5703H33.9102V94H33.2656V93.5703ZM33.8906 93.5703H34.5352V94H33.8906V93.5703ZM34.5156 93.5703H35.1602V94H34.5156V93.5703ZM35.1406 93.5703H35.7852V94H35.1406V93.5703ZM12 95.5703H12.6445V96H12V95.5703ZM12.625 95.5703H13.2695V96H12.625V95.5703ZM13.25 95.5703H13.8945V96H13.25V95.5703ZM13.875 95.5703H14.5195V96H13.875V95.5703ZM14.5 95.5703H15.1445V96H14.5V95.5703ZM15.125 95.5703H15.7695V96H15.125V95.5703ZM17.0039 95.5703H17.6484V96H17.0039V95.5703ZM17.6289 95.5703H18.2734V96H17.6289V95.5703ZM18.2539 95.5703H18.8984V96H18.2539V95.5703ZM20.1328 95.5703H20.7773V96H20.1328V95.5703ZM20.7578 95.5703H21.4023V96H20.7578V95.5703ZM22.6367 95.5703H23.2812V96H22.6367V95.5703ZM23.2617 95.5703H23.9062V96H23.2617V95.5703ZM23.8867 95.5703H24.5312V96H23.8867V95.5703ZM24.5117 95.5703H25.1562V96H24.5117V95.5703ZM26.3906 95.5703H27.0352V96H26.3906V95.5703ZM27.0156 95.5703H27.6602V96H27.0156V95.5703ZM27.6406 95.5703H28.2852V96H27.6406V95.5703ZM29.5195 95.5703H30.1641V96H29.5195V95.5703ZM30.1445 95.5703H30.7891V96H30.1445V95.5703ZM30.7695 95.5703H31.4141V96H30.7695V95.5703ZM31.3945 95.5703H32.0391V96H31.3945V95.5703ZM33.2734 95.5703H33.918V96H33.2734V95.5703ZM33.8984 95.5703H34.543V96H33.8984V95.5703ZM34.5234 95.5703H35.168V96H34.5234V95.5703ZM35.1484 95.5703H35.793V96H35.1484V95.5703ZM35.7734 95.5703H36.418V96H35.7734V95.5703ZM36.3984 95.5703H37.043V96H36.3984V95.5703ZM38.2773 95.5703H38.9219V96H38.2773V95.5703ZM38.9023 95.5703H39.5469V96H38.9023V95.5703ZM40.7812 95.5703H41.4258V96H40.7812V95.5703ZM41.4062 95.5703H42.0508V96H41.4062V95.5703ZM42.0312 95.5703H42.6758V96H42.0312V95.5703ZM42.6562 95.5703H43.3008V96H42.6562V95.5703ZM43.2812 95.5703H43.9258V96H43.2812V95.5703ZM43.9062 95.5703H44.5508V96H43.9062V95.5703ZM44.5312 95.5703H45.1758V96H44.5312V95.5703ZM12 96.5703H12.6445V97H12V96.5703ZM12.625 96.5703H13.2695V97H12.625V96.5703ZM13.25 96.5703H13.8945V97H13.25V96.5703ZM13.875 96.5703H14.5195V97H13.875V96.5703ZM15.7539 96.5703H16.3984V97H15.7539V96.5703ZM16.3789 96.5703H17.0234V97H16.3789V96.5703ZM17.0039 96.5703H17.6484V97H17.0039V96.5703ZM17.6289 96.5703H18.2734V97H17.6289V96.5703ZM18.2539 96.5703H18.8984V97H18.2539V96.5703Z" fill="#809DA7" fill-opacity="0.5"/>
<path d="M32.0234 87.5703H32.668V88H32.0234V87.5703ZM32.6484 87.5703H33.293V88H32.6484V87.5703ZM33.2734 87.5703H33.918V88H33.2734V87.5703ZM33.8984 87.5703H34.543V88H33.8984V87.5703ZM34.5234 87.5703H35.168V88H34.5234V87.5703ZM35.1484 87.5703H35.793V88H35.1484V87.5703ZM35.7734 87.5703H36.418V88H35.7734V87.5703ZM36.3984 87.5703H37.043V88H36.3984V87.5703ZM38.2773 87.5703H38.9219V88H38.2773V87.5703ZM38.9023 87.5703H39.5469V88H38.9023V87.5703ZM39.5273 87.5703H40.1719V88H39.5273V87.5703ZM40.1523 87.5703H40.7969V88H40.1523V87.5703Z" fill="#9374DC" fill-opacity="0.5"/>
<path d="M52 85.5703H52.6445V86H52V85.5703ZM52.625 85.5703H53.2695V86H52.625V85.5703ZM54.5039 85.5703H55.1484V86H54.5039V85.5703ZM55.1289 85.5703H55.7734V86H55.1289V85.5703ZM55.7539 85.5703H56.3984V86H55.7539V85.5703ZM56.3789 85.5703H57.0234V86H56.3789V85.5703ZM57.0039 85.5703H57.6484V86H57.0039V85.5703ZM57.6289 85.5703H58.2734V86H57.6289V85.5703ZM52 87.5703H52.6445V88H52V87.5703ZM52.625 87.5703H53.2695V88H52.625V87.5703ZM53.25 87.5703H53.8945V88H53.25V87.5703ZM55.1289 87.5703H55.7734V88H55.1289V87.5703ZM55.7539 87.5703H56.3984V88H55.7539V87.5703ZM57.6328 87.5703H58.2773V88H57.6328V87.5703ZM58.2578 87.5703H58.9023V88H58.2578V87.5703ZM58.8828 87.5703H59.5273V88H58.8828V87.5703ZM60.7617 87.5703H61.4062V88H60.7617V87.5703ZM61.3867 87.5703H62.0312V88H61.3867V87.5703ZM62.0117 87.5703H62.6562V88H62.0117V87.5703ZM62.6367 87.5703H63.2812V88H62.6367V87.5703ZM64.5156 87.5703H65.1602V88H64.5156V87.5703ZM65.1406 87.5703H65.7852V88H65.1406V87.5703ZM65.7656 87.5703H66.4102V88H65.7656V87.5703ZM66.3906 87.5703H67.0352V88H66.3906V87.5703ZM67.0156 87.5703H67.6602V88H67.0156V87.5703ZM67.6406 87.5703H68.2852V88H67.6406V87.5703ZM69.5195 87.5703H70.1641V88H69.5195V87.5703ZM70.1445 87.5703H70.7891V88H70.1445V87.5703ZM82.0312 87.5703H82.6758V88H82.0312V87.5703ZM82.6562 87.5703H83.3008V88H82.6562V87.5703ZM52 88.5703H52.6445V89H52V88.5703ZM52.625 88.5703H53.2695V89H52.625V88.5703ZM53.25 88.5703H53.8945V89H53.25V88.5703ZM53.875 88.5703H54.5195V89H53.875V88.5703ZM55.7539 88.5703H56.3984V89H55.7539V88.5703ZM56.3789 88.5703H57.0234V89H56.3789V88.5703ZM57.0039 88.5703H57.6484V89H57.0039V88.5703ZM57.6289 88.5703H58.2734V89H57.6289V88.5703ZM59.5078 88.5703H60.1523V89H59.5078V88.5703ZM60.1328 88.5703H60.7773V89H60.1328V88.5703ZM60.7578 88.5703H61.4023V89H60.7578V88.5703ZM61.3828 88.5703H62.0273V89H61.3828V88.5703ZM62.0078 88.5703H62.6523V89H62.0078V88.5703ZM63.8867 88.5703H64.5312V89H63.8867V88.5703ZM65.7656 88.5703H66.4102V89H65.7656V88.5703ZM66.3906 88.5703H67.0352V89H66.3906V88.5703ZM67.0156 88.5703H67.6602V89H67.0156V88.5703ZM68.8945 88.5703H69.5391V89H68.8945V88.5703ZM69.5195 88.5703H70.1641V89H69.5195V88.5703ZM70.1445 88.5703H70.7891V89H70.1445V88.5703ZM70.7695 88.5703H71.4141V89H70.7695V88.5703ZM71.3945 88.5703H72.0391V89H71.3945V88.5703ZM72.0195 88.5703H72.6641V89H72.0195V88.5703ZM72.6445 88.5703H73.2891V89H72.6445V88.5703ZM74.5234 88.5703H75.168V89H74.5234V88.5703ZM75.1484 88.5703H75.793V89H75.1484V88.5703ZM75.7734 88.5703H76.418V89H75.7734V88.5703ZM76.3984 88.5703H77.043V89H76.3984V88.5703ZM77.0234 88.5703H77.668V89H77.0234V88.5703ZM77.6484 88.5703H78.293V89H77.6484V88.5703ZM78.2734 88.5703H78.918V89H78.2734V88.5703ZM78.8984 88.5703H79.543V89H78.8984V88.5703ZM52 90.5703H52.6445V91H52V90.5703ZM53.8789 90.5703H54.5234V91H53.8789V90.5703ZM54.5039 90.5703H55.1484V91H54.5039V90.5703ZM55.1289 90.5703H55.7734V91H55.1289V90.5703ZM57.0078 90.5703H57.6523V91H57.0078V90.5703ZM58.8867 90.5703H59.5312V91H58.8867V90.5703ZM59.5117 90.5703H60.1562V91H59.5117V90.5703ZM60.1367 90.5703H60.7812V91H60.1367V90.5703ZM60.7617 90.5703H61.4062V91H60.7617V90.5703ZM61.3867 90.5703H62.0312V91H61.3867V90.5703ZM62.0117 90.5703H62.6562V91H62.0117V90.5703ZM62.6367 90.5703H63.2812V91H62.6367V90.5703ZM63.2617 90.5703H63.9062V91H63.2617V90.5703ZM63.8867 90.5703H64.5312V91H63.8867V90.5703ZM65.7656 90.5703H66.4102V91H65.7656V90.5703ZM66.3906 90.5703H67.0352V91H66.3906V90.5703ZM67.0156 90.5703H67.6602V91H67.0156V90.5703ZM67.6406 90.5703H68.2852V91H67.6406V90.5703ZM68.2656 90.5703H68.9102V91H68.2656V90.5703ZM68.8906 90.5703H69.5352V91H68.8906V90.5703ZM70.7695 90.5703H71.4141V91H70.7695V90.5703ZM71.3945 90.5703H72.0391V91H71.3945V90.5703ZM72.0195 90.5703H72.6641V91H72.0195V90.5703ZM73.8984 90.5703H74.543V91H73.8984V90.5703ZM74.5234 90.5703H75.168V91H74.5234V90.5703ZM75.1484 90.5703H75.793V91H75.1484V90.5703ZM75.7734 90.5703H76.418V91H75.7734V90.5703ZM76.3984 90.5703H77.043V91H76.3984V90.5703ZM77.0234 90.5703H77.668V91H77.0234V90.5703ZM77.6484 90.5703H78.293V91H77.6484V90.5703ZM78.2734 90.5703H78.918V91H78.2734V90.5703ZM78.8984 90.5703H79.543V91H78.8984V90.5703ZM79.5234 90.5703H80.168V91H79.5234V90.5703ZM80.1484 90.5703H80.793V91H80.1484V90.5703ZM82.0273 90.5703H82.6719V91H82.0273V90.5703ZM82.6523 90.5703H83.2969V91H82.6523V90.5703ZM83.2773 90.5703H83.9219V91H83.2773V90.5703ZM83.9023 90.5703H84.5469V91H83.9023V90.5703ZM84.5273 90.5703H85.1719V91H84.5273V90.5703ZM85.1523 90.5703H85.7969V91H85.1523V90.5703ZM52 91.5703H52.6445V92H52V91.5703ZM52.625 91.5703H53.2695V92H52.625V91.5703ZM54.5039 91.5703H55.1484V92H54.5039V91.5703ZM55.1289 91.5703H55.7734V92H55.1289V91.5703ZM55.7539 91.5703H56.3984V92H55.7539V91.5703ZM56.3789 91.5703H57.0234V92H56.3789V91.5703ZM57.0039 91.5703H57.6484V92H57.0039V91.5703ZM57.6289 91.5703H58.2734V92H57.6289V91.5703ZM58.2539 91.5703H58.8984V92H58.2539V91.5703ZM58.8789 91.5703H59.5234V92H58.8789V91.5703ZM60.7578 91.5703H61.4023V92H60.7578V91.5703ZM61.3828 91.5703H62.0273V92H61.3828V91.5703ZM62.0078 91.5703H62.6523V92H62.0078V91.5703ZM63.8867 91.5703H64.5312V92H63.8867V91.5703ZM64.5117 91.5703H65.1562V92H64.5117V91.5703ZM65.1367 91.5703H65.7812V92H65.1367V91.5703ZM65.7617 91.5703H66.4062V92H65.7617V91.5703ZM66.3867 91.5703H67.0312V92H66.3867V91.5703ZM68.2656 91.5703H68.9102V92H68.2656V91.5703ZM68.8906 91.5703H69.5352V92H68.8906V91.5703ZM69.5156 91.5703H70.1602V92H69.5156V91.5703ZM70.1406 91.5703H70.7852V92H70.1406V91.5703ZM72.0195 91.5703H72.6641V92H72.0195V91.5703ZM72.6445 91.5703H73.2891V92H72.6445V91.5703ZM74.5234 91.5703H75.168V92H74.5234V91.5703ZM75.1484 91.5703H75.793V92H75.1484V91.5703ZM75.7734 91.5703H76.418V92H75.7734V91.5703ZM76.3984 91.5703H77.043V92H76.3984V91.5703ZM78.2773 91.5703H78.9219V92H78.2773V91.5703ZM78.9023 91.5703H79.5469V92H78.9023V91.5703ZM79.5273 91.5703H80.1719V92H79.5273V91.5703ZM80.1523 91.5703H80.7969V92H80.1523V91.5703ZM80.7773 91.5703H81.4219V92H80.7773V91.5703ZM82.6562 91.5703H83.3008V92H82.6562V91.5703ZM83.2812 91.5703H83.9258V92H83.2812V91.5703ZM83.9062 91.5703H84.5508V92H83.9062V91.5703ZM52 92.5703H52.6445V93H52V92.5703ZM52.625 92.5703H53.2695V93H52.625V92.5703ZM54.5039 92.5703H55.1484V93H54.5039V92.5703ZM55.1289 92.5703H55.7734V93H55.1289V92.5703ZM55.7539 92.5703H56.3984V93H55.7539V92.5703ZM57.6328 92.5703H58.2773V93H57.6328V92.5703ZM58.2578 92.5703H58.9023V93H58.2578V92.5703ZM58.8828 92.5703H59.5273V93H58.8828V92.5703ZM59.5078 92.5703H60.1523V93H59.5078V92.5703ZM61.3867 92.5703H62.0312V93H61.3867V92.5703ZM62.0117 92.5703H62.6562V93H62.0117V92.5703ZM62.6367 92.5703H63.2812V93H62.6367V92.5703ZM63.2617 92.5703H63.9062V93H63.2617V92.5703ZM65.1406 92.5703H65.7852V93H65.1406V92.5703ZM65.7656 92.5703H66.4102V93H65.7656V92.5703ZM66.3906 92.5703H67.0352V93H66.3906V92.5703ZM67.0156 92.5703H67.6602V93H67.0156V92.5703ZM68.8945 92.5703H69.5391V93H68.8945V92.5703ZM69.5195 92.5703H70.1641V93H69.5195V92.5703ZM70.1445 92.5703H70.7891V93H70.1445V92.5703ZM70.7695 92.5703H71.4141V93H70.7695V92.5703ZM71.3945 92.5703H72.0391V93H71.3945V92.5703ZM72.0195 92.5703H72.6641V93H72.0195V92.5703ZM72.6445 92.5703H73.2891V93H72.6445V92.5703ZM74.5234 92.5703H75.168V93H74.5234V92.5703ZM75.1484 92.5703H75.793V93H75.1484V92.5703ZM77.0273 92.5703H77.6719V93H77.0273V92.5703ZM77.6523 92.5703H78.2969V93H77.6523V92.5703ZM78.2773 92.5703H78.9219V93H78.2773V92.5703ZM78.9023 92.5703H79.5469V93H78.9023V92.5703ZM79.5273 92.5703H80.1719V93H79.5273V92.5703ZM80.1523 92.5703H80.7969V93H80.1523V92.5703ZM80.7773 92.5703H81.4219V93H80.7773V92.5703ZM82.6562 92.5703H83.3008V93H82.6562V92.5703ZM83.2812 92.5703H83.9258V93H83.2812V92.5703ZM83.9062 92.5703H84.5508V93H83.9062V92.5703ZM52 93.5703H52.6445V94H52V93.5703ZM52.625 93.5703H53.2695V94H52.625V93.5703ZM53.25 93.5703H53.8945V94H53.25V93.5703ZM53.875 93.5703H54.5195V94H53.875V93.5703ZM55.7539 93.5703H56.3984V94H55.7539V93.5703ZM56.3789 93.5703H57.0234V94H56.3789V93.5703ZM57.0039 93.5703H57.6484V94H57.0039V93.5703ZM57.6289 93.5703H58.2734V94H57.6289V93.5703ZM59.5078 93.5703H60.1523V94H59.5078V93.5703ZM60.1328 93.5703H60.7773V94H60.1328V93.5703ZM60.7578 93.5703H61.4023V94H60.7578V93.5703ZM61.3828 93.5703H62.0273V94H61.3828V93.5703ZM62.0078 93.5703H62.6523V94H62.0078V93.5703ZM62.6328 93.5703H63.2773V94H62.6328V93.5703ZM63.2578 93.5703H63.9023V94H63.2578V93.5703ZM63.8828 93.5703H64.5273V94H63.8828V93.5703ZM52 95.5703H52.6445V96H52V95.5703ZM52.625 95.5703H53.2695V96H52.625V95.5703ZM53.25 95.5703H53.8945V96H53.25V95.5703ZM53.875 95.5703H54.5195V96H53.875V95.5703ZM54.5 95.5703H55.1445V96H54.5V95.5703ZM55.125 95.5703H55.7695V96H55.125V95.5703ZM55.75 95.5703H56.3945V96H55.75V95.5703ZM56.375 95.5703H57.0195V96H56.375V95.5703ZM57 95.5703H57.6445V96H57V95.5703ZM58.8789 95.5703H59.5234V96H58.8789V95.5703ZM59.5039 95.5703H60.1484V96H59.5039V95.5703ZM61.3828 95.5703H62.0273V96H61.3828V95.5703ZM62.0078 95.5703H62.6523V96H62.0078V95.5703ZM62.6328 95.5703H63.2773V96H62.6328V95.5703ZM63.2578 95.5703H63.9023V96H63.2578V95.5703ZM63.8828 95.5703H64.5273V96H63.8828V95.5703ZM64.5078 95.5703H65.1523V96H64.5078V95.5703ZM65.1328 95.5703H65.7773V96H65.1328V95.5703ZM65.7578 95.5703H66.4023V96H65.7578V95.5703ZM67.6367 95.5703H68.2812V96H67.6367V95.5703ZM68.2617 95.5703H68.9062V96H68.2617V95.5703ZM68.8867 95.5703H69.5312V96H68.8867V95.5703ZM69.5117 95.5703H70.1562V96H69.5117V95.5703ZM70.1367 95.5703H70.7812V96H70.1367V95.5703ZM70.7617 95.5703H71.4062V96H70.7617V95.5703ZM71.3867 95.5703H72.0312V96H71.3867V95.5703ZM72.0117 95.5703H72.6562V96H72.0117V95.5703ZM72.6367 95.5703H73.2812V96H72.6367V95.5703ZM74.5156 95.5703H75.1602V96H74.5156V95.5703ZM75.1406 95.5703H75.7852V96H75.1406V95.5703ZM75.7656 95.5703H76.4102V96H75.7656V95.5703ZM76.3906 95.5703H77.0352V96H76.3906V95.5703ZM77.0156 95.5703H77.6602V96H77.0156V95.5703ZM77.6406 95.5703H78.2852V96H77.6406V95.5703ZM78.2656 95.5703H78.9102V96H78.2656V95.5703ZM78.8906 95.5703H79.5352V96H78.8906V95.5703ZM52 96.5703H52.6445V97H52V96.5703ZM52.625 96.5703H53.2695V97H52.625V96.5703ZM53.25 96.5703H53.8945V97H53.25V96.5703ZM53.875 96.5703H54.5195V97H53.875V96.5703ZM54.5 96.5703H55.1445V97H54.5V96.5703ZM55.125 96.5703H55.7695V97H55.125V96.5703ZM55.75 96.5703H56.3945V97H55.75V96.5703ZM56.375 96.5703H57.0195V97H56.375V96.5703ZM57 96.5703H57.6445V97H57V96.5703ZM58.8789 96.5703H59.5234V97H58.8789V96.5703ZM59.5039 96.5703H60.1484V97H59.5039V96.5703ZM60.1289 96.5703H60.7734V97H60.1289V96.5703ZM60.7539 96.5703H61.3984V97H60.7539V96.5703ZM62.6328 96.5703H63.2773V97H62.6328V96.5703ZM63.2578 96.5703H63.9023V97H63.2578V96.5703ZM65.1367 96.5703H65.7812V97H65.1367V96.5703ZM65.7617 96.5703H66.4062V97H65.7617V96.5703ZM66.3867 96.5703H67.0312V97H66.3867V96.5703ZM68.2656 96.5703H68.9102V97H68.2656V96.5703ZM68.8906 96.5703H69.5352V97H68.8906V96.5703ZM69.5156 96.5703H70.1602V97H69.5156V96.5703ZM70.1406 96.5703H70.7852V97H70.1406V96.5703ZM70.7656 96.5703H71.4102V97H70.7656V96.5703ZM71.3906 96.5703H72.0352V97H71.3906V96.5703ZM73.2695 96.5703H73.9141V97H73.2695V96.5703ZM73.8945 96.5703H74.5391V97H73.8945V96.5703ZM74.5195 96.5703H75.1641V97H74.5195V96.5703ZM75.1445 96.5703H75.7891V97H75.1445V96.5703ZM75.7695 96.5703H76.4141V97H75.7695V96.5703ZM76.3945 96.5703H77.0391V97H76.3945V96.5703ZM77.0195 96.5703H77.6641V97H77.0195V96.5703ZM77.6445 96.5703H78.2891V97H77.6445V96.5703ZM78.2695 96.5703H78.9141V97H78.2695V96.5703ZM80.1484 96.5703H80.793V97H80.1484V96.5703ZM80.7734 96.5703H81.418V97H80.7734V96.5703ZM81.3984 96.5703H82.043V97H81.3984V96.5703ZM82.0234 96.5703H82.668V97H82.0234V96.5703ZM82.6484 96.5703H83.293V97H82.6484V96.5703ZM83.2734 96.5703H83.918V97H83.2734V96.5703ZM83.8984 96.5703H84.543V97H83.8984V96.5703ZM52 97.5703H52.6445V98H52V97.5703ZM52.625 97.5703H53.2695V98H52.625V97.5703ZM53.25 97.5703H53.8945V98H53.25V97.5703ZM55.1289 97.5703H55.7734V98H55.1289V97.5703ZM55.7539 97.5703H56.3984V98H55.7539V97.5703ZM56.3789 97.5703H57.0234V98H56.3789V97.5703ZM58.2578 97.5703H58.9023V98H58.2578V97.5703ZM58.8828 97.5703H59.5273V98H58.8828V97.5703ZM59.5078 97.5703H60.1523V98H59.5078V97.5703ZM60.1328 97.5703H60.7773V98H60.1328V97.5703ZM60.7578 97.5703H61.4023V98H60.7578V97.5703ZM61.3828 97.5703H62.0273V98H61.3828V97.5703ZM62.0078 97.5703H62.6523V98H62.0078V97.5703ZM63.8867 97.5703H64.5312V98H63.8867V97.5703ZM64.5117 97.5703H65.1562V98H64.5117V97.5703ZM65.1367 97.5703H65.7812V98H65.1367V97.5703ZM65.7617 97.5703H66.4062V98H65.7617V97.5703ZM67.6406 97.5703H68.2852V98H67.6406V97.5703ZM68.2656 97.5703H68.9102V98H68.2656V97.5703ZM68.8906 97.5703H69.5352V98H68.8906V97.5703ZM69.5156 97.5703H70.1602V98H69.5156V97.5703ZM71.3945 97.5703H72.0391V98H71.3945V97.5703ZM72.0195 97.5703H72.6641V98H72.0195V97.5703ZM72.6445 97.5703H73.2891V98H72.6445V97.5703ZM74.5234 97.5703H75.168V98H74.5234V97.5703ZM75.1484 97.5703H75.793V98H75.1484V97.5703ZM75.7734 97.5703H76.418V98H75.7734V97.5703ZM76.3984 97.5703H77.043V98H76.3984V97.5703ZM77.0234 97.5703H77.668V98H77.0234V97.5703ZM77.6484 97.5703H78.293V98H77.6484V97.5703ZM78.2734 97.5703H78.918V98H78.2734V97.5703ZM80.1523 97.5703H80.7969V98H80.1523V97.5703ZM80.7773 97.5703H81.4219V98H80.7773V97.5703ZM81.4023 97.5703H82.0469V98H81.4023V97.5703ZM82.0273 97.5703H82.6719V98H82.0273V97.5703ZM82.6523 97.5703H83.2969V98H82.6523V97.5703ZM52 98.5703H52.6445V99H52V98.5703ZM52.625 98.5703H53.2695V99H52.625V98.5703ZM53.25 98.5703H53.8945V99H53.25V98.5703ZM53.875 98.5703H54.5195V99H53.875V98.5703ZM54.5 98.5703H55.1445V99H54.5V98.5703ZM55.125 98.5703H55.7695V99H55.125V98.5703ZM55.75 98.5703H56.3945V99H55.75V98.5703ZM56.375 98.5703H57.0195V99H56.375V98.5703ZM57 98.5703H57.6445V99H57V98.5703ZM58.8789 98.5703H59.5234V99H58.8789V98.5703ZM59.5039 98.5703H60.1484V99H59.5039V98.5703ZM60.1289 98.5703H60.7734V99H60.1289V98.5703ZM60.7539 98.5703H61.3984V99H60.7539V98.5703ZM61.3789 98.5703H62.0234V99H61.3789V98.5703ZM62.0039 98.5703H62.6484V99H62.0039V98.5703ZM62.6289 98.5703H63.2734V99H62.6289V98.5703ZM63.2539 98.5703H63.8984V99H63.2539V98.5703ZM65.1328 98.5703H65.7773V99H65.1328V98.5703ZM65.7578 98.5703H66.4023V99H65.7578V98.5703ZM66.3828 98.5703H67.0273V99H66.3828V98.5703ZM68.2617 98.5703H68.9062V99H68.2617V98.5703ZM68.8867 98.5703H69.5312V99H68.8867V98.5703ZM70.7656 98.5703H71.4102V99H70.7656V98.5703ZM71.3906 98.5703H72.0352V99H71.3906V98.5703ZM73.2695 98.5703H73.9141V99H73.2695V98.5703ZM73.8945 98.5703H74.5391V99H73.8945V98.5703ZM74.5195 98.5703H75.1641V99H74.5195V98.5703ZM75.1445 98.5703H75.7891V99H75.1445V98.5703ZM75.7695 98.5703H76.4141V99H75.7695V98.5703ZM76.3945 98.5703H77.0391V99H76.3945V98.5703ZM77.0195 98.5703H77.6641V99H77.0195V98.5703ZM78.8984 98.5703H79.543V99H78.8984V98.5703ZM79.5234 98.5703H80.168V99H79.5234V98.5703ZM80.1484 98.5703H80.793V99H80.1484V98.5703ZM80.7734 98.5703H81.418V99H80.7734V98.5703ZM52 99.5703H52.6445V100H52V99.5703ZM52.625 99.5703H53.2695V100H52.625V99.5703ZM53.25 99.5703H53.8945V100H53.25V99.5703ZM53.875 99.5703H54.5195V100H53.875V99.5703ZM54.5 99.5703H55.1445V100H54.5V99.5703ZM55.125 99.5703H55.7695V100H55.125V99.5703ZM55.75 99.5703H56.3945V100H55.75V99.5703ZM56.375 99.5703H57.0195V100H56.375V99.5703ZM58.2539 99.5703H58.8984V100H58.2539V99.5703ZM58.8789 99.5703H59.5234V100H58.8789V99.5703ZM59.5039 99.5703H60.1484V100H59.5039V99.5703ZM60.1289 99.5703H60.7734V100H60.1289V99.5703ZM60.7539 99.5703H61.3984V100H60.7539V99.5703ZM61.3789 99.5703H62.0234V100H61.3789V99.5703ZM62.0039 99.5703H62.6484V100H62.0039V99.5703ZM62.6289 99.5703H63.2734V100H62.6289V99.5703ZM64.5078 99.5703H65.1523V100H64.5078V99.5703ZM65.1328 99.5703H65.7773V100H65.1328V99.5703ZM65.7578 99.5703H66.4023V100H65.7578V99.5703ZM67.6367 99.5703H68.2812V100H67.6367V99.5703ZM68.2617 99.5703H68.9062V100H68.2617V99.5703ZM68.8867 99.5703H69.5312V100H68.8867V99.5703ZM69.5117 99.5703H70.1562V100H69.5117V99.5703ZM71.3906 99.5703H72.0352V100H71.3906V99.5703ZM72.0156 99.5703H72.6602V100H72.0156V99.5703ZM72.6406 99.5703H73.2852V100H72.6406V99.5703ZM73.2656 99.5703H73.9102V100H73.2656V99.5703ZM73.8906 99.5703H74.5352V100H73.8906V99.5703ZM74.5156 99.5703H75.1602V100H74.5156V99.5703ZM75.1406 99.5703H75.7852V100H75.1406V99.5703ZM75.7656 99.5703H76.4102V100H75.7656V99.5703ZM76.3906 99.5703H77.0352V100H76.3906V99.5703ZM78.2695 99.5703H78.9141V100H78.2695V99.5703ZM78.8945 99.5703H79.5391V100H78.8945V99.5703ZM80.7734 99.5703H81.418V100H80.7734V99.5703ZM81.3984 99.5703H82.043V100H81.3984V99.5703Z" fill="#809DA7" fill-opacity="0.5"/>
<path d="M72.0234 87.5703H72.668V88H72.0234V87.5703ZM72.6484 87.5703H73.293V88H72.6484V87.5703ZM73.2734 87.5703H73.918V88H73.2734V87.5703ZM73.8984 87.5703H74.543V88H73.8984V87.5703ZM74.5234 87.5703H75.168V88H74.5234V87.5703ZM75.1484 87.5703H75.793V88H75.1484V87.5703ZM75.7734 87.5703H76.418V88H75.7734V87.5703ZM76.3984 87.5703H77.043V88H76.3984V87.5703ZM78.2773 87.5703H78.9219V88H78.2773V87.5703ZM78.9023 87.5703H79.5469V88H78.9023V87.5703ZM79.5273 87.5703H80.1719V88H79.5273V87.5703ZM80.1523 87.5703H80.7969V88H80.1523V87.5703Z" fill="#9374DC" fill-opacity="0.5"/>
</g>
<defs>
<clipPath id="clip0">
<rect x="6" y="6" width="88" height="94" rx="8" fill="white"/>
</clipPath>
</defs>
</svg>
