<svg width="100" height="100" viewBox="0 0 100 100" fill="none" xmlns="http://www.w3.org/2000/svg">
<rect width="100" height="100" rx="16" fill="#F3F3FB"/>
<circle cx="79" cy="76" r="7" fill="url(#paint0_linear)"/>
<circle cx="15" cy="47" r="7" fill="url(#paint1_linear)"/>
<rect width="100" height="8" fill="#D9D9E5"/>
<rect x="72" y="2" width="18" height="4" rx="1" fill="#4014C1"/>
<rect x="51" y="84" width="18" height="4" rx="1" fill="#4014C1"/>
<rect x="27" y="84" width="18" height="4" rx="1" fill="#D9D9E5"/>
<path d="M16.2266 18.2812H18.8047V20H16.2266V18.2812ZM18.7266 18.2812H21.3047V20H18.7266V18.2812ZM21.2266 18.2812H23.8047V20H21.2266V18.2812ZM23.7266 18.2812H26.3047V20H23.7266V18.2812ZM26.2266 18.2812H28.8047V20H26.2266V18.2812ZM33.7422 18.2812H36.3203V20H33.7422V18.2812ZM36.2422 18.2812H38.8203V20H36.2422V18.2812ZM38.7422 18.2812H41.3203V20H38.7422V18.2812ZM41.2422 18.2812H43.8203V20H41.2422V18.2812ZM48.7578 18.2812H51.3359V20H48.7578V18.2812ZM51.2578 18.2812H53.8359V20H51.2578V18.2812ZM53.7578 18.2812H56.3359V20H53.7578V18.2812ZM56.2578 18.2812H58.8359V20H56.2578V18.2812ZM58.7578 18.2812H61.3359V20H58.7578V18.2812ZM61.2578 18.2812H63.8359V20H61.2578V18.2812ZM63.7578 18.2812H66.3359V20H63.7578V18.2812ZM71.2734 18.2812H73.8516V20H71.2734V18.2812ZM73.7734 18.2812H76.3516V20H73.7734V18.2812ZM76.2734 18.2812H78.8516V20H76.2734V18.2812ZM78.7734 18.2812H81.3516V20H78.7734V18.2812ZM81.2734 18.2812H83.8516V20H81.2734V18.2812ZM22.4844 24.2812H25.0625V26H22.4844V24.2812ZM24.9844 24.2812H27.5625V26H24.9844V24.2812ZM27.4844 24.2812H30.0625V26H27.4844V24.2812ZM29.9844 24.2812H32.5625V26H29.9844V24.2812ZM32.4844 24.2812H35.0625V26H32.4844V24.2812ZM34.9844 24.2812H37.5625V26H34.9844V24.2812ZM37.4844 24.2812H40.0625V26H37.4844V24.2812ZM39.9844 24.2812H42.5625V26H39.9844V24.2812ZM42.4844 24.2812H45.0625V26H42.4844V24.2812ZM44.9844 24.2812H47.5625V26H44.9844V24.2812ZM52.5 24.2812H55.0781V26H52.5V24.2812ZM55 24.2812H57.5781V26H55V24.2812ZM57.5 24.2812H60.0781V26H57.5V24.2812ZM60 24.2812H62.5781V26H60V24.2812ZM67.5156 24.2812H70.0938V26H67.5156V24.2812ZM70.0156 24.2812H72.5938V26H70.0156V24.2812ZM72.5156 24.2812H75.0938V26H72.5156V24.2812ZM75.0156 24.2812H77.5938V26H75.0156V24.2812ZM19.9922 30.2812H22.5703V32H19.9922V30.2812ZM22.4922 30.2812H25.0703V32H22.4922V30.2812ZM24.9922 30.2812H27.5703V32H24.9922V30.2812ZM27.4922 30.2812H30.0703V32H27.4922V30.2812ZM29.9922 30.2812H32.5703V32H29.9922V30.2812ZM32.4922 30.2812H35.0703V32H32.4922V30.2812ZM34.9922 30.2812H37.5703V32H34.9922V30.2812ZM37.4922 30.2812H40.0703V32H37.4922V30.2812ZM39.9922 30.2812H42.5703V32H39.9922V30.2812ZM42.4922 30.2812H45.0703V32H42.4922V30.2812ZM50.0078 30.2812H52.5859V32H50.0078V30.2812ZM52.5078 30.2812H55.0859V32H52.5078V30.2812ZM55.0078 30.2812H57.5859V32H55.0078V30.2812ZM57.5078 30.2812H60.0859V32H57.5078V30.2812ZM60.0078 30.2812H62.5859V32H60.0078V30.2812ZM62.5078 30.2812H65.0859V32H62.5078V30.2812ZM65.0078 30.2812H67.5859V32H65.0078V30.2812ZM67.5078 30.2812H70.0859V32H67.5078V30.2812ZM70.0078 30.2812H72.5859V32H70.0078V30.2812ZM72.5078 30.2812H75.0859V32H72.5078V30.2812ZM75.0078 30.2812H77.5859V32H75.0078V30.2812ZM77.5078 30.2812H80.0859V32H77.5078V30.2812ZM24.9922 36.2812H27.5703V38H24.9922V36.2812ZM27.4922 36.2812H30.0703V38H27.4922V36.2812ZM29.9922 36.2812H32.5703V38H29.9922V36.2812ZM32.4922 36.2812H35.0703V38H32.4922V36.2812ZM34.9922 36.2812H37.5703V38H34.9922V36.2812ZM37.4922 36.2812H40.0703V38H37.4922V36.2812ZM39.9922 36.2812H42.5703V38H39.9922V36.2812ZM42.4922 36.2812H45.0703V38H42.4922V36.2812ZM44.9922 36.2812H47.5703V38H44.9922V36.2812ZM52.5078 36.2812H55.0859V38H52.5078V36.2812ZM55.0078 36.2812H57.5859V38H55.0078V36.2812ZM57.5078 36.2812H60.0859V38H57.5078V36.2812ZM60.0078 36.2812H62.5859V38H60.0078V36.2812ZM62.5078 36.2812H65.0859V38H62.5078V36.2812ZM65.0078 36.2812H67.5859V38H65.0078V36.2812ZM67.5078 36.2812H70.0859V38H67.5078V36.2812ZM70.0078 36.2812H72.5859V38H70.0078V36.2812ZM72.5078 36.2812H75.0859V38H72.5078V36.2812Z" fill="#4014C1"/>
<path d="M20 48.1406H21.2891V49H20V48.1406ZM21.25 48.1406H22.5391V49H21.25V48.1406ZM22.5 48.1406H23.7891V49H22.5V48.1406ZM23.75 48.1406H25.0391V49H23.75V48.1406ZM25 48.1406H26.2891V49H25V48.1406ZM26.25 48.1406H27.5391V49H26.25V48.1406ZM27.5 48.1406H28.7891V49H27.5V48.1406ZM28.75 48.1406H30.0391V49H28.75V48.1406ZM32.5078 48.1406H33.7969V49H32.5078V48.1406ZM33.7578 48.1406H35.0469V49H33.7578V48.1406ZM37.5156 48.1406H38.8047V49H37.5156V48.1406ZM41.2734 48.1406H42.5625V49H41.2734V48.1406ZM42.5234 48.1406H43.8125V49H42.5234V48.1406ZM43.7734 48.1406H45.0625V49H43.7734V48.1406ZM45.0234 48.1406H46.3125V49H45.0234V48.1406ZM46.2734 48.1406H47.5625V49H46.2734V48.1406ZM47.5234 48.1406H48.8125V49H47.5234V48.1406ZM48.7734 48.1406H50.0625V49H48.7734V48.1406ZM52.5312 48.1406H53.8203V49H52.5312V48.1406ZM53.7812 48.1406H55.0703V49H53.7812V48.1406ZM55.0312 48.1406H56.3203V49H55.0312V48.1406ZM56.2812 48.1406H57.5703V49H56.2812V48.1406ZM57.5312 48.1406H58.8203V49H57.5312V48.1406ZM61.2891 48.1406H62.5781V49H61.2891V48.1406ZM62.5391 48.1406H63.8281V49H62.5391V48.1406ZM63.7891 48.1406H65.0781V49H63.7891V48.1406ZM65.0391 48.1406H66.3281V49H65.0391V48.1406ZM66.2891 48.1406H67.5781V49H66.2891V48.1406ZM67.5391 48.1406H68.8281V49H67.5391V48.1406ZM68.7891 48.1406H70.0781V49H68.7891V48.1406ZM70.0391 48.1406H71.3281V49H70.0391V48.1406ZM71.2891 48.1406H72.5781V49H71.2891V48.1406ZM72.5391 48.1406H73.8281V49H72.5391V48.1406ZM73.7891 48.1406H75.0781V49H73.7891V48.1406ZM20 52.1406H21.2891V53H20V52.1406ZM21.25 52.1406H22.5391V53H21.25V52.1406ZM22.5 52.1406H23.7891V53H22.5V52.1406ZM26.2578 52.1406H27.5469V53H26.2578V52.1406ZM27.5078 52.1406H28.7969V53H27.5078V52.1406ZM28.7578 52.1406H30.0469V53H28.7578V52.1406ZM30.0078 52.1406H31.2969V53H30.0078V52.1406ZM31.2578 52.1406H32.5469V53H31.2578V52.1406ZM32.5078 52.1406H33.7969V53H32.5078V52.1406ZM33.7578 52.1406H35.0469V53H33.7578V52.1406ZM35.0078 52.1406H36.2969V53H35.0078V52.1406ZM36.2578 52.1406H37.5469V53H36.2578V52.1406ZM40.0156 52.1406H41.3047V53H40.0156V52.1406ZM41.2656 52.1406H42.5547V53H41.2656V52.1406ZM42.5156 52.1406H43.8047V53H42.5156V52.1406ZM43.7656 52.1406H45.0547V53H43.7656V52.1406ZM45.0156 52.1406H46.3047V53H45.0156V52.1406ZM46.2656 52.1406H47.5547V53H46.2656V52.1406ZM47.5156 52.1406H48.8047V53H47.5156V52.1406ZM51.2734 52.1406H52.5625V53H51.2734V52.1406ZM52.5234 52.1406H53.8125V53H52.5234V52.1406ZM53.7734 52.1406H55.0625V53H53.7734V52.1406ZM55.0234 52.1406H56.3125V53H55.0234V52.1406ZM58.7812 52.1406H60.0703V53H58.7812V52.1406ZM60.0312 52.1406H61.3203V53H60.0312V52.1406ZM61.2812 52.1406H62.5703V53H61.2812V52.1406ZM62.5312 52.1406H63.8203V53H62.5312V52.1406ZM63.7812 52.1406H65.0703V53H63.7812V52.1406ZM65.0312 52.1406H66.3203V53H65.0312V52.1406ZM66.2812 52.1406H67.5703V53H66.2812V52.1406ZM67.5312 52.1406H68.8203V53H67.5312V52.1406ZM71.2891 52.1406H72.5781V53H71.2891V52.1406ZM72.5391 52.1406H73.8281V53H72.5391V52.1406ZM73.7891 52.1406H75.0781V53H73.7891V52.1406ZM75.0391 52.1406H76.3281V53H75.0391V52.1406ZM20 56.1406H21.2891V57H20V56.1406ZM21.25 56.1406H22.5391V57H21.25V56.1406ZM22.5 56.1406H23.7891V57H22.5V56.1406ZM23.75 56.1406H25.0391V57H23.75V56.1406ZM25 56.1406H26.2891V57H25V56.1406ZM26.25 56.1406H27.5391V57H26.25V56.1406ZM30.0078 56.1406H31.2969V57H30.0078V56.1406ZM31.2578 56.1406H32.5469V57H31.2578V56.1406ZM32.5078 56.1406H33.7969V57H32.5078V56.1406ZM33.7578 56.1406H35.0469V57H33.7578V56.1406ZM35.0078 56.1406H36.2969V57H35.0078V56.1406ZM36.2578 56.1406H37.5469V57H36.2578V56.1406ZM37.5078 56.1406H38.7969V57H37.5078V56.1406ZM38.7578 56.1406H40.0469V57H38.7578V56.1406ZM40.0078 56.1406H41.2969V57H40.0078V56.1406ZM41.2578 56.1406H42.5469V57H41.2578V56.1406ZM45.0156 56.1406H46.3047V57H45.0156V56.1406ZM46.2656 56.1406H47.5547V57H46.2656V56.1406ZM47.5156 56.1406H48.8047V57H47.5156V56.1406ZM48.7656 56.1406H50.0547V57H48.7656V56.1406ZM50.0156 56.1406H51.3047V57H50.0156V56.1406ZM53.7734 56.1406H55.0625V57H53.7734V56.1406ZM55.0234 56.1406H56.3125V57H55.0234V56.1406ZM56.2734 56.1406H57.5625V57H56.2734V56.1406ZM57.5234 56.1406H58.8125V57H57.5234V56.1406ZM61.2812 56.1406H62.5703V57H61.2812V56.1406ZM62.5312 56.1406H63.8203V57H62.5312V56.1406ZM63.7812 56.1406H65.0703V57H63.7812V56.1406ZM65.0312 56.1406H66.3203V57H65.0312V56.1406ZM66.2812 56.1406H67.5703V57H66.2812V56.1406ZM67.5312 56.1406H68.8203V57H67.5312V56.1406ZM68.7812 56.1406H70.0703V57H68.7812V56.1406ZM70.0312 56.1406H71.3203V57H70.0312V56.1406ZM73.7891 56.1406H75.0781V57H73.7891V56.1406ZM75.0391 56.1406H76.3281V57H75.0391V56.1406ZM76.2891 56.1406H77.5781V57H76.2891V56.1406ZM77.5391 56.1406H78.8281V57H77.5391V56.1406ZM78.7891 56.1406H80.0781V57H78.7891V56.1406ZM20 60.1406H21.2891V61H20V60.1406ZM21.25 60.1406H22.5391V61H21.25V60.1406ZM22.5 60.1406H23.7891V61H22.5V60.1406ZM23.75 60.1406H25.0391V61H23.75V60.1406ZM25 60.1406H26.2891V61H25V60.1406ZM26.25 60.1406H27.5391V61H26.25V60.1406ZM27.5 60.1406H28.7891V61H27.5V60.1406ZM28.75 60.1406H30.0391V61H28.75V60.1406ZM30 60.1406H31.2891V61H30V60.1406ZM31.25 60.1406H32.5391V61H31.25V60.1406ZM32.5 60.1406H33.7891V61H32.5V60.1406ZM36.2578 60.1406H37.5469V61H36.2578V60.1406ZM37.5078 60.1406H38.7969V61H37.5078V60.1406ZM38.7578 60.1406H40.0469V61H38.7578V60.1406ZM42.5156 60.1406H43.8047V61H42.5156V60.1406ZM43.7656 60.1406H45.0547V61H43.7656V60.1406ZM45.0156 60.1406H46.3047V61H45.0156V60.1406ZM46.2656 60.1406H47.5547V61H46.2656V60.1406ZM47.5156 60.1406H48.8047V61H47.5156V60.1406ZM48.7656 60.1406H50.0547V61H48.7656V60.1406ZM50.0156 60.1406H51.3047V61H50.0156V60.1406ZM51.2656 60.1406H52.5547V61H51.2656V60.1406ZM52.5156 60.1406H53.8047V61H52.5156V60.1406ZM53.7656 60.1406H55.0547V61H53.7656V60.1406ZM55.0156 60.1406H56.3047V61H55.0156V60.1406ZM56.2656 60.1406H57.5547V61H56.2656V60.1406ZM20 68.1406H21.2891V69H20V68.1406ZM21.25 68.1406H22.5391V69H21.25V68.1406ZM22.5 68.1406H23.7891V69H22.5V68.1406ZM23.75 68.1406H25.0391V69H23.75V68.1406ZM25 68.1406H26.2891V69H25V68.1406ZM26.25 68.1406H27.5391V69H26.25V68.1406ZM27.5 68.1406H28.7891V69H27.5V68.1406ZM28.75 68.1406H30.0391V69H28.75V68.1406ZM32.5078 68.1406H33.7969V69H32.5078V68.1406ZM33.7578 68.1406H35.0469V69H33.7578V68.1406ZM35.0078 68.1406H36.2969V69H35.0078V68.1406ZM36.2578 68.1406H37.5469V69H36.2578V68.1406ZM37.5078 68.1406H38.7969V69H37.5078V68.1406ZM41.2656 68.1406H42.5547V69H41.2656V68.1406ZM42.5156 68.1406H43.8047V69H42.5156V68.1406ZM43.7656 68.1406H45.0547V69H43.7656V68.1406ZM47.5234 68.1406H48.8125V69H47.5234V68.1406ZM48.7734 68.1406H50.0625V69H48.7734V68.1406ZM50.0234 68.1406H51.3125V69H50.0234V68.1406ZM51.2734 68.1406H52.5625V69H51.2734V68.1406ZM52.5234 68.1406H53.8125V69H52.5234V68.1406ZM53.7734 68.1406H55.0625V69H53.7734V68.1406ZM55.0234 68.1406H56.3125V69H55.0234V68.1406ZM56.2734 68.1406H57.5625V69H56.2734V68.1406ZM57.5234 68.1406H58.8125V69H57.5234V68.1406ZM61.2812 68.1406H62.5703V69H61.2812V68.1406ZM62.5312 68.1406H63.8203V69H62.5312V68.1406ZM63.7812 68.1406H65.0703V69H63.7812V68.1406ZM65.0312 68.1406H66.3203V69H65.0312V68.1406ZM66.2812 68.1406H67.5703V69H66.2812V68.1406ZM70.0391 68.1406H71.3281V69H70.0391V68.1406ZM71.2891 68.1406H72.5781V69H71.2891V68.1406ZM72.5391 68.1406H73.8281V69H72.5391V68.1406ZM73.7891 68.1406H75.0781V69H73.7891V68.1406ZM75.0391 68.1406H76.3281V69H75.0391V68.1406ZM20 72.1406H21.2891V73H20V72.1406ZM21.25 72.1406H22.5391V73H21.25V72.1406ZM25.0078 72.1406H26.2969V73H25.0078V72.1406ZM26.2578 72.1406H27.5469V73H26.2578V72.1406ZM27.5078 72.1406H28.7969V73H27.5078V72.1406ZM28.7578 72.1406H30.0469V73H28.7578V72.1406ZM30.0078 72.1406H31.2969V73H30.0078V72.1406ZM31.2578 72.1406H32.5469V73H31.2578V72.1406ZM32.5078 72.1406H33.7969V73H32.5078V72.1406ZM33.7578 72.1406H35.0469V73H33.7578V72.1406ZM35.0078 72.1406H36.2969V73H35.0078V72.1406ZM36.2578 72.1406H37.5469V73H36.2578V72.1406ZM40.0156 72.1406H41.3047V73H40.0156V72.1406ZM41.2656 72.1406H42.5547V73H41.2656V72.1406ZM42.5156 72.1406H43.8047V73H42.5156V72.1406ZM43.7656 72.1406H45.0547V73H43.7656V72.1406ZM45.0156 72.1406H46.3047V73H45.0156V72.1406ZM46.2656 72.1406H47.5547V73H46.2656V72.1406ZM47.5156 72.1406H48.8047V73H47.5156V72.1406ZM48.7656 72.1406H50.0547V73H48.7656V72.1406ZM50.0156 72.1406H51.3047V73H50.0156V72.1406ZM51.2656 72.1406H52.5547V73H51.2656V72.1406ZM52.5156 72.1406H53.8047V73H52.5156V72.1406Z" fill="#7C7C94"/>
<defs>
<linearGradient id="paint0_linear" x1="72" y1="69" x2="86" y2="83" gradientUnits="userSpaceOnUse">
<stop stop-color="#E9E7F6"/>
<stop offset="1" stop-color="#F1E7EF"/>
</linearGradient>
<linearGradient id="paint1_linear" x1="8" y1="40" x2="22" y2="54" gradientUnits="userSpaceOnUse">
<stop stop-color="#E9E7F6"/>
<stop offset="1" stop-color="#F1E7EF"/>
</linearGradient>
</defs>
</svg>
