<svg width="100" height="100" viewBox="0 0 100 100" fill="none" xmlns="http://www.w3.org/2000/svg">
<g clip-path="url(#clip0)">
<rect width="100" height="100" rx="16" fill="#FFEEE0"/>
<rect x="67" y="41" width="20" height="22" fill="#244751"/>
<rect x="71" y="34" width="12" height="12" fill="#3B6C7F"/>
<path d="M8 9.14062H9.28906V10H8V9.14062ZM9.25 9.14062H10.5391V10H9.25V9.14062ZM10.5 9.14062H11.7891V10H10.5V9.14062ZM11.75 9.14062H13.0391V10H11.75V9.14062Z" fill="#305356"/>
<path d="M15 9.14062H16.2891V10H15V9.14062ZM16.25 9.14062H17.5391V10H16.25V9.14062ZM17.5 9.14062H18.7891V10H17.5V9.14062ZM18.75 9.14062H20.0391V10H18.75V9.14062ZM20 9.14062H21.2891V10H20V9.14062ZM21.25 9.14062H22.5391V10H21.25V9.14062Z" fill="#305356"/>
<path d="M25 9.14062H26.2891V10H25V9.14062ZM26.25 9.14062H27.5391V10H26.25V9.14062ZM27.5 9.14062H28.7891V10H27.5V9.14062ZM28.75 9.14062H30.0391V10H28.75V9.14062Z" fill="#305356"/>
<path d="M32 9.14062H33.2891V10H32V9.14062ZM33.25 9.14062H34.5391V10H33.25V9.14062ZM34.5 9.14062H35.7891V10H34.5V9.14062ZM35.75 9.14062H37.0391V10H35.75V9.14062ZM37 9.14062H38.2891V10H37V9.14062ZM38.25 9.14062H39.5391V10H38.25V9.14062ZM39.5 9.14062H40.7891V10H39.5V9.14062Z" fill="#305356"/>
<path d="M43 9.14062H44.2891V10H43V9.14062ZM44.25 9.14062H45.5391V10H44.25V9.14062ZM45.5 9.14062H46.7891V10H45.5V9.14062ZM46.75 9.14062H48.0391V10H46.75V9.14062ZM48 9.14062H49.2891V10H48V9.14062Z" fill="#305356"/>
<path d="M8 10.5703H8.64453V11H8V10.5703ZM8.625 10.5703H9.26953V11H8.625V10.5703ZM9.25 10.5703H9.89453V11H9.25V10.5703ZM9.875 10.5703H10.5195V11H9.875V10.5703Z" fill="#D45801"/>
<path d="M15 10.5703H15.6445V11H15V10.5703ZM15.625 10.5703H16.2695V11H15.625V10.5703ZM16.25 10.5703H16.8945V11H16.25V10.5703ZM16.875 10.5703H17.5195V11H16.875V10.5703ZM17.5 10.5703H18.1445V11H17.5V10.5703ZM18.125 10.5703H18.7695V11H18.125V10.5703Z" fill="#D45801"/>
<path d="M25 10.5703H25.6445V11H25V10.5703ZM25.625 10.5703H26.2695V11H25.625V10.5703ZM26.25 10.5703H26.8945V11H26.25V10.5703ZM26.875 10.5703H27.5195V11H26.875V10.5703Z" fill="#D45801"/>
<path d="M32 10.5703H32.6445V11H32V10.5703ZM32.625 10.5703H33.2695V11H32.625V10.5703ZM33.25 10.5703H33.8945V11H33.25V10.5703ZM33.875 10.5703H34.5195V11H33.875V10.5703ZM34.5 10.5703H35.1445V11H34.5V10.5703ZM35.125 10.5703H35.7695V11H35.125V10.5703ZM35.75 10.5703H36.3945V11H35.75V10.5703Z" fill="#D45801"/>
<path d="M43 10.5703H43.6445V11H43V10.5703ZM43.625 10.5703H44.2695V11H43.625V10.5703ZM44.25 10.5703H44.8945V11H44.25V10.5703ZM44.875 10.5703H45.5195V11H44.875V10.5703ZM45.5 10.5703H46.1445V11H45.5V10.5703Z" fill="#D45801"/>
<path d="M21 41.4224H24.8672V44.0005H21V41.4224ZM24.75 41.4224H28.6172V44.0005H24.75V41.4224ZM28.5 41.4224H32.3672V44.0005H28.5V41.4224ZM32.25 41.4224H36.1172V44.0005H32.25V41.4224ZM36 41.4224H39.8672V44.0005H36V41.4224ZM39.75 41.4224H43.6172V44.0005H39.75V41.4224ZM43.5 41.4224H47.3672V44.0005H43.5V41.4224ZM21 49.4224H24.8672V52.0005H21V49.4224ZM24.75 49.4224H28.6172V52.0005H24.75V49.4224ZM28.5 49.4224H32.3672V52.0005H28.5V49.4224ZM32.25 49.4224H36.1172V52.0005H32.25V49.4224ZM36 49.4224H39.8672V52.0005H36V49.4224ZM39.75 49.4224H43.6172V52.0005H39.75V49.4224ZM43.5 49.4224H47.3672V52.0005H43.5V49.4224ZM54.7734 49.4224H58.6406V52.0005H54.7734V49.4224ZM58.5234 49.4224H62.3906V52.0005H58.5234V49.4224ZM21 57.4224H24.8672V60.0005H21V57.4224ZM24.75 57.4224H28.6172V60.0005H24.75V57.4224ZM28.5 57.4224H32.3672V60.0005H28.5V57.4224ZM39.7734 57.4224H43.6406V60.0005H39.7734V57.4224ZM43.5234 57.4224H47.3906V60.0005H43.5234V57.4224ZM47.2734 57.4224H51.1406V60.0005H47.2734V57.4224ZM51.0234 57.4224H54.8906V60.0005H51.0234V57.4224Z" fill="#168383"/>
<path d="M12 89.2812H14.5781V91H12V89.2812ZM14.5 89.2812H17.0781V91H14.5V89.2812ZM17 89.2812H19.5781V91H17V89.2812ZM19.5 89.2812H22.0781V91H19.5V89.2812ZM22 89.2812H24.5781V91H22V89.2812ZM24.5 89.2812H27.0781V91H24.5V89.2812ZM32.0156 89.2812H34.5938V91H32.0156V89.2812ZM34.5156 89.2812H37.0938V91H34.5156V89.2812ZM37.0156 89.2812H39.5938V91H37.0156V89.2812ZM39.5156 89.2812H42.0938V91H39.5156V89.2812ZM47.0312 89.2812H49.6094V91H47.0312V89.2812ZM49.5312 89.2812H52.1094V91H49.5312V89.2812Z" fill="#626E6E"/>
<path d="M12.1406 46.3521L14.3733 45.063L15.2327 46.5515L13 47.8406L12.1406 46.3521ZM14.3057 45.1021L16.5384 43.813L17.3978 45.3015L15.1651 46.5906L14.3057 45.1021ZM16.4708 43.8521L18.7035 42.563L19.5628 44.0515L17.3301 45.3406L16.4708 43.8521ZM22.9795 40.0943L25.2122 38.8052L26.0716 40.2937L23.8388 41.5828L22.9795 40.0943ZM25.1445 38.8443L27.3773 37.5552L28.2366 39.0437L26.0039 40.3328L25.1445 38.8443ZM27.3096 37.5943L29.5423 36.3052L30.4017 37.7937L28.169 39.0828L27.3096 37.5943ZM29.4747 36.3443L31.7074 35.0552L32.5668 36.5437L30.334 37.8328L29.4747 36.3443ZM31.6397 35.0943L33.8725 33.8052L34.7318 35.2937L32.4991 36.5828L31.6397 35.0943ZM33.8048 33.8443L36.0375 32.5552L36.8969 34.0437L34.6642 35.3328L33.8048 33.8443ZM35.9699 32.5943L38.2026 31.3052L39.062 32.7937L36.8292 34.0828L35.9699 32.5943ZM38.1349 31.3443L40.3676 30.0552L41.227 31.5437L38.9943 32.8328L38.1349 31.3443ZM40.3 30.0943L42.5327 28.8052L43.3921 30.2937L41.1594 31.5828L40.3 30.0943ZM42.465 28.8443L44.6978 27.5552L45.5571 29.0437L43.3244 30.3328L42.465 28.8443ZM44.6301 27.5943L46.8628 26.3052L47.7222 27.7937L45.4895 29.0828L44.6301 27.5943ZM46.7952 26.3443L49.0279 25.0552L49.8873 26.5437L47.6545 27.8328L46.7952 26.3443Z" fill="#EC711C"/>
<rect x="-4" y="44" width="6" height="6" fill="#5E8298"/>
<rect x="-4" y="54" width="6" height="6" fill="#337983"/>
<rect x="-4" y="64" width="6" height="6" fill="#87A3C0"/>
<rect x="-4" y="74" width="6" height="6" fill="#2F4A49"/>
<rect x="6" y="74" width="6" height="6" fill="#258391"/>
<rect x="16" y="74" width="6" height="6" fill="#2D7889"/>
<rect x="26" y="74" width="6" height="6" fill="#42727C"/>
<rect x="91" y="18" width="4" height="4" rx="2" fill="#C09483"/>
<rect x="91" y="24" width="4" height="4" rx="2" fill="#BF8558"/>
<rect x="91" y="30" width="4" height="4" rx="2" fill="#CA9A78"/>
<rect x="73" y="12" width="4" height="4" fill="#C88959"/>
<rect x="79" y="12" width="4" height="4" fill="#CC9A81"/>
<rect x="85" y="12" width="4" height="4" fill="#CB976E"/>
<rect x="91" y="12" width="4" height="4" rx="2" fill="#C59677"/>
<rect x="90" y="74" width="6" height="6" rx="3" fill="#4CB0B1"/>
<rect x="90" y="84" width="6" height="6" rx="3" fill="#406764"/>
<rect x="90" y="94" width="6" height="6" rx="3" fill="#28475A"/>
</g>
<defs>
<clipPath id="clip0">
<rect width="100" height="100" rx="16" fill="white"/>
</clipPath>
</defs>
</svg>
